<svg width="24" height="24" viewBox="0 0 24 24" fill="none" xmlns="http://www.w3.org/2000/svg">
<circle cx="12" cy="12" r="11.25" stroke="#959595" stroke-width="1.5"/>
<path d="M17.9526 10.7794C18.2195 10.5478 18.0769 10.1092 17.7248 10.0788L14.1128 9.76735C13.9653 9.75463 13.8368 9.66144 13.779 9.52513L12.3682 6.20144C12.2302 5.87639 11.7695 5.87652 11.6317 6.20164L10.2205 9.53126C10.1626 9.66786 10.0338 9.76119 9.88599 9.77373L6.27766 10.0799C5.92509 10.1098 5.78213 10.5491 6.04957 10.7808L8.79053 13.1553C8.90275 13.2525 8.95189 13.4039 8.91816 13.5485L8.09504 17.0768C8.01466 17.4214 8.38835 17.693 8.69127 17.5102L11.793 15.6381C11.9201 15.5614 12.0793 15.5614 12.2064 15.6381L15.3096 17.5111C15.6123 17.6938 15.9858 17.4227 15.906 17.0783L15.0874 13.5479C15.0539 13.4036 15.103 13.2526 15.2149 13.1555L17.9526 10.7794ZM12.2065 14.3918C12.0793 14.3148 11.92 14.3148 11.7928 14.3916L10.3051 15.2897C10.0021 15.4727 9.6283 15.2009 9.70883 14.8563L10.1048 13.1617C10.1385 13.0172 10.0895 12.8658 9.97737 12.7685L8.65992 11.6257C8.39301 11.3941 8.53544 10.9556 8.88746 10.925L10.6261 10.7742C10.7739 10.7614 10.9024 10.6678 10.9601 10.5312L11.6317 8.93888C11.7692 8.61305 12.2308 8.61277 12.3687 8.93843L13.0458 10.5382C13.1036 10.6747 13.232 10.768 13.3796 10.7808L15.1186 10.9317C15.4706 10.9622 15.613 11.4008 15.3461 11.6324L14.0286 12.7752C13.9165 12.8725 13.8675 13.0238 13.9013 13.1684L14.297 14.862C14.3775 15.2068 14.0034 15.4785 13.7004 15.2953L12.2065 14.3918Z" fill="#959595"/>
</svg>
