<svg width="22" height="22" viewBox="0 0 22 22" fill="none" xmlns="http://www.w3.org/2000/svg">
<path fill-rule="evenodd" clip-rule="evenodd" d="M11 0C17.0747 0 22 4.92527 22 11C22 17.0747 17.0747 22 11 22C4.92527 22 0 17.0747 0 11C0 4.92527 4.92527 0 11 0Z" fill="#959595"/>
<path fill-rule="evenodd" clip-rule="evenodd" d="M9.57849 11.452L10.0056 10.3857H8.87591L9.57636 11.452H9.57849ZM9.39484 9.26264L10.0077 10.3834L10.4583 9.26264H9.39698H9.39484ZM9.39484 9.26264L10.0205 7.90595H8.66236L9.39698 9.26264H9.39484ZM5.95454 7.90595L7.30418 10.6965L8.66022 7.90595H5.95454ZM7.30418 10.6965L5.8798 13.6163H8.71361L8.03666 12.212L7.30418 10.6965ZM8.00035 9.26491L8.67517 10.8258L8.87805 10.3879L9.39484 9.26718H8.00035V9.26491ZM8.67517 10.8258L8.03666 12.212H9.27312L8.67517 10.8258ZM9.57849 11.4542L9.27312 12.2142H10.0782L9.57849 11.4542ZM8.71575 13.6163H9.8796L9.27525 12.212L8.71361 13.6163H8.71575ZM9.9757 16.2208L8.71361 13.6163L7.66721 16.2208H9.9757ZM11.0029 13.6163L10.8021 13.31L10.0803 12.212H11.9276L11.005 13.6163H11.0029ZM7.49424 5.77335L9.41406 3.11441H6.04636L7.49424 5.77335ZM9.70449 5.77335H7.49424L8.66022 7.90595L9.70449 5.77335ZM5.95454 7.90595L7.49424 5.77335H4.92309L5.95454 7.90595ZM5.95454 7.90595H1.96327L3.90659 10.7396L5.9524 7.90595H5.95454ZM5.8798 13.6141L4.60917 16.2185H7.66508L5.8798 13.6141ZM1.83301 13.6141H5.8798L3.90872 10.7396L1.83301 13.6141ZM6.81515 18.3398H9.1215L7.66508 16.2185L6.81301 18.3398H6.81515ZM12.423 11.4497L11.9959 10.3834H13.1256L12.4251 11.4497H12.423ZM12.6066 9.26037L11.9938 10.3811L11.5432 9.26037H12.6045H12.6066ZM12.6066 9.26037L11.9809 7.90368H13.3391L12.6045 9.26037H12.6066ZM16.0469 7.90368L14.6973 10.6942L13.3413 7.90368H16.0469ZM14.6973 10.6942L16.1217 13.6141H13.2879L13.9648 12.2097L14.6973 10.6942ZM14.0011 9.26264L13.3263 10.8235L13.1234 10.3857L12.6066 9.26491H14.0011V9.26264ZM13.3263 10.8235L13.9648 12.2097H12.7284L13.3263 10.8235ZM12.423 11.452L12.7284 12.212H11.9233L12.423 11.452ZM13.2857 13.6141H12.1219L12.7262 12.2097L13.2879 13.6141H13.2857ZM12.0258 16.2185L13.2879 13.6141L14.3343 16.2185H12.0258ZM10.9986 9.26264H11.5432L10.9986 7.90595L10.4541 9.26264H10.9986ZM10.9986 12.2097L11.1353 11.9556L11.9916 10.3834H10.0013L10.9965 12.2097H10.9986ZM10.9986 16.2185L12.1219 13.6141H9.87533L10.7423 15.6241L10.9986 16.2185ZM14.5051 5.77335L12.5853 3.11441H15.953L14.5051 5.77335ZM12.2949 5.77335H14.5051L13.3391 7.90595L12.2949 5.77335ZM16.0448 7.90595L14.5051 5.77335H17.0763L16.0448 7.90595ZM16.0448 7.90595H20.0361L18.0928 10.7396L16.0469 7.90595H16.0448ZM16.1196 13.6141L17.3902 16.2185H14.3343L16.1196 13.6141ZM20.1663 13.6141H16.1196L18.0906 10.7396L20.1663 13.6141ZM15.1842 18.3398H12.8779L14.3343 16.2185L15.1863 18.3398H15.1842ZM11.0007 3.11441H12.5874L11.0007 0.916016L9.41406 3.11441H10.3686H10.5651H11.0007ZM11.0007 5.77335H12.297L11.0007 3.11441L9.70449 5.77335H11.0007ZM11.0007 7.90595H11.9831L11.3915 6.61958L11.0029 5.77335L10.0205 7.90595H11.0029H11.0007ZM11.0007 18.3421L11.2655 17.7953L12.0258 16.2208H9.97356L11.0007 18.3421ZM11.0007 21.0827L12.88 18.3443H9.1215L11.0007 21.0827Z" fill="white"/>
</svg>
