<svg width="30" height="27" viewBox="0 0 30 27" fill="none" xmlns="http://www.w3.org/2000/svg">
<g clip-path="url(#clip0_5868_34005)">
<path d="M21.1619 0.453439C21.7579 0.789815 22.1308 1.29348 22.3351 1.91586C22.4307 2.20547 22.3389 2.53645 22.5375 2.80627C22.5281 3.57976 22.5169 4.35144 22.5113 5.12493C22.5113 5.27602 22.5206 5.43792 22.7549 5.41633C23.8887 5.42532 25.0225 5.44151 26.1563 5.44151C27.0015 5.44151 27.8374 5.47209 28.617 5.84445C28.7069 5.88762 28.8287 5.86963 28.9374 5.88042C28.9337 6.01173 28.9487 6.13046 29.1305 6.13046C29.7395 6.84998 30.0019 7.67562 29.9982 8.59841C29.9907 11.025 29.9981 13.4516 29.9944 15.8782C29.9944 15.9807 29.9682 16.085 29.955 16.1875C29.7526 16.1965 29.5521 16.2127 29.3497 16.2127C26.1751 16.2127 23.0004 16.2163 19.8257 16.2109C19.5109 16.2109 19.2129 16.2523 18.9243 16.362C18.8887 16.3386 18.855 16.3153 18.8194 16.2901C18.7669 16.2181 18.6863 16.2253 18.6113 16.2253C16.1563 16.2289 13.6994 16.2343 11.2444 16.2379C11.1882 16.2073 11.1582 16.2379 11.1338 16.2811C10.0525 16.1606 8.96554 16.2217 7.88233 16.2163C5.28488 16.2037 2.6893 16.2019 0.0918523 16.1965C-0.0130952 16.0472 0.022512 15.88 0.0206379 15.7181C0.0131417 13.1152 -0.0262136 10.5105 0.0206379 7.90767C0.0356304 7.07123 0.586605 6.04771 1.71854 5.67716C2.22079 5.51167 2.72866 5.44151 3.25527 5.44151C4.5034 5.44511 5.74965 5.43252 6.99778 5.44871C7.37634 5.45411 7.52251 5.33359 7.52064 4.95764C7.51876 4.05644 7.5019 3.15524 7.56936 2.25224C7.62559 1.50394 8.53638 0.356304 9.37784 0.199808C9.9513 0.095478 10.5173 -0.00345604 11.1095 0.000141559C13.7125 0.0163308 16.3175 0.0181296 18.9206 0.000141559C19.6683 -0.00525484 20.373 0.144046 21.0664 0.37789C21.0739 0.430055 21.0963 0.466031 21.1619 0.451641V0.453439ZM15.0431 2.73432C13.6095 2.73432 12.1758 2.73792 10.7422 2.73072C10.4798 2.73072 10.3374 2.77389 10.3449 3.07069C10.3636 3.74345 10.3617 4.418 10.3449 5.09075C10.3374 5.37496 10.4648 5.44871 10.7347 5.44871C13.572 5.44331 16.4074 5.44331 19.2448 5.44871C19.5596 5.44871 19.6946 5.33898 19.6871 5.02599C19.6702 4.4126 19.6608 3.79921 19.6889 3.18582C19.7058 2.82246 19.5671 2.72353 19.2054 2.72892C17.8186 2.74511 16.4318 2.73612 15.0431 2.73432Z" fill="#B9BEF2"/>
<path d="M18.9264 16.362C19.2169 16.2505 19.5148 16.2091 19.8278 16.2109C23.0025 16.2163 26.1771 16.2145 29.3518 16.2127C29.5542 16.2127 29.7547 16.1965 29.9571 16.1875C29.9665 17.0545 29.9796 17.9233 29.9815 18.7904C29.9852 20.6467 29.9927 22.5031 29.9758 24.3577C29.9627 25.7967 28.7258 26.9821 27.2322 26.9821C19.4342 26.9893 11.6381 26.9875 3.84016 26.9911C3.62277 26.9911 3.40351 26.9965 3.18612 26.9983C3.06055 26.858 2.93124 26.858 2.80193 26.9947C2.02045 27.0001 1.39451 26.6673 0.83979 26.1744C0.811679 26.1475 0.783568 26.1187 0.757331 26.0917C0.200734 25.4549 0.000209587 24.7174 0.00395771 23.8954C0.0189502 21.5191 0.0095799 19.1429 0.00770584 16.7649C0.00770584 16.5706 -0.00353853 16.3764 0.0939127 16.1947C2.69136 16.2001 5.28694 16.2019 7.88439 16.2145C8.9676 16.2199 10.0546 16.1587 11.1359 16.2792C11.1696 16.3116 11.2015 16.3458 11.2352 16.3782C11.3608 16.5041 11.3083 16.6606 11.3102 16.8045C11.3158 17.4772 11.3064 18.1482 11.3158 18.8209C11.3233 19.4937 11.64 19.8031 12.3409 19.8049C14.1138 19.8121 15.8885 19.8121 17.6614 19.8049C18.411 19.8013 18.7258 19.4865 18.7371 18.758C18.7465 18.0565 18.7465 17.3549 18.7521 16.6534C18.9357 16.6246 18.917 16.4825 18.9282 16.3584L18.9264 16.362Z" fill="#535DB7"/>
</g>
<defs>
<clipPath id="clip0_5868_34005">
<rect width="30" height="27" fill="white"/>
</clipPath>
</defs>
</svg>
