<svg width="24" height="24" viewBox="0 0 24 24" fill="none" xmlns="http://www.w3.org/2000/svg">
<path fill-rule="evenodd" clip-rule="evenodd" d="M20.0278 18.8168C18.8205 16.8954 16.9734 15.4945 14.8549 14.8208C15.9616 13.9619 16.6862 12.6353 16.6862 11.1307C16.6862 8.54739 14.5853 6.44515 12.0004 6.44515C9.41702 6.44515 7.31478 8.54739 7.31478 11.1307C7.31478 12.6353 8.03943 13.9636 9.14585 14.8208C7.02757 15.4944 5.18026 16.8954 3.97318 18.8168C2.40898 16.977 1.45814 14.5992 1.45814 12.0012C1.45814 6.18696 6.18767 1.45708 12.0002 1.45708C17.8128 1.45708 22.5423 6.18661 22.5423 12.0012C22.5423 14.5992 21.5918 16.977 20.0276 18.8168M8.77248 11.1308C8.77248 9.35069 10.2201 7.90313 12.0002 7.90313C13.7802 7.90313 15.2281 9.35076 15.2281 11.1308C15.2281 12.9108 13.7803 14.3588 12.0002 14.3588C10.22 14.3588 8.77248 12.9109 8.77248 11.1308ZM12.0002 22.5421C9.31184 22.5421 6.86414 21.5229 5.00079 19.8611C5.01842 19.8378 5.04744 19.8261 5.06344 19.7982C6.50101 17.3432 9.15732 15.8169 12.0002 15.8169C14.8417 15.8169 17.4996 17.3431 18.9355 19.7968C18.9515 19.8245 18.9762 19.8405 18.9952 19.8654C17.1321 21.5245 14.6857 22.5421 12 22.5421M12 0C5.38407 0 0 5.38421 0 12.0021C0 18.618 5.38421 24.0007 12 24.0007C18.6162 24.0007 24 18.6182 24 12.0021C24 5.38455 18.6161 0 12 0Z" fill="#959595"/>
</svg>
