<svg width="57" height="71" viewBox="0 0 57 71" fill="none" xmlns="http://www.w3.org/2000/svg">
<g clip-path="url(#clip0_7861_20424)">
<path d="M8.01084 2.90413C8.07165 2.7777 8.13215 2.65395 8.19297 2.52752C8.23323 2.53216 8.2768 2.53174 8.31769 2.531C8.51127 2.55059 8.60894 2.45837 8.6172 2.26869C8.89639 1.80523 9.40766 1.64085 9.81176 1.34429C9.86142 1.31461 9.91108 1.28493 9.96075 1.25525C10.0076 1.24976 10.0515 1.24665 10.0984 1.24116C10.148 1.21148 10.198 1.17911 10.2477 1.14943C10.2922 1.14095 10.336 1.13783 10.3796 1.13741C10.4296 1.10504 10.4822 1.07299 10.5319 1.04331C10.63 0.994699 10.7284 0.943404 10.8265 0.894796C10.9355 0.940042 11.036 0.940739 11.1111 0.832289C11.1541 0.83724 11.1982 0.83144 11.2404 0.819955C11.329 0.830165 11.4169 0.84575 11.5052 0.858648C11.6538 1.08002 11.7288 0.971568 11.7872 0.795831C11.9229 0.797863 12.056 0.799586 12.1921 0.79893C12.3896 1.02049 12.5782 1.08308 12.7526 0.773666L12.7421 0.723433C12.8902 0.759572 13.0371 0.806461 13.1725 0.694068C19.0415 1.36234 24.9104 2.03062 30.7785 2.70695C31.1301 2.74749 31.5006 2.71938 31.8268 2.90948C31.5573 5.17688 31.2881 7.44158 31.0187 9.70897C31.0152 9.73854 31.0118 9.7681 31.0111 9.79797C30.6792 9.75154 30.3455 9.69675 30.0126 9.65838C25.0233 9.07515 20.034 8.49192 15.0447 7.9087C14.6714 7.39455 14.3113 7.59269 13.9569 7.93038C13.3257 8.28519 12.7959 8.75243 12.7035 9.50703C12.3008 12.8593 11.9031 16.2148 11.5488 19.5726C11.4337 20.665 12.209 21.5142 13.2804 21.635C15.1782 21.8537 17.0788 22.0727 18.9772 22.2861C22.4625 22.6796 25.9477 23.0732 29.4333 23.464C29.4274 23.5151 29.4215 23.5662 29.4156 23.6172L29.2176 25.5007L29.1488 26.0265C27.8489 25.8822 26.5467 25.7348 25.2469 25.5904C25.0586 25.359 25.0099 25.5223 24.9632 25.6912C24.2431 25.9213 23.793 26.3814 23.7031 27.1608C23.4688 29.2171 23.2665 31.2799 22.9761 33.327C22.8528 34.1842 23.0704 34.822 23.7139 35.351C23.7209 35.5261 23.7312 35.6961 23.9671 35.5136C25.0597 35.6396 26.1565 35.7279 27.2399 35.9099C27.8855 36.0197 28.0321 35.7861 28.0943 35.1996C28.425 32.1413 28.7933 29.0874 29.1512 26.0295C29.884 26.114 30.6195 26.1988 31.3514 26.2913C32.2417 26.4021 33.178 26.3493 33.9159 27.0035C34.3699 27.832 34.3208 28.706 34.1714 29.601C34.0704 30.2185 34.0411 30.8496 33.9454 31.4677C33.7336 32.8567 33.7733 34.2828 33.3235 35.6362C33.0431 35.8979 32.7966 36.1963 32.4354 36.3562C32.0343 36.438 31.6388 36.4006 31.2349 36.3649C30.2764 36.2789 29.3347 36.0479 28.3589 36.1369C28.0756 36.1642 27.9371 36.2326 27.9502 36.5201C27.8935 37.0119 27.8368 37.5037 27.7802 37.9956C27.7573 38.17 27.7342 38.347 27.7087 38.5211C26.5675 38.3923 25.4276 38.2527 24.2873 38.1404C23.319 38.0451 22.383 38.7324 22.2742 39.6295C22.008 41.821 21.7549 44.0167 21.5156 46.2114C21.4249 47.0451 21.9935 47.7996 22.7955 48.0391C23.7709 48.3313 24.7802 48.4013 25.7847 48.5117C26.3058 48.569 26.5864 48.3998 26.6511 47.7918C26.9775 44.7004 27.3552 41.6121 27.7141 38.5217C28.8764 38.6557 30.0367 38.784 31.1993 38.9153C31.2873 38.9308 31.3756 38.9437 31.4608 38.959C32.766 39.6949 32.9591 40.0957 32.7794 41.679C32.5963 43.2674 32.3998 44.8542 32.2355 46.4447C32.1658 47.1203 32.0574 47.7777 31.7293 48.3826C31.2644 48.7348 30.7209 48.8954 30.1647 49.0247C29.0909 48.9009 28.0169 48.7798 26.9428 48.6588C26.5108 48.56 26.5019 48.8503 26.4976 49.1467C26.4204 49.7696 26.3455 50.3955 26.2683 51.0184C26.1314 51.0026 25.9939 50.9922 25.8597 50.9767C25.8572 50.7858 25.7588 50.6955 25.5736 50.6741C24.5935 50.5639 23.6168 50.4241 22.6344 50.3572C22.3295 50.3356 21.953 50.393 21.8045 50.7844C21.3491 50.7237 21.1006 50.9211 21.0557 51.3816C21.043 51.4918 21.0046 51.5881 20.8931 51.6352C20.7544 51.6356 20.6218 51.653 20.6198 51.8352C20.6198 51.9768 20.7337 52.0035 20.8389 52.0347C20.6162 53.9671 20.4281 55.9062 20.157 57.833C20.0287 58.7577 19.9962 59.6064 20.7028 60.3196C20.7702 60.8203 21.2316 60.8762 21.5539 60.9351C22.4756 61.104 23.4168 61.1744 24.3479 61.2844C24.5331 61.3057 24.6498 61.2375 24.6927 61.0545C24.8269 61.07 24.9611 61.0855 25.0953 61.1009C24.8529 63.2516 24.6107 65.3996 24.371 67.5506C24.357 67.6716 24.3404 67.7922 24.3238 67.9128C24.1236 67.9034 23.9195 67.9043 23.7208 67.8815C17.6965 67.1925 11.6751 66.5013 5.6511 65.8097C5.56251 65.7995 5.47548 65.7758 5.38782 65.7575C5.37936 65.6422 5.34921 65.5025 5.22955 65.5024C4.47307 65.505 3.88799 64.9883 3.18468 64.8364C3.01309 64.7676 2.8415 64.6988 2.66991 64.63L2.67466 64.636C2.67961 64.593 2.67889 64.5521 2.67848 64.5085C2.7015 64.1435 2.4724 64.0544 2.17165 64.0443C1.85325 63.6917 1.49323 63.3697 1.3583 62.8884C1.39485 62.7129 1.34044 62.595 1.15439 62.5572C1.00304 62.2892 0.817612 62.0336 0.825566 61.705C0.890926 61.138 0.961965 60.5688 0.630244 60.0486C0.638504 60.0005 0.649449 59.9527 0.657709 59.9047C0.840042 59.6915 0.887228 59.4709 0.699634 59.2341C0.725242 58.9647 0.748165 58.6951 0.779141 58.4263C2.77114 41.0961 4.76881 23.7639 6.76618 6.43439C6.80242 6.11994 6.85446 5.81004 6.89876 5.49652C6.90371 5.45352 6.90836 5.4132 6.91332 5.3702C6.9161 5.27521 6.91889 5.18021 6.92168 5.08522L6.96308 5.10361C7.41313 4.95123 7.27365 4.62742 7.19199 4.32117C7.19756 4.2728 7.20076 4.22142 7.20365 4.17274C7.749 3.92514 7.81787 3.3748 8.01115 2.90144L8.01084 2.90413ZM11.222 34.0419C13.9064 34.3513 16.5881 34.6604 19.2725 34.9698C19.461 35.1985 19.5097 35.0353 19.5564 34.8664C20.3061 34.498 20.663 33.9264 20.7353 33.0633C20.9004 31.1351 21.1329 29.2121 21.4 27.2957C21.4933 26.6284 21.3957 26.0588 21.0426 25.5116C20.8347 24.9321 20.3982 24.7075 20.0186 24.9797C17.6027 24.7012 15.1894 24.4231 12.7735 24.1446C12.3555 23.6416 12.079 23.9638 11.8024 24.3104C11.5129 24.6747 11.005 24.8803 10.9895 25.4395C10.7474 25.605 10.8361 25.8739 10.7832 26.0966C10.5614 28.0209 10.3393 29.9479 10.1175 31.8722C10.1181 32.1037 9.97052 32.3454 10.1716 32.5592C10.1966 33.1449 10.5929 33.5065 10.9688 33.8793C10.9761 34.0517 10.9864 34.2217 11.222 34.0419ZM17.7918 58.4836C18.0498 56.2448 18.3079 54.0061 18.5659 51.7673C18.8136 51.7659 18.858 51.6403 18.8186 51.4152C18.6832 50.6316 17.8372 49.7825 17.0453 49.6912C14.7269 49.4158 12.4034 49.1616 10.0857 48.8809C9.48736 48.8092 8.95523 48.9657 8.51861 49.332C8.20835 49.5931 7.75634 49.8569 7.9778 50.4135C7.96231 50.5479 7.94682 50.6823 7.92896 50.8136C7.5932 50.824 7.62789 51.0894 7.60373 51.299C7.39815 53.0591 7.19525 54.8194 6.99535 56.5774C6.97088 56.7898 6.87672 57.0403 7.20163 57.1241C7.18614 57.2585 7.17334 57.3932 7.16084 57.5251C6.86969 57.8565 7.03353 58.0633 7.35184 58.228C7.38983 58.2759 7.4302 58.3269 7.46819 58.3748C7.42452 58.6122 7.45859 58.8122 7.68686 58.9556C8.08476 59.2084 8.47854 59.4499 8.96709 59.5062C11.239 59.7599 13.512 60.0273 15.783 60.2891C16.7279 60.398 17.3449 59.8591 17.8756 59.1958C18.0412 58.9862 18.2165 58.6687 17.7921 58.4809L17.7918 58.4836ZM9.38454 38.1847C8.96392 38.2233 9.07614 38.5712 9.0462 38.8074C8.84991 40.4161 8.67541 42.0245 8.47913 43.6331C8.41428 44.1485 8.40168 44.659 8.44576 45.1734C8.51967 46.0424 9.25622 46.8735 10.0904 46.9751C12.4998 47.2637 14.9103 47.5415 17.3221 47.8086C18.1737 47.9013 19.0191 47.4105 19.3562 46.6569C19.4589 46.4264 19.6302 46.1438 19.2319 45.989C19.4899 43.7502 19.748 41.5115 20.006 39.2727C20.4028 39.2286 20.3078 38.9671 20.2461 38.7231C20.0273 37.8373 19.2069 37.1436 18.2059 37.0255C16.1345 36.7786 14.063 36.5562 11.9928 36.2985C11.5103 36.2374 11.054 36.302 10.602 36.4242C9.84441 36.6255 9.29442 37.3382 9.4182 37.9162C9.40798 38.0049 9.39776 38.0936 9.38485 38.182L9.38454 38.1847Z" fill="#77A9F8"/>
<path d="M26.2686 51.0153C26.3459 50.3924 26.4207 49.7665 26.4953 49.1433C26.8339 49.1551 26.919 48.9361 26.9405 48.6554C28.0142 48.7792 29.0883 48.9002 30.1623 49.0213C30.1564 49.214 30.2522 49.304 30.4383 49.3173C30.8619 49.347 31.5893 48.8181 31.7269 48.3792C32.3005 48.2166 32.3403 47.7064 32.3947 47.2579C32.6563 45.1775 32.8987 43.0976 33.1146 41.012C33.1942 40.2505 32.8747 39.6009 32.3098 39.0973C32.078 38.8909 31.7871 38.7239 31.4582 38.9583C31.3702 38.9427 31.2819 38.9298 31.1966 38.9146C31.4456 38.5484 31.1846 38.5238 30.9164 38.4901C29.8657 38.3554 28.8009 38.3198 27.7805 37.9925C27.8372 37.5007 27.8939 37.0089 27.9505 36.517C29.1245 36.4318 30.2742 36.6759 31.4372 36.78C31.8438 36.816 32.2646 36.8699 32.4384 36.3535C32.8019 36.1966 33.0488 35.8955 33.3265 35.6334C33.7573 35.6013 33.7826 35.2639 33.8209 34.9551C34.0753 32.7949 34.3488 30.6342 34.5522 28.4681C34.6038 27.9267 34.599 27.2834 33.9193 26.9981C33.7056 26.3498 33.1775 26.1174 32.576 26.0263C31.4559 25.8563 30.3125 25.8417 29.2206 25.4979C29.2874 24.8711 29.3545 24.2416 29.4186 23.6145C29.7095 23.6398 30.0012 23.6571 30.2912 23.6905C35.166 24.2524 40.0414 24.8089 44.915 25.3815C45.5243 25.4517 46.1205 25.4714 46.717 25.3223C47.2778 25.3188 48.0515 24.6237 48.0573 24.1015C48.0569 24.0579 47.9204 24.0149 47.8492 23.9713C47.8775 23.7023 47.9028 23.4356 47.9311 23.1665C48.3011 19.8622 48.6737 16.5583 49.0437 13.254C49.4022 12.7397 49.0413 12.5429 48.6488 12.3615C48.5701 12.2653 48.4941 12.1694 48.4155 12.0732C48.4012 11.5596 48.0163 11.4771 47.6331 11.4275C46.5042 11.2865 45.3708 11.1613 44.2403 11.0337C44.0685 11.0139 43.8775 10.9483 43.771 11.1648C43.5028 11.1557 43.2353 11.163 42.9696 11.1323C39.2944 10.7115 35.6195 10.2879 31.9449 9.86165C31.6335 9.82576 31.3285 9.75793 31.019 9.70591C31.2885 7.43852 31.558 5.17113 31.8272 2.90642C32.0982 2.82056 32.3634 2.90287 32.6292 2.9335C38.3042 3.58488 43.9787 4.24163 49.6564 4.89331C49.9249 4.92425 50.1931 4.93338 50.4628 4.95357C50.6236 5.09193 50.8044 5.1046 50.9972 5.03695C51.1542 5.16125 51.346 5.17247 51.5343 5.19144C52.2553 5.59045 52.9794 5.98708 53.7004 6.38609C53.7775 6.44943 53.8545 6.51278 53.9315 6.57612C53.9717 6.67606 54.0145 6.77631 54.055 6.87357C54.099 6.91677 54.1403 6.95965 54.1842 7.00285C54.3806 7.21066 54.5746 7.41548 54.771 7.6233C54.7567 7.81773 54.8352 7.96294 55.0037 8.05862C55.0703 8.40125 55.1108 8.75723 55.4244 8.98673C55.4272 9.10415 55.4303 9.21888 55.4304 9.336C55.402 9.41715 55.4394 9.47047 55.5114 9.50601C55.5209 9.58881 55.5277 9.67129 55.5372 9.75408C55.4953 9.85818 55.4534 9.96228 55.5862 10.0375C55.5974 10.1287 55.6087 10.2198 55.6229 10.3086C55.5917 10.4848 55.5602 10.6636 55.5317 10.84C55.5047 11.0276 55.3765 11.2197 55.5628 11.3965C55.558 11.4858 55.5558 11.5754 55.5453 11.6668C53.5126 29.3027 51.4796 46.9413 49.4416 64.5766C49.3038 64.6152 49.311 64.6705 49.423 64.7378L49.331 65.3944C48.8995 65.4564 48.7965 65.6188 49.1691 65.9259C49.1507 65.9673 49.1511 66.011 49.1736 66.0517C49.1523 66.1418 49.1311 66.232 49.1071 66.3218C48.9503 66.3609 48.9835 66.4737 49.009 66.5828C48.9753 66.6634 48.9442 66.7442 48.9101 66.8274C48.8325 66.8402 48.7876 66.8759 48.7968 66.9614C48.7535 67.384 48.2753 67.5685 48.2371 67.9944C48.0542 68.0468 47.9397 68.1671 47.9019 68.3533C47.8643 68.349 47.8264 68.3474 47.7856 68.3481C47.1573 68.371 46.7612 68.693 46.5885 69.294C46.533 69.3747 46.4774 69.4555 46.4195 69.5332C46.3327 69.5314 46.2488 69.5272 46.162 69.5253C45.972 69.498 45.7746 69.4644 45.7171 69.7273C45.7062 69.7751 45.6956 69.8202 45.6846 69.8679C45.2053 69.8018 44.7836 70.2515 44.285 70.0225C44.0545 69.9932 43.7945 69.7944 43.6346 70.1436C43.2545 70.1134 42.8735 70.0913 42.495 70.0477C36.8122 69.3927 31.1267 68.7374 25.4439 68.0824C25.1996 68.0542 24.9582 68.0019 24.7154 67.9603C24.7721 67.6809 24.6392 67.5594 24.3734 67.5532C24.6158 65.4026 24.858 63.2546 25.0977 61.1036L25.1025 61.1096C25.5239 61.1581 25.9465 61.2205 26.3707 61.2448C27.4734 61.3066 28.5665 61.7103 29.6844 61.3572C30.313 61.3071 30.8495 60.6881 30.9467 59.8687C31.1943 57.7676 31.4416 55.6692 31.6731 53.5663C31.7395 52.9667 31.5251 52.4191 31.1774 51.9433C31.0385 51.7557 30.8802 51.4542 30.5385 51.6572C30.1918 51.5029 29.8275 51.4309 29.4487 51.39C28.3871 51.2785 27.328 51.1456 26.268 51.0207L26.2686 51.0153ZM45.7407 42.1949C45.7401 41.8926 45.8445 41.5533 45.4525 41.391C45.2419 41.236 45.0795 41.0403 44.9743 40.7967C44.8851 40.4378 44.7261 40.2125 44.3246 40.4631C41.7825 40.1701 39.2377 39.8768 36.6953 39.5865C36.5492 39.3436 36.4694 39.446 36.4059 39.643C35.4738 39.9658 35.0645 40.6376 34.956 41.6027C34.2809 47.6251 33.5793 53.6417 32.8854 59.6619C32.6996 61.2744 33.275 62.0161 34.8746 62.2032C37.2207 62.4736 39.5675 62.7386 41.9116 63.0034C42.0928 63.0597 42.2411 63.0468 42.2964 62.8271C42.692 62.6276 42.9908 62.3244 43.2364 61.9633C43.6623 61.8081 43.8162 61.559 43.5174 61.1542C44.1223 55.9053 44.7276 50.6538 45.338 45.4055C45.4613 44.3359 45.601 43.2654 45.735 42.197L45.7407 42.1949ZM42.0847 27.1168C41.011 26.993 39.9313 26.9203 38.8677 26.7324C37.2709 26.4503 36.2672 27.5356 36.0345 28.9412C35.7194 30.8493 35.548 32.7849 35.353 34.7123C35.2064 36.1496 36.2149 37.4532 37.583 37.6191C39.7045 37.8799 41.8275 38.1274 43.953 38.3533C45.2562 38.4926 46.5574 37.5396 46.7111 36.3237C46.9803 34.2006 47.1931 32.071 47.4596 29.9476C47.5785 29.0109 46.5204 27.5001 45.4373 27.4814C44.3189 27.4615 43.2011 27.2482 42.0844 27.1195L42.0847 27.1168Z" fill="#4083F7"/>
<path d="M46.5867 69.2855C46.7593 68.6845 47.1555 68.3625 47.7837 68.3396C47.7788 68.3826 47.7714 68.4226 47.7692 68.4659C47.5806 68.5204 47.4736 68.647 47.4405 68.8392C47.1567 68.989 46.9196 69.2285 46.5894 69.2858L46.5867 69.2855Z" fill="#9494FF"/>
<path d="M49.1644 65.9173C48.7918 65.6102 48.8949 65.4478 49.3263 65.3859C49.3115 65.5612 49.2995 65.7368 49.2847 65.9121C49.2462 65.9159 49.2053 65.9166 49.1644 65.9173Z" fill="#9494FF"/>
<path d="M24.3741 67.5455C24.6406 67.5516 24.7738 67.6734 24.717 67.9535C24.5878 67.9386 24.456 67.9234 24.3268 67.9085C24.3408 67.7873 24.3575 67.6664 24.3741 67.5455Z" fill="#9494FF"/>
<path d="M43.6351 70.1354C43.7951 69.7862 44.055 69.985 44.2856 70.0143C44.1143 70.2968 43.8753 70.223 43.6351 70.1354Z" fill="#9494FF"/>
<path d="M55.5244 10.8309C55.6049 10.8402 55.6881 10.8498 55.7687 10.8591C55.7252 11.0474 55.7887 11.2753 55.5558 11.3846C55.3721 11.2082 55.4977 11.0157 55.5247 10.8282L55.5244 10.8309Z" fill="#ECF3FE"/>
<path d="M46.1636 69.5175C46.2506 69.5194 46.3347 69.5236 46.4217 69.5254C46.3845 69.8241 46.1759 69.7892 45.97 69.7545C46.0337 69.6745 46.1002 69.5948 46.1636 69.5175Z" fill="#FDFEFF"/>
<path d="M46.1639 69.5174C46.1001 69.5974 46.0337 69.6771 45.9703 69.7544C45.9299 69.7497 45.8916 69.7508 45.8518 69.7653C45.8073 69.7492 45.7628 69.7332 45.718 69.7198C45.7759 69.4535 45.9708 69.4897 46.1639 69.5174Z" fill="#9494FF"/>
<path d="M47.4385 68.8374C47.4716 68.6447 47.5789 68.5179 47.7679 68.4632C47.7497 68.6686 47.7291 68.8709 47.4385 68.8374Z" fill="#FDFEFF"/>
<path d="M47.9 68.3459C47.9382 68.1565 48.0526 68.0387 48.2359 67.9861C48.2123 68.1909 48.1843 68.3869 47.9 68.3459Z" fill="#FDFEFF"/>
<path d="M49.0043 66.5741C48.9788 66.465 48.9482 66.3526 49.1023 66.3132C49.2761 66.4802 49.1846 66.5432 49.0043 66.5741Z" fill="#FDFEFF"/>
<path d="M48.7925 66.9529C48.7806 66.8671 48.8285 66.829 48.9058 66.8189C48.8681 66.8635 48.8303 66.9082 48.7925 66.9529Z" fill="#FDFEFF"/>
<path d="M49.1645 65.9175C49.205 65.9195 49.2435 65.9157 49.2847 65.9123C49.2469 65.957 49.2068 65.9986 49.169 66.0433C49.1492 66.0029 49.1461 65.9589 49.1645 65.9175Z" fill="#FDFEFF"/>
<path d="M49.4188 64.7291C49.3069 64.6618 49.2997 64.6065 49.4374 64.5679C49.4312 64.6217 49.425 64.6754 49.4188 64.7291Z" fill="#ECF3FE"/>
<path d="M45.7182 69.7191C45.7626 69.7351 45.807 69.7512 45.8517 69.7645C45.7964 69.7962 45.7411 69.8279 45.6857 69.8597C45.6967 69.8119 45.7073 69.7669 45.7182 69.7191Z" fill="#FDFEFF"/>
<path d="M31.0222 9.70362C31.3317 9.75564 31.6367 9.82347 31.9481 9.85936C35.6227 10.2856 39.2976 10.7092 42.9728 11.13C43.2386 11.1607 43.506 11.1534 43.7742 11.1625C44.2613 11.3494 44.7825 11.3114 45.2838 11.3991C46.3373 11.5805 47.4556 11.4588 48.4187 12.0709C48.4974 12.1671 48.5733 12.263 48.652 12.3592C48.7321 12.6789 48.7662 13.0205 49.0469 13.2517C48.677 16.556 48.3043 19.8599 47.9343 23.1642C47.9034 23.433 47.8781 23.6997 47.8525 23.969C47.4692 24.4151 47.2373 24.9874 46.7226 25.323C46.1261 25.4721 45.5296 25.4551 44.9206 25.3822C40.047 24.8096 35.1719 24.2504 30.2967 23.6912C30.0068 23.6578 29.7151 23.6405 29.4242 23.6152C29.4301 23.5641 29.436 23.513 29.4416 23.4647C29.9666 18.9092 30.4917 14.3538 31.017 9.79562C31.0204 9.76606 31.0212 9.73618 31.0246 9.70662L31.0222 9.70362Z" fill="#B1F9FD"/>
<path d="M31.0168 9.79577C30.4917 14.3512 29.9667 18.9067 29.4413 23.4648C25.9561 23.0713 22.4705 22.6804 18.9853 22.2869C17.0871 22.0709 15.1866 21.8518 13.2884 21.6357C12.2173 21.5123 11.4418 20.6658 11.5568 19.5734C11.9112 16.2156 12.3088 12.8601 12.7115 9.50782C12.8012 8.75292 13.3308 8.28836 13.9646 7.93386C14.3272 7.92663 14.6898 7.9194 15.0524 7.91217C20.0417 8.4954 25.0313 9.07594 30.0204 9.66186C30.3532 9.70022 30.6869 9.75502 31.0188 9.80145L31.0168 9.79577Z" fill="#CAFBFE"/>
<path d="M20.006 39.2723C19.748 41.5111 19.4899 43.7498 19.2319 45.9886C19.1066 46.8156 18.528 47.2337 17.8075 47.4203C17.3896 47.53 16.9129 47.4887 16.4766 47.4275C14.4584 47.1432 12.4097 47.1004 10.4145 46.6172C9.10735 46.3004 8.53816 45.5512 8.69243 44.2128C8.92145 42.2022 9.15583 40.1922 9.38754 38.1819C9.39776 38.0932 9.40798 38.0045 9.42089 37.9161C9.88189 37.1496 10.4523 36.5426 11.4459 36.6544C13.7473 36.9115 16.0481 37.174 18.3474 37.4499C19.2809 37.5629 19.9379 38.3059 20.0063 39.2696L20.006 39.2723Z" fill="#95BCF9"/>
<path d="M7.92855 50.8135C7.94404 50.6791 7.95953 50.5447 7.97739 50.4134C8.08146 50.2892 8.18554 50.165 8.28961 50.0408C8.56197 50.0613 8.5819 49.8648 8.6042 49.6713C8.6551 49.6309 8.706 49.5905 8.7569 49.55C9.04929 49.562 9.35294 49.5942 9.47178 49.224C9.73743 49.2083 10.0074 49.155 10.2705 49.1853C12.4326 49.4236 14.5939 49.67 16.7532 49.9325C17.4025 50.01 17.9565 50.2781 18.2531 50.9142C18.2305 51.1104 18.2025 51.3059 18.4747 51.3509C18.5049 51.4906 18.5377 51.6305 18.5679 51.7702C18.3098 54.0089 18.0518 56.2477 17.7938 58.4864C17.7067 59.2416 17.2264 59.6329 16.5443 59.8402C16.3561 59.6088 16.3073 59.7721 16.2607 59.941C15.905 60.0062 15.5547 60.0012 15.195 59.9597C13.2578 59.7283 11.3196 59.5049 9.3806 59.2896C9.0209 59.2481 8.67596 59.173 8.34712 59.0289C8.3653 58.7532 8.16872 58.736 7.97245 58.7161C7.73705 58.7053 7.64609 58.4797 7.47254 58.3807C7.43455 58.3327 7.39418 58.2818 7.35618 58.2338C7.38623 57.9731 7.34876 57.7319 7.16519 57.531C7.18068 57.3966 7.19348 57.2619 7.20597 57.1299C7.44852 55.0256 7.69107 52.9212 7.93361 50.8168L7.92855 50.8135Z" fill="#95BCF9"/>
<path d="M10.7831 26.0964C10.8363 25.8711 10.7473 25.6048 10.9894 25.4394C11.1061 25.4419 11.2145 25.4217 11.2815 25.3124C11.7214 24.5869 12.3843 24.4999 13.1541 24.5941C15.2967 24.8601 17.4457 25.0942 19.5906 25.3414C20.769 25.4772 21.2475 26.0689 21.1142 27.249C20.8953 29.1955 20.6654 31.1433 20.4411 33.0891C20.4101 33.3579 20.3697 33.6147 20.2194 33.8561C19.7285 34.6464 18.9363 34.6287 18.1885 34.5561C16.3075 34.3801 14.4312 34.1394 12.5554 33.9177C12.2467 33.8821 11.94 33.8059 11.6335 33.7515C10.8978 33.6205 10.6698 32.9324 10.1692 32.5561C9.96803 32.3423 10.1156 32.1006 10.1151 31.869C10.4039 31.8642 10.4069 31.6494 10.4302 31.4478C10.6173 29.8245 10.8044 28.2012 10.9915 26.5779C11.0147 26.3764 11.061 26.1638 10.7804 26.0961L10.7831 26.0964Z" fill="#95BCF9"/>
<path d="M27.7116 38.5185C27.3527 41.6089 26.9753 44.6945 26.6486 47.7886C26.5837 48.3993 26.3034 48.5658 25.7823 48.5084C24.7804 48.3984 23.7712 48.3284 22.793 48.0359C21.991 47.7964 21.4251 47.0422 21.5131 46.2081C21.7525 44.0135 22.0055 41.8178 22.2717 39.6262C22.3806 38.7292 23.3166 38.0419 24.2848 38.1371C25.4278 38.2498 26.5678 38.3894 27.7063 38.5179L27.7116 38.5185Z" fill="#95BCF9"/>
<path d="M10.1721 32.5588C10.6727 32.9351 10.9008 33.6232 11.6364 33.7543C11.9402 33.8084 12.2473 33.8819 12.5584 33.9204C14.4341 34.1421 16.3104 34.3829 18.1914 34.5588C18.9395 34.6287 19.7341 34.6495 20.2224 33.8588C20.3726 33.6174 20.4131 33.3606 20.444 33.0919C20.6683 31.1461 20.8929 29.1976 21.1172 27.2518C21.2531 26.0719 20.7746 25.4803 19.5935 25.3441C17.4487 25.0969 15.2999 24.8602 13.157 24.5968C12.3872 24.5027 11.722 24.5867 11.2844 25.3151C11.2174 25.4245 11.109 25.4446 10.9923 25.4421C11.0081 24.8802 11.516 24.6746 11.8052 24.313C12.1408 24.3272 12.4272 24.0607 12.7763 24.1472C15.1923 24.4256 17.6055 24.7038 20.0214 24.9822C20.412 25.0627 20.6864 25.3721 21.0454 25.5142C21.3982 26.0641 21.4958 26.6336 21.4028 27.2983C21.1357 29.2147 20.9059 31.138 20.7381 33.0659C20.6631 33.9287 20.3089 34.5006 19.5592 34.869C19.4491 34.8563 19.3467 34.8717 19.2753 34.9724C16.5909 34.663 13.9092 34.3539 11.2248 34.0445C11.1782 33.9302 11.0816 33.8946 10.9716 33.8819C10.5957 33.509 10.1967 33.1472 10.1744 32.5618L10.1721 32.5588Z" fill="#95BCF9"/>
<path d="M25.2502 25.5848C26.5501 25.7292 27.8523 25.8766 29.1522 26.0209C28.7973 29.0764 28.4263 32.13 28.0953 35.191C28.0328 35.7802 27.8838 36.0108 27.2409 35.9013C26.1575 35.7193 25.0604 35.6337 23.9681 35.5051C23.9215 35.3907 23.8249 35.3551 23.7149 35.3424C23.0713 34.8135 22.8538 34.1756 22.9771 33.3184C23.2704 31.2689 23.4725 29.2089 23.7041 27.1523C23.794 26.3729 24.2414 25.9125 24.9642 25.6826C25.0743 25.6953 25.1764 25.6825 25.2479 25.5818L25.2502 25.5848ZM28.2882 31.0629C28.4403 29.7433 28.5762 28.4219 28.7522 27.1077C28.8221 26.5956 28.6841 26.3537 28.1441 26.3187C27.472 26.2739 26.7918 26.2282 26.1368 26.0819C24.8981 25.8084 24.0664 26.5105 23.905 27.8399C23.6779 29.6928 23.4665 31.5502 23.2635 33.4059C23.1586 34.3633 23.7202 35.0598 24.68 35.1813C25.5056 35.2874 26.3367 35.345 27.1561 35.4803C27.6819 35.5682 27.814 35.3655 27.8581 34.8886C27.9781 33.6116 28.141 32.3395 28.2879 31.0656L28.2882 31.0629Z" fill="#95BCF9"/>
<path d="M9.38435 38.1845C9.15265 40.1948 8.92094 42.2051 8.68924 44.2154C8.53529 45.5512 9.10715 46.3006 10.4113 46.6198C12.4062 47.1057 14.4549 47.1485 16.4734 47.4301C16.9097 47.4913 17.3864 47.5326 17.8043 47.4228C18.5252 47.2336 19.1038 46.8155 19.2287 45.9912C19.6273 46.1433 19.456 46.4259 19.353 46.6591C19.0186 47.413 18.1732 47.9038 17.319 47.8108C14.9068 47.5464 12.4966 47.2659 10.0873 46.9773C9.25272 46.8784 8.5135 46.047 8.44258 45.1755C8.3985 44.6612 8.4111 44.1507 8.47594 43.6353C8.67491 42.027 8.84673 40.4183 9.04302 38.8096C9.07028 38.5731 8.96074 38.2255 9.38136 38.1869L9.38435 38.1845Z" fill="#9494FF"/>
<path d="M20.0062 39.2723C19.9377 38.3085 19.2808 37.5656 18.3472 37.4526C16.048 37.1767 13.7475 36.9115 11.4457 36.6571C10.4522 36.5453 9.88175 37.1522 9.42075 37.9188C9.29728 37.3381 9.84965 36.6284 10.6046 36.4267C11.0566 36.3045 11.5128 36.24 11.9954 36.3011C14.0656 36.5587 16.1371 36.7812 18.2085 37.0281C19.2121 37.1465 20.0298 37.8398 20.2487 38.7256C20.3079 38.9667 20.4053 39.2311 20.0085 39.2753L20.0062 39.2723Z" fill="#9494FF"/>
<path d="M20.7037 60.3138C19.9971 59.6006 20.0269 58.7516 20.1579 57.8272C20.429 55.9004 20.6171 53.9613 20.8398 52.029C20.8553 51.8946 20.8762 51.7608 20.8914 51.6291C21.0055 51.5824 21.0385 51.4854 21.0539 51.3755C21.3451 51.2321 21.5963 51.035 21.8027 50.7783C22.3941 50.6504 22.9839 50.6067 23.5929 50.7041C24.3435 50.8233 25.1032 50.8864 25.8579 50.9706C25.9948 50.9864 26.132 50.9995 26.2665 51.0123C26.2458 51.1924 26.2193 51.3745 26.1959 51.5542C25.9012 51.5148 25.7488 51.2086 25.4228 51.1819C24.6164 51.1217 23.8164 50.9832 23.0104 50.9202C21.9135 50.8319 21.1791 51.4689 21.0475 52.5867C20.8181 54.5537 20.5941 56.5213 20.3673 58.4886C20.2716 59.3191 20.5651 59.8404 21.3248 60.2111C21.5565 60.325 21.8655 60.3579 21.8786 60.7161C21.4366 60.7278 21.1019 60.4224 20.7037 60.3138Z" fill="#95BCF9"/>
<path d="M18.2511 50.9135C17.9545 50.2775 17.4006 50.0094 16.7513 49.9319C14.5916 49.6721 12.4304 49.4257 10.2686 49.1847C10.0082 49.1547 9.73818 49.208 9.46985 49.2233C9.18809 49.2372 8.92585 49.2941 8.75497 49.5494C8.70407 49.5899 8.65317 49.6303 8.60227 49.6707C8.41406 49.7226 8.30998 49.8467 8.28768 50.0402C8.18361 50.1644 8.07953 50.2886 7.97546 50.4127C7.75163 49.8532 8.20333 49.5921 8.51627 49.3313C8.9529 48.965 9.48503 48.8084 10.0833 48.8801C12.4014 49.1582 14.7246 49.415 17.043 49.6904C17.8349 49.7817 18.6809 50.6308 18.8163 51.4144C18.8556 51.6395 18.8109 51.7678 18.5636 51.7665C18.5334 51.6269 18.5006 51.487 18.4704 51.3473C18.4927 51.1538 18.417 51.0089 18.2488 50.9106L18.2511 50.9135Z" fill="#9494FF"/>
<path d="M8.34218 59.0252C8.6737 59.1696 9.01564 59.2471 9.37566 59.2859C11.3147 59.5012 13.2528 59.7246 15.19 59.956C15.5497 59.9975 15.9027 60.0028 16.2557 59.9373C16.3658 59.9499 16.4679 59.9372 16.5393 59.8365C17.2188 59.6289 17.6994 59.2349 17.7888 58.4827C18.2129 58.6732 18.0403 58.991 17.8723 59.1977C17.3416 59.8609 16.7243 60.4025 15.7797 60.2909C13.5088 60.0291 11.2354 59.7644 8.96381 59.508C8.47526 59.4517 8.08148 59.2103 7.68358 58.9574C7.4553 58.814 7.41855 58.6137 7.46522 58.374C7.64146 58.4733 7.73242 58.6989 7.96513 58.7094C8.02284 58.893 8.14653 58.9999 8.3398 59.0222L8.34218 59.0252Z" fill="#9494FF"/>
<path d="M31.4579 38.9583C31.7869 38.7238 32.0777 38.8908 32.3096 39.0973C32.8745 39.6008 33.1937 40.2531 33.1144 41.0119C32.8985 43.0976 32.6534 45.1771 32.3945 47.2578C32.3377 47.7034 32.3003 48.2165 31.7267 48.3791C32.0548 47.7742 32.1629 47.1195 32.2329 46.4413C32.3972 44.8508 32.5937 43.264 32.7768 41.6756C32.9592 40.0926 32.7634 39.6915 31.4583 38.9556L31.4579 38.9583Z" fill="#9494FF"/>
<path d="M33.917 26.9951C34.5968 27.2804 34.6015 27.9237 34.55 28.4651C34.3466 30.6312 34.0733 32.7892 33.8186 34.9521C33.783 35.2612 33.7577 35.5987 33.3243 35.6304C33.774 34.277 33.7344 32.8509 33.9462 31.4619C34.0392 30.8436 34.0684 30.2124 34.1722 29.5953C34.3189 28.6999 34.368 27.826 33.917 26.9951Z" fill="#9494FF"/>
<path d="M29.2202 25.4982C30.3121 25.8419 31.4556 25.8566 32.5757 26.0265C33.1772 26.1176 33.705 26.3528 33.9189 26.9983C33.1783 26.3438 32.242 26.3966 31.3544 26.2861C30.6222 26.1963 29.8867 26.1115 29.1541 26.0243C29.1769 25.8499 29.2001 25.6729 29.2229 25.4985L29.2202 25.4982Z" fill="#9494FF"/>
<path d="M32.439 36.3507C32.2652 36.8671 31.8441 36.8159 31.4378 36.7772C30.2777 36.6708 29.1281 36.4266 27.9511 36.5142C27.938 36.2268 28.0764 36.1583 28.3598 36.1311C29.3356 36.042 30.2797 36.2761 31.2357 36.3591C31.6396 36.3947 32.0379 36.4324 32.4363 36.3504L32.439 36.3507Z" fill="#9494FF"/>
<path d="M7.92903 50.8134C7.68649 52.9178 7.44394 55.0222 7.20139 57.1266C6.87679 57.0401 6.97095 56.7896 6.99512 56.5799C7.19533 54.8193 7.39822 53.0589 7.60349 51.3015C7.62797 51.0892 7.59328 50.8238 7.92872 50.8161L7.92903 50.8134Z" fill="#9494FF"/>
<path d="M10.7829 26.0964C11.0631 26.1669 11.0172 26.3767 10.9939 26.5783C10.8068 28.2016 10.6197 29.8249 10.4326 31.4482C10.4094 31.6497 10.4061 31.8672 10.1175 31.8694C10.3393 29.9451 10.5614 28.0181 10.7832 26.0938L10.7829 26.0964Z" fill="#95BCF9"/>
<path d="M27.7812 37.9899C28.8019 38.3146 29.8664 38.3528 30.9171 38.4876C31.1826 38.5209 31.446 38.5485 31.1973 38.912C30.035 38.778 28.8747 38.6498 27.7124 38.5158C27.7355 38.3387 27.7584 38.1643 27.7842 37.9876L27.7812 37.9899Z" fill="#9494FF"/>
<path d="M25.857 50.9735C25.1027 50.8866 24.3426 50.8262 23.592 50.707C22.983 50.6096 22.3935 50.6506 21.8018 50.7812C21.9503 50.3898 22.3268 50.3324 22.6317 50.3539C23.6138 50.4236 24.5908 50.5607 25.5709 50.6709C25.7561 50.6923 25.8545 50.7826 25.857 50.9735Z" fill="#9494FF"/>
<path d="M20.7038 60.3137C21.1044 60.4253 21.4364 60.7304 21.8787 60.716C22.7726 60.8191 23.6692 60.9224 24.5631 61.0254C24.6087 61.0307 24.6511 61.041 24.6967 61.0463C24.6512 61.2289 24.5342 61.2999 24.352 61.2761C23.4181 61.1658 22.4796 61.0957 21.5579 60.9269C21.2356 60.8679 20.7745 60.8093 20.7068 60.3113L20.7038 60.3137Z" fill="#9494FF"/>
<path d="M31.7269 48.379C31.5893 48.8179 30.8619 49.3469 30.4383 49.3171C30.2494 49.3035 30.1537 49.2135 30.1623 49.0211C30.7185 48.8919 31.2644 48.7342 31.7269 48.379Z" fill="#9494FF"/>
<path d="M21.0404 25.5112C20.6814 25.369 20.4069 25.0596 20.0164 24.9792C20.3959 24.707 20.8324 24.9316 21.0404 25.5112Z" fill="#9494FF"/>
<path d="M15.0473 7.90577C14.6847 7.913 14.3221 7.92022 13.9595 7.92745C14.3166 7.59007 14.674 7.39162 15.0473 7.90577Z" fill="#9494FF"/>
<path d="M12.7707 24.1438C12.4243 24.0576 12.1352 24.3238 11.7996 24.3097C12.0732 23.9654 12.3527 23.6409 12.7707 24.1438Z" fill="#9494FF"/>
<path d="M24.6963 61.0491C24.6507 61.0438 24.6083 61.0335 24.5627 61.0282C24.6395 60.7157 24.8398 60.5591 25.1609 60.558C25.1401 60.738 25.1244 60.9214 25.1037 61.1015L25.0989 61.0955C24.9647 61.08 24.8305 61.0645 24.6963 61.0491Z" fill="#95BCF9"/>
<path d="M21.8023 50.7783C21.5989 51.0326 21.3477 51.2297 21.0535 51.3755C21.0954 50.9174 21.3469 50.7176 21.8023 50.7783Z" fill="#9494FF"/>
<path d="M26.9403 48.6557C26.9191 48.9337 26.8338 49.1553 26.4951 49.1435C26.499 48.8499 26.508 48.5595 26.9403 48.6557Z" fill="#9494FF"/>
<path d="M7.1604 57.5304C7.34666 57.7316 7.38413 57.9728 7.3514 58.2332C7.0331 58.0686 6.86925 57.8618 7.1604 57.5304Z" fill="#9494FF"/>
<path d="M20.8912 51.6295C20.8757 51.7642 20.8548 51.8983 20.8396 52.0303C20.7341 51.999 20.6173 51.9719 20.62 51.8303C20.6219 51.6476 20.7548 51.6302 20.8939 51.6298L20.8912 51.6295Z" fill="#9494FF"/>
<path d="M19.2726 34.9693C19.344 34.8686 19.4461 34.8559 19.5564 34.8659C19.5098 35.0347 19.4611 35.1979 19.2726 34.9693Z" fill="#9494FF"/>
<path d="M10.9688 33.8789C11.0788 33.8916 11.1753 33.9272 11.2219 34.0415C10.9864 34.2212 10.9761 34.0513 10.9688 33.8789Z" fill="#9494FF"/>
<path d="M25.2506 25.5852C25.1792 25.6859 25.0774 25.696 24.9671 25.686C25.0137 25.5171 25.0648 25.3569 25.2506 25.5852Z" fill="#9494FF"/>
<path d="M23.7168 35.3457C23.8268 35.3584 23.923 35.3967 23.97 35.5083C23.7341 35.6907 23.7241 35.5181 23.7168 35.3457Z" fill="#9494FF"/>
<path d="M36.6983 39.587C39.2404 39.88 41.7852 40.1734 44.3276 40.4637C44.5431 40.5757 44.759 40.685 44.9773 40.7973C45.0828 41.0382 45.2452 41.2339 45.4555 41.3916C45.5128 41.6732 45.4425 42.0001 45.7437 42.1955C45.6123 43.2642 45.4726 44.3347 45.3467 45.4041C44.7363 50.6523 44.131 55.9038 43.5261 61.1527C43.4324 61.4224 43.3388 61.6921 43.2451 61.9618C43.0019 62.3259 42.7007 62.6262 42.3051 62.8257C42.115 62.752 42.0101 62.8597 41.9203 63.0019C39.5735 62.7369 37.2264 62.4745 34.8833 62.2017C33.2834 62.0173 32.7082 61.2729 32.8941 59.6604C33.588 53.6402 34.2896 47.6236 34.9647 41.6013C35.0732 40.6361 35.4828 39.9617 36.4146 39.6415C36.5253 39.6951 36.6273 39.7069 36.704 39.585L36.6983 39.587Z" fill="#DD923F"/>
<path d="M25.1036 61.1018C25.1243 60.9217 25.14 60.7383 25.1608 60.5583C25.5065 57.5589 25.8525 54.5569 26.1982 51.5575C26.2189 51.3775 26.2454 51.1953 26.2688 51.0156C27.3291 51.1378 28.3879 51.2734 29.4495 51.3849C29.8283 51.4258 30.1926 51.4978 30.5393 51.6521C31.2982 52.2897 31.5001 53.0864 31.3635 54.0592C31.1224 55.7498 30.9269 57.4457 30.7771 59.1468C30.6978 60.0472 30.4234 60.7999 29.6882 61.3497C28.5703 61.7029 27.4769 61.3018 26.3745 61.2374C25.9503 61.213 25.528 61.148 25.1062 61.1021L25.1036 61.1018Z" fill="#77A9F8"/>
<path d="M42.0819 27.1168C43.1986 27.2455 44.3164 27.4587 45.4347 27.4787C46.5206 27.4977 47.5756 29.0109 47.4571 29.9449C47.1879 32.068 46.9778 34.1979 46.7086 36.321C46.5545 37.5396 45.2536 38.4899 43.9505 38.3506C41.825 38.1246 39.7019 37.8772 37.5805 37.6164C36.2127 37.4478 35.2042 36.1442 35.3505 34.7096C35.5481 32.7825 35.7165 30.8493 36.032 28.9385C36.2647 27.5329 37.2657 26.4473 38.8651 26.7297C39.9261 26.9173 41.0084 26.9903 42.0822 27.1141L42.0819 27.1168ZM40.7574 37.4515C41.8526 37.5777 42.9452 37.7037 44.0404 37.8299C44.086 37.8352 44.129 37.8401 44.1746 37.8454C45.4208 37.9835 46.1801 37.3902 46.3307 36.1304C46.5735 34.1186 46.8025 32.108 47.0264 30.0941C47.1707 28.7953 46.5687 28.0479 45.2563 27.8939C43.045 27.6336 40.8257 27.4431 38.629 27.1028C37.571 26.9373 36.5603 27.8475 36.4488 28.7442C36.188 30.8655 35.9349 32.9905 35.717 35.1168C35.6221 36.0345 36.4278 36.9498 37.3402 37.0576C38.4781 37.1915 39.6166 37.32 40.7574 37.4515Z" fill="#9494FF"/>
<path d="M29.685 61.3493C30.4202 60.7996 30.6946 60.0469 30.7739 59.1464C30.9238 57.4453 31.1192 55.7495 31.3603 54.0588C31.4996 53.0863 31.2953 52.2867 30.5361 51.6518C30.8805 51.4491 31.0391 51.7479 31.175 51.9378C31.5227 52.4136 31.7371 52.9612 31.6707 53.5609C31.4419 55.6641 31.1946 57.7625 30.9443 59.8632C30.8501 60.6803 30.3083 61.2986 29.682 61.3517L29.685 61.3493Z" fill="#9494FF"/>
<path d="M48.4189 12.071C47.4558 11.4589 46.3375 11.5805 45.284 11.3992C44.7824 11.3141 44.2612 11.3521 43.7744 11.1626C43.8813 10.9434 44.072 11.0117 44.2438 11.0315C45.3739 11.1617 46.5076 11.2842 47.6365 11.4252C48.02 11.4722 48.402 11.557 48.4189 12.071Z" fill="#9494FF"/>
<path d="M46.7225 25.323C47.2372 24.9874 47.4691 24.415 47.8524 23.969C47.9262 24.0129 48.06 24.0555 48.0604 24.0992C48.0573 24.6217 47.2836 25.3168 46.7202 25.32L46.7225 25.323Z" fill="#9494FF"/>
<path d="M49.0463 13.2518C48.7655 13.0207 48.7315 12.6791 48.6514 12.3594C49.0439 12.5408 49.4047 12.7376 49.0463 13.2518Z" fill="#9494FF"/>
<path d="M43.2422 61.9613C43.3358 61.6916 43.4295 61.4219 43.5231 61.1522C43.8189 61.5594 43.6654 61.8059 43.2422 61.9613Z" fill="#9494FF"/>
<path d="M44.9742 40.7965C44.7586 40.6845 44.5428 40.5752 44.3245 40.4629C44.7263 40.2097 44.885 40.4377 44.9742 40.7965Z" fill="#9494FF"/>
<path d="M45.7413 42.1921C45.4401 41.9967 45.5104 41.6698 45.4531 41.3882C45.8451 41.5505 45.7408 41.8897 45.7413 42.1921Z" fill="#9494FF"/>
<path d="M41.9169 63.0041C42.0067 62.862 42.1115 62.7543 42.3016 62.8279C42.2463 63.0475 42.0977 63.0631 41.9169 63.0041Z" fill="#9494FF"/>
<path d="M36.6977 39.5866C36.6214 39.7057 36.5195 39.694 36.4084 39.6431C36.4716 39.4489 36.5514 39.3465 36.6977 39.5866Z" fill="#9494FF"/>
<path d="M8.75725 49.5472C8.92812 49.2918 9.19036 49.2349 9.47212 49.2211C9.35328 49.5914 9.04964 49.5591 8.75725 49.5472Z" fill="#95BCF9"/>
<path d="M8.29065 50.0391C8.31301 49.8451 8.41732 49.7207 8.60598 49.6687C8.58362 49.8627 8.56096 50.0593 8.29065 50.0391Z" fill="#95BCF9"/>
<path d="M18.2505 50.9136C18.4194 51.0095 18.4954 51.1548 18.4727 51.3514C18.1998 51.3063 18.2252 51.11 18.2505 50.9136Z" fill="#95BCF9"/>
<path d="M8.34325 59.026C8.14952 59.0037 8.02524 58.8993 7.9677 58.7125C8.16443 58.7325 8.36146 58.7497 8.34325 59.026Z" fill="#95BCF9"/>
<path d="M16.5424 59.8398C16.471 59.9405 16.3689 59.9532 16.2589 59.9406C16.3056 59.7717 16.3543 59.6085 16.5424 59.8398Z" fill="#95BCF9"/>
<path d="M28.288 31.0632C28.1412 32.3371 27.9755 33.6089 27.8582 34.8862C27.8142 35.3631 27.682 35.5657 27.1563 35.4779C26.3368 35.3426 25.5057 35.285 24.6802 35.1789C23.7204 35.0574 23.1587 34.3609 23.2636 33.4035C23.4666 31.5478 23.6807 29.6907 23.9052 27.8375C24.0666 26.5081 24.8982 25.806 26.1369 26.0795C26.7922 26.2231 27.4721 26.2715 28.1442 26.3163C28.6842 26.3513 28.8222 26.5932 28.7523 27.1053C28.5761 28.4221 28.4404 29.7409 28.2883 31.0605L28.288 31.0632Z" fill="#95BCF9"/>
<path d="M26.1985 51.5574C25.8528 54.5568 25.5068 57.5588 25.1611 60.5581C24.84 60.5593 24.6424 60.7162 24.5629 61.0284C23.669 60.9254 22.7724 60.822 21.8785 60.719C21.8681 60.3611 21.5564 60.3279 21.3247 60.214C20.5677 59.8435 20.2715 59.3219 20.3672 58.4915C20.594 56.5242 20.8207 54.5568 21.0474 52.5895C21.176 51.4742 21.9107 50.8345 23.0103 50.9231C23.8163 50.986 24.6163 51.1245 25.4227 51.1848C25.749 51.2088 25.9014 51.515 26.1958 51.5571L26.1985 51.5574Z" fill="#95BCF9"/>
<path d="M40.7604 37.4488C39.6222 37.3176 38.484 37.1865 37.3432 37.055C36.4308 36.9471 35.6251 36.0318 35.72 35.1141C35.9378 32.9878 36.1906 30.8655 36.4517 28.7415C36.5606 27.8445 37.5739 26.9346 38.632 27.1001C40.8286 27.4404 43.0507 27.6312 45.2593 27.8912C46.5716 28.0452 47.1763 28.793 47.0294 30.0914C46.8054 32.1053 46.5737 34.1156 46.3337 36.1277C46.183 37.3876 45.4211 37.9806 44.1776 37.8427C44.1319 37.8374 44.089 37.8325 44.0434 37.8272C42.9481 37.701 41.8556 37.5751 40.7604 37.4488Z" fill="#77A9F8"/>
</g>
<defs>
<clipPath id="clip0_7861_20424">
<rect width="49.1898" height="65.5864" fill="white" transform="translate(7.50781) rotate(6.57478)"/>
</clipPath>
</defs>
</svg>
