<svg width="80" height="89" viewBox="0 0 80 89" fill="none" xmlns="http://www.w3.org/2000/svg">
<g clip-path="url(#clip0_5868_33999)">
<path d="M27.7394 36.9863C28.5569 36.9863 29.3408 37.311 29.9188 37.8891C30.4969 38.4671 30.8216 39.2511 30.8216 40.0685V58.5617C30.8216 59.3791 30.4969 60.1631 29.9188 60.7411C29.3408 61.3191 28.5569 61.6438 27.7394 61.6438C26.922 61.6438 26.138 61.3191 25.56 60.7411C24.9819 60.1631 24.6572 59.3791 24.6572 58.5617V40.0685C24.6572 39.2511 24.9819 38.4671 25.56 37.8891C26.138 37.311 26.922 36.9863 27.7394 36.9863ZM70.8901 49.3151C70.8901 50.7452 70.5634 52.0891 69.9901 53.3034L73.0723 56.3856C73.6502 56.9644 73.9746 57.749 73.974 58.5669C73.9734 59.3848 73.6479 60.169 73.0692 60.7469C72.4904 61.3249 71.7058 61.6492 70.8879 61.6486C70.07 61.6481 69.2858 61.3226 68.7079 60.7438L65.6257 57.6617C64.382 58.2586 63.02 58.5686 61.6404 58.5686C60.2608 58.5686 58.8989 58.2586 57.6552 57.6617L54.573 60.7438C53.9942 61.3218 53.2096 61.6461 52.3917 61.6456C51.5738 61.645 50.7896 61.3195 50.2117 60.7408C49.6337 60.162 49.3094 59.3774 49.3099 58.5595C49.3105 57.7416 49.636 56.9574 50.2147 56.3795L53.2969 53.2973C52.6999 52.0535 52.39 50.6916 52.39 49.312C52.39 47.9324 52.6999 46.5705 53.2969 45.3267L50.2147 42.2445C49.9286 41.958 49.7017 41.6178 49.5469 41.2436C49.3922 40.8693 49.3127 40.4682 49.313 40.0632C49.3133 39.6583 49.3934 39.2573 49.5486 38.8833C49.7039 38.5092 49.9313 38.1694 50.2178 37.8832C50.5044 37.5971 50.8445 37.3701 51.2188 37.2154C51.5931 37.0607 51.9941 36.9812 52.3991 36.9815C52.8041 36.9818 53.2051 37.0619 53.5791 37.2171C53.9532 37.3723 54.293 37.5997 54.5791 37.8863L57.6613 40.9685C58.9051 40.3715 60.267 40.0616 61.6466 40.0616C63.0262 40.0616 64.3881 40.3715 65.6319 40.9685L68.7141 37.8863C69.0006 37.6001 69.3408 37.3732 69.715 37.2185C70.0893 37.0638 70.4904 36.9843 70.8953 36.9846C71.3003 36.9849 71.7013 37.0649 72.0753 37.2202C72.4494 37.3754 72.7892 37.6028 73.0754 37.8894C73.3615 38.176 73.5884 38.5161 73.7432 38.8904C73.8979 39.2646 73.9774 39.6657 73.9771 40.0707C73.9768 40.4757 73.8967 40.8766 73.7415 41.2507C73.5863 41.6247 73.3588 41.9645 73.0723 42.2507L69.9901 45.3329C70.5695 46.5349 70.8901 47.8849 70.8901 49.3151ZM64.7257 49.3151C64.7257 48.4976 64.401 47.7137 63.823 47.1356C63.2449 46.5576 62.461 46.2329 61.6435 46.2329C60.8261 46.2329 60.0421 46.5576 59.4641 47.1356C58.8861 47.7137 58.5613 48.4976 58.5613 49.3151C58.5613 50.1325 58.8861 50.9165 59.4641 51.4945C60.0421 52.0725 60.8261 52.3973 61.6435 52.3973C62.461 52.3973 63.2449 52.0725 63.823 51.4945C64.401 50.9165 64.7257 50.1325 64.7257 49.3151ZM6.16406 33.9041C6.16406 29.8169 7.78771 25.897 10.6778 23.0069C13.5679 20.1168 17.4878 18.4932 21.575 18.4932H77.0545C81.1417 18.4932 85.0616 20.1168 87.9517 23.0069C90.8418 25.897 92.4654 29.8169 92.4654 33.9041V64.726C92.4654 68.8133 90.8418 72.7331 87.9517 75.6232C85.0616 78.5133 81.1417 80.137 77.0545 80.137H21.575C17.4878 80.137 13.5679 78.5133 10.6778 75.6232C7.78771 72.7331 6.16406 68.8133 6.16406 64.726V33.9041ZM21.575 24.6575C19.1227 24.6575 16.7708 25.6317 15.0367 27.3658C13.3026 29.0999 12.3284 31.4518 12.3284 33.9041V64.726C12.3284 67.1784 13.3026 69.5303 15.0367 71.2644C16.7708 72.9984 19.1227 73.9726 21.575 73.9726H77.0545C79.5068 73.9726 81.8587 72.9984 83.5928 71.2644C85.3269 69.5303 86.301 67.1784 86.301 64.726V33.9041C86.301 31.4518 85.3269 29.0999 83.5928 27.3658C81.8587 25.6317 79.5068 24.6575 77.0545 24.6575H21.575Z" fill="url(#paint0_linear_5868_33999)"/>
</g>
<defs>
<linearGradient id="paint0_linear_5868_33999" x1="9.99951" y1="25" x2="83.4995" y2="76" gradientUnits="userSpaceOnUse">
<stop stop-color="white" stop-opacity="0.28"/>
<stop offset="1" stop-color="#E3BD43" stop-opacity="0.22"/>
</linearGradient>
<clipPath id="clip0_5868_33999">
<rect width="80" height="89" fill="white"/>
</clipPath>
</defs>
</svg>
