<svg width="50" height="46" viewBox="0 0 50 46" fill="none" xmlns="http://www.w3.org/2000/svg">
<g clip-path="url(#clip0_5868_33996)">
<path d="M17.3381 23.1163C17.849 23.1163 18.339 23.3193 18.7003 23.6805C19.0615 24.0418 19.2645 24.5318 19.2645 25.0427V36.6009C19.2645 37.1118 19.0615 37.6018 18.7003 37.9631C18.339 38.3243 17.849 38.5273 17.3381 38.5273C16.8272 38.5273 16.3372 38.3243 15.976 37.9631C15.6147 37.6018 15.4117 37.1118 15.4117 36.6009V25.0427C15.4117 24.5318 15.6147 24.0418 15.976 23.6805C16.3372 23.3193 16.8272 23.1163 17.3381 23.1163ZM44.3073 30.8218C44.3073 31.7156 44.1031 32.5555 43.7448 33.3145L45.6712 35.2409C46.0324 35.6026 46.2351 36.093 46.2347 36.6042C46.2344 37.1154 46.0309 37.6055 45.6692 37.9667C45.3075 38.3279 44.8171 38.5306 44.3059 38.5303C43.7947 38.5299 43.3046 38.3265 42.9434 37.9648L41.017 36.0384C40.2397 36.4115 39.3885 36.6052 38.5262 36.6052C37.664 36.6052 36.8128 36.4115 36.0354 36.0384L34.1091 37.9648C33.7474 38.326 33.257 38.5287 32.7458 38.5284C32.2346 38.528 31.7445 38.3246 31.3833 37.9629C31.0221 37.6011 30.8193 37.1107 30.8197 36.5996C30.8201 36.0884 31.0235 35.5983 31.3852 35.237L33.3116 33.3107C32.9384 32.5333 32.7447 31.6821 32.7447 30.8199C32.7447 29.9576 32.9384 29.1064 33.3116 28.3291L31.3852 26.4027C31.2063 26.2236 31.0645 26.011 30.9678 25.7771C30.8711 25.5432 30.8214 25.2925 30.8216 25.0394C30.8218 24.7863 30.8718 24.5357 30.9689 24.3019C31.0659 24.0681 31.208 23.8558 31.3871 23.6769C31.5662 23.498 31.7788 23.3562 32.0127 23.2595C32.2466 23.1628 32.4973 23.1131 32.7504 23.1133C33.0035 23.1135 33.2541 23.1635 33.4879 23.2606C33.7217 23.3576 33.9341 23.4997 34.1129 23.6788L36.0393 25.6052C36.8166 25.2321 37.6679 25.0384 38.5301 25.0384C39.3923 25.0384 40.2436 25.2321 41.0209 25.6052L42.9473 23.6788C43.1264 23.5 43.339 23.3581 43.5729 23.2614C43.8068 23.1648 44.0575 23.1151 44.3106 23.1153C44.5637 23.1154 44.8143 23.1655 45.0481 23.2625C45.2818 23.3595 45.4942 23.5016 45.6731 23.6808C45.8519 23.8599 45.9938 24.0724 46.0905 24.3064C46.1871 24.5403 46.2368 24.7909 46.2366 25.0441C46.2365 25.2972 46.1864 25.5478 46.0894 25.7816C45.9924 26.0153 45.8503 26.2277 45.6712 26.4066L43.7448 28.3329C44.1069 29.0842 44.3073 29.928 44.3073 30.8218ZM40.4545 30.8218C40.4545 30.3109 40.2516 29.8209 39.8903 29.4597C39.5291 29.0984 39.0391 28.8954 38.5282 28.8954C38.0173 28.8954 37.5273 29.0984 37.166 29.4597C36.8048 29.8209 36.6018 30.3109 36.6018 30.8218C36.6018 31.3327 36.8048 31.8227 37.166 32.184C37.5273 32.5452 38.0173 32.7482 38.5282 32.7482C39.0391 32.7482 39.5291 32.5452 39.8903 32.184C40.2516 31.8227 40.4545 31.3327 40.4545 30.8218ZM3.85352 21.19C3.85352 18.6354 4.8683 16.1855 6.67462 14.3792C8.48094 12.5729 10.9308 11.5581 13.4854 11.5581H48.16C50.7145 11.5581 53.1644 12.5729 54.9708 14.3792C56.7771 16.1855 57.7919 18.6354 57.7919 21.19V40.4537C57.7919 43.0082 56.7771 45.4581 54.9708 47.2644C53.1644 49.0707 50.7145 50.0855 48.16 50.0855H13.4854C10.9308 50.0855 8.48094 49.0707 6.67462 47.2644C4.8683 45.4581 3.85352 43.0082 3.85352 40.4537V21.19ZM13.4854 15.4108C11.9526 15.4108 10.4827 16.0197 9.39892 17.1035C8.31512 18.1873 7.70626 19.6572 7.70626 21.19V40.4537C7.70626 41.9864 8.31512 43.4563 9.39892 44.5401C10.4827 45.6239 11.9526 46.2328 13.4854 46.2328H48.16C49.6927 46.2328 51.1627 45.6239 52.2465 44.5401C53.3303 43.4563 53.9391 41.9864 53.9391 40.4537V21.19C53.9391 19.6572 53.3303 18.1873 52.2465 17.1035C51.1627 16.0197 49.6927 15.4108 48.16 15.4108H13.4854Z" fill="url(#paint0_linear_5868_33996)"/>
</g>
<defs>
<linearGradient id="paint0_linear_5868_33996" x1="6.25067" y1="15.6249" x2="52.1882" y2="47.4999" gradientUnits="userSpaceOnUse">
<stop stop-color="white" stop-opacity="0.28"/>
<stop offset="1" stop-color="#E3BD43" stop-opacity="0.22"/>
</linearGradient>
<clipPath id="clip0_5868_33996">
<rect width="50" height="46" fill="white"/>
</clipPath>
</defs>
</svg>
