<svg width="31" height="30" viewBox="0 0 31 30" fill="none" xmlns="http://www.w3.org/2000/svg">
<path d="M14.9464 30.0003H0L1.99297 21.6761C2.10372 21.1928 2.54647 20.8705 3.0448 20.8705H11.7908C12.2889 20.8705 12.7319 21.1928 12.8427 21.6761L14.9464 30.0003ZM29.0073 21.6761C28.8966 21.1928 28.4538 20.8705 27.9555 20.8705H19.1537C18.6556 20.8705 18.2126 21.1928 18.1019 21.6761L16.0536 30.0003H31L29.0073 21.6761ZM20.9801 11.4725C20.8694 10.9893 20.4267 10.667 19.9283 10.667H11.1265C10.6284 10.667 10.1855 10.9893 10.0747 11.4725L8.02664 19.7968H22.9731L20.9801 11.4725Z" fill="#535DB7"/>
<line x1="6.74896" y1="4.33738" x2="10.4973" y2="8.57411" stroke="#B9BEF2" stroke-width="2"/>
<line x1="15.5996" y1="0.991273" x2="15.6489" y2="6.64791" stroke="#B9BEF2" stroke-width="2"/>
<line x1="24.5595" y1="4.67559" x2="20.7378" y2="8.84626" stroke="#B9BEF2" stroke-width="2"/>
</svg>
