<svg width="33" height="29" viewBox="0 0 33 29" fill="none" xmlns="http://www.w3.org/2000/svg">
<g clip-path="url(#clip0_5868_34011)">
<path d="M29.5443 15.4591C29.326 15.5988 29.4288 15.8166 29.4288 15.9981C29.4269 19.4736 29.4178 22.9473 29.4434 26.4228C29.4544 27.8874 28.405 29.0616 26.8657 28.9981C25.2494 28.9327 23.6294 28.9781 22.0094 28.9745C21.9782 28.9491 21.9489 28.9237 21.9177 28.8983C21.4682 28.8202 21.1379 28.5425 20.8169 28.2485C20.7912 28.2231 20.7655 28.1995 20.7417 28.1741C20.3674 27.675 20.1692 27.1378 20.1821 26.4954C20.2114 24.9563 20.1931 23.4155 20.1894 21.8765C20.1894 21.4536 20.1325 21.0453 19.8995 20.6696C19.5473 20.1015 18.9877 19.9291 18.3823 19.9164C17.1476 19.8892 15.9092 19.8946 14.6744 19.9146C13.7369 19.9291 13.1076 20.4645 12.9077 21.3084C12.8563 21.528 12.9278 21.7186 12.926 21.9237C12.9113 23.4028 12.9223 24.8819 12.915 26.3611C12.915 26.6315 12.8691 26.9001 12.8435 27.1705C12.8196 27.2013 12.7976 27.2322 12.7737 27.2612C12.6765 28.0979 11.5702 28.989 10.7042 28.9872C9.0402 28.9836 7.37433 28.9981 5.7103 28.9836C4.68839 28.9745 3.6775 27.8438 3.67933 26.7821C3.68667 22.9745 3.68667 19.1687 3.68667 15.3611C3.68667 15.332 3.6775 15.3012 3.67383 15.2721C3.72153 15.2159 3.76006 15.1469 3.81877 15.1052C5.1067 14.1632 6.224 13.0235 7.47891 12.038C8.3467 11.3574 9.13194 10.5589 9.98505 9.84744C10.0199 9.82203 10.0548 9.79481 10.0896 9.7694C11.2473 8.77121 12.405 7.77121 13.5626 6.77303C13.5975 6.7458 13.6305 6.71858 13.6654 6.69317C14.4983 5.97085 15.3294 5.2449 16.1697 4.52983C16.3311 4.39372 16.5219 4.17775 16.7513 4.4282C17.2411 4.95996 17.8502 5.35379 18.3768 5.84381C19.1363 6.55161 19.9583 7.19045 20.7306 7.88555C21.747 8.80025 22.8148 9.65869 23.8587 10.5444C24.8825 11.4137 25.9081 12.2794 26.9226 13.1578C27.8033 13.9182 28.671 14.695 29.5425 15.4645L29.5443 15.4591Z" fill="#535DB7"/>
<path d="M29.5427 15.4591C28.6694 14.6896 27.8016 13.9146 26.9228 13.1524C25.9082 12.274 24.8827 11.4083 23.8589 10.539C22.815 9.65329 21.7472 8.79486 20.7308 7.88015C19.9584 7.18505 19.1365 6.54622 18.377 5.83841C17.8504 5.34839 17.2413 4.95457 16.7514 4.4228C16.5221 4.17417 16.3295 4.38832 16.1699 4.52444C15.3296 5.2395 14.4985 5.96545 13.6656 6.68778C13.6307 6.715 13.5977 6.74222 13.5628 6.76763C12.4051 7.76582 11.2475 8.76582 10.0898 9.764C10.0549 9.78941 10.0201 9.81663 9.98523 9.84204C9.13028 10.5535 8.34505 11.352 7.47909 12.0326C6.22418 13.0181 5.10687 14.1578 3.81894 15.0998C3.76023 15.1415 3.7217 15.2105 3.674 15.2667C3.24469 15.6279 2.89794 16.0834 2.30718 16.2413C1.53663 16.4482 0.694518 16.1034 0.208333 15.3357C-0.129244 14.8039 -0.0466844 13.8965 0.41198 13.3901C1.18437 12.5408 2.09803 11.8439 2.975 11.1088C3.52723 10.646 4.06295 10.1651 4.60968 9.69322C5.80221 8.66418 6.99657 7.63696 8.18726 6.60429C8.64042 6.21046 9.08074 5.80393 9.52656 5.40466C9.56326 5.38106 9.59812 5.35565 9.63481 5.33206C10.7705 4.33751 11.9024 3.33932 13.0454 2.35202C13.805 1.69504 14.5847 1.06346 15.3461 0.408286C16.113 -0.250516 17.1973 -0.0599538 17.8926 0.553476C19.2136 1.71682 20.5327 2.88197 21.8683 4.02716C23.1232 5.10339 24.3781 6.17961 25.6165 7.27761C27.009 8.51355 28.4346 9.71137 29.8472 10.9255C30.7371 11.6914 31.6434 12.4373 32.4836 13.2558C32.9295 13.6914 33.1992 14.441 32.8322 15.2939C32.5901 15.8584 31.8892 16.2486 31.2104 16.2921C30.4674 16.3411 30.0252 15.8802 29.5482 15.4537L29.5427 15.4591Z" fill="#B9BEF2"/>
</g>
<defs>
<clipPath id="clip0_5868_34011">
<rect width="33" height="29" fill="white"/>
</clipPath>
</defs>
</svg>
