<svg width="37" height="33" viewBox="0 0 37 33" fill="none" xmlns="http://www.w3.org/2000/svg">
<path d="M29.5404 15.4634C29.3221 15.6032 29.4249 15.821 29.4249 16.0025C29.423 19.478 29.4138 22.9517 29.4395 26.4272C29.4505 27.8918 28.4011 29.066 26.8618 29.0025C25.2455 28.9371 23.6255 28.9825 22.0055 28.9789C21.9743 28.9535 21.945 28.9281 21.9138 28.9027C21.4643 28.8246 21.134 28.5469 20.813 28.2529C20.7873 28.2275 20.7616 28.2039 20.7377 28.1785C20.3635 27.6794 20.1653 27.1422 20.1782 26.4997C20.2075 24.9607 20.1892 23.4199 20.1855 21.8809C20.1855 21.458 20.1286 21.0497 19.8956 20.674C19.5434 20.1059 18.9838 19.9335 18.3784 19.9208C17.1437 19.8936 15.9053 19.899 14.6705 19.919C13.733 19.9335 13.1037 20.4689 12.9038 21.3128C12.8524 21.5324 12.9239 21.723 12.9221 21.9281C12.9074 23.4072 12.9184 24.8863 12.9111 26.3654C12.9111 26.6359 12.8652 26.9045 12.8395 27.1749C12.8157 27.2057 12.7937 27.2366 12.7698 27.2656C12.6726 28.1023 11.5663 28.9934 10.7003 28.9916C9.0363 28.988 7.37043 29.0025 5.70639 28.9879C4.68449 28.9789 3.67359 27.8482 3.67543 26.7865C3.68276 22.9789 3.68276 19.1731 3.68276 15.3654C3.68276 15.3364 3.67359 15.3056 3.66992 15.2765C3.71762 15.2203 3.75615 15.1513 3.81486 15.1095C5.10279 14.1676 6.2201 13.0279 7.475 12.0424C8.3428 11.3618 9.12803 10.5633 9.98115 9.85183C10.016 9.82642 10.0509 9.7992 10.0857 9.77379C11.2434 8.77561 12.4011 7.77561 13.5587 6.77742C13.5936 6.7502 13.6266 6.72298 13.6615 6.69757C14.4944 5.97524 15.3255 5.24929 16.1658 4.53423C16.3272 4.39811 16.518 4.18214 16.7474 4.43259C17.2372 4.96435 17.8463 5.35818 18.3729 5.8482C19.1324 6.55601 19.9543 7.19485 20.7267 7.88995C21.7431 8.80465 22.8109 9.66308 23.8548 10.5487C24.8786 11.4181 25.9041 12.2838 26.9187 13.1622C27.7993 13.9226 28.6671 14.6994 29.5386 15.4689L29.5404 15.4634Z" fill="#535DB7"/>
<path d="M29.5407 15.4635C28.6674 14.694 27.7996 13.919 26.9208 13.1568C25.9063 12.2784 24.8807 11.4127 23.857 10.5434C22.813 9.65769 21.7453 8.79925 20.7289 7.88455C19.9565 7.18945 19.1346 6.55061 18.375 5.84281C17.8485 5.35279 17.2394 4.95896 16.7495 4.4272C16.5202 4.17856 16.3275 4.39272 16.1679 4.52883C15.3276 5.2439 14.4965 5.96985 13.6636 6.69217C13.6287 6.7194 13.5957 6.74662 13.5609 6.77203C12.4032 7.77021 11.2455 8.77021 10.0879 9.7684C10.053 9.79381 10.0181 9.82103 9.98328 9.84644C9.12833 10.5579 8.34309 11.3564 7.47713 12.037C6.22223 13.0225 5.10492 14.1622 3.81699 15.1041C3.75828 15.1459 3.71975 15.2149 3.67205 15.2711C3.24274 15.6323 2.89599 16.0878 2.30523 16.2457C1.53467 16.4526 0.692565 16.1078 0.20638 15.3401C-0.131197 14.8083 -0.0486375 13.9009 0.410027 13.3945C1.18242 12.5452 2.09608 11.8483 2.97305 11.1132C3.52528 10.6504 4.061 10.1695 4.60773 9.69762C5.80025 8.66858 6.99462 7.64136 8.18531 6.60869C8.63847 6.21486 9.07879 5.80832 9.52461 5.40905C9.56131 5.38546 9.59616 5.36005 9.63286 5.33645C10.7685 4.3419 11.9005 3.34371 13.0435 2.35642C13.803 1.69943 14.5828 1.06785 15.3441 0.41268C16.111 -0.246122 17.1953 -0.0555593 17.8907 0.557871C19.2116 1.72121 20.5307 2.88636 21.8664 4.03156C23.1213 5.10778 24.3762 6.184 25.6146 7.28201C27.0071 8.51794 28.4326 9.71577 29.8453 10.9299C30.7351 11.6958 31.6414 12.4417 32.4817 13.2602C32.9275 13.6958 33.1972 14.4453 32.8303 15.2983C32.5881 15.8628 31.8873 16.253 31.2084 16.2965C30.4654 16.3455 30.0233 15.8845 29.5462 15.4581L29.5407 15.4635Z" fill="#B9BEF2"/>
<ellipse cx="29.3233" cy="27.5091" rx="7.32719" ry="5.49539" fill="white"/>
<path d="M29.1903 22.1909C30.7749 22.2374 32.2742 22.4386 33.689 23.062C34.5295 23.4323 35.3103 23.9052 35.8606 24.6573C36.5229 25.5625 36.6618 26.4874 36.0791 27.5194C35.6534 28.2735 34.9931 28.7736 34.253 29.1747C33.2495 29.7055 32.1564 30.0455 31.0293 30.1775C30.3616 30.2799 29.6866 30.3265 29.0113 30.3167C27.5271 30.2612 26.0728 30.0422 24.7061 29.4229C23.7743 29.0008 22.9335 28.4508 22.3983 27.5432C22.1864 27.2123 22.0605 26.8337 22.0317 26.4417C22.003 26.0497 22.0724 25.6568 22.2337 25.2985C22.5467 24.6233 23.0506 24.0549 23.683 23.6638C24.6801 23.0211 25.8004 22.5945 26.9719 22.4114C27.7056 22.2882 28.4467 22.2145 29.1903 22.1909Z" fill="#353E8C"/>
<path d="M34.1948 30.2339C34.1948 30.802 34.1929 31.3656 34.1968 31.9291C34.1968 32.0207 34.1415 32.0416 34.0782 32.0731C33.2958 32.4393 32.4675 32.6981 31.6159 32.8424C31.5261 32.8595 31.4831 32.8455 31.4844 32.7345C31.4905 32.2079 31.4889 31.6814 31.4844 31.1548C31.4844 31.0648 31.5067 31.0211 31.6021 31.004C32.4725 30.8566 33.321 30.6009 34.1281 30.2429C34.1499 30.2371 34.1723 30.2341 34.1948 30.2339Z" fill="#353E8C"/>
<path d="M24.2618 30.2129C24.5107 30.3128 24.7449 30.4123 24.983 30.5009C25.5765 30.7162 26.1874 30.88 26.8089 30.9903C26.9286 31.013 26.9748 31.0499 26.9728 31.1794C26.9651 31.6864 26.9651 32.1935 26.9728 32.7008C26.9748 32.8313 26.9369 32.8594 26.8143 32.8356C25.9899 32.6871 25.187 32.437 24.4239 32.0908C24.3695 32.0729 24.3231 32.0365 24.2928 31.9879C24.2625 31.9392 24.2503 31.8815 24.2582 31.8247C24.2672 31.2951 24.2618 30.7637 24.2618 30.2129Z" fill="#353E8C"/>
<path d="M29.2365 31.172C29.6373 31.172 30.038 31.1764 30.4386 31.1688C30.5503 31.1667 30.5907 31.1868 30.5891 31.3082C30.5823 31.8158 30.5823 32.3234 30.5891 32.8311C30.5905 32.9502 30.5499 32.9776 30.4396 32.9803C29.638 32.9995 28.8364 32.9995 28.035 32.9803C27.9202 32.9778 27.8733 32.9531 27.8751 32.8233C27.8833 32.322 27.8833 31.8207 27.8751 31.3191C27.8733 31.1921 27.9123 31.1658 28.0339 31.1687C28.4349 31.1778 28.8357 31.1722 29.2365 31.172Z" fill="#353E8C"/>
<path d="M36.4324 28.5884C36.5323 29.9583 36.2887 30.7049 35.0942 31.524V30.4887C35.0691 30.2524 35.0734 30.0139 35.107 29.7786C35.1693 29.5419 35.4634 29.5016 35.6381 29.3513C35.9267 29.1231 36.1927 28.8676 36.4324 28.5884Z" fill="#353E8C"/>
<path d="M23.3617 31.5206C22.2875 30.8223 21.8658 29.8551 22.0306 28.6188C22.0783 28.6069 22.0986 28.6654 22.1277 28.698C22.4445 29.0547 22.8136 29.3612 23.2222 29.607C23.2707 29.6323 23.3104 29.6719 23.3358 29.7204C23.3612 29.7688 23.3713 29.824 23.3646 29.8783C23.3578 30.4171 23.3617 30.9555 23.3617 31.5206Z" fill="#353E8C"/>
<path d="M23.8505 25.7306C24.1062 24.703 24.9119 24.2393 25.7935 23.8876C26.7345 23.5412 27.7277 23.3582 28.7302 23.3465C29.8624 23.2837 30.9974 23.4013 32.0928 23.695C32.8784 23.9161 33.6039 24.2494 34.1825 24.8579C34.4019 25.1078 34.5469 25.4145 34.6009 25.7429C34.6549 26.0713 34.6158 26.4084 34.488 26.7156C34.2239 27.3125 33.7262 27.6716 33.1647 27.938C32.2777 28.3488 31.325 28.5987 30.3508 28.6761C29.0286 28.8128 27.6927 28.7072 26.4083 28.3643C25.6555 28.1846 24.9594 27.8192 24.3835 27.3014C24.1959 27.1251 24.0496 26.9094 23.9552 26.6697C23.8608 26.43 23.8207 26.1724 23.8377 25.9153C23.8262 25.8517 23.8041 25.7883 23.8505 25.7306Z" fill="#9871EA"/>
<path d="M23.8526 25.7314L23.8389 25.9156C23.8264 25.9033 23.8167 25.8884 23.8105 25.8719C23.8043 25.8555 23.8018 25.8379 23.8031 25.8204C23.8044 25.8028 23.8095 25.7858 23.818 25.7704C23.8266 25.7551 23.8384 25.7418 23.8526 25.7314Z" fill="#CCCFD7"/>
<path d="M28.8989 27.834C27.963 27.8191 27.0356 27.6534 26.1523 27.3432C25.7003 27.2068 25.2928 26.952 24.9721 26.6051C24.6351 26.1974 24.6405 25.8629 24.9669 25.4611C25.2684 25.1309 25.6502 24.8845 26.075 24.7459C26.708 24.5095 27.3695 24.3582 28.0421 24.2959C28.7263 24.2114 29.4175 24.2005 30.1039 24.2633C31.1104 24.3595 32.1011 24.5208 32.995 25.041C33.1459 25.1305 33.2858 25.2374 33.4118 25.3596C33.8625 25.789 33.8316 26.3605 33.3492 26.7608C32.7829 27.2307 32.1102 27.4569 31.4082 27.6069C30.5832 27.7788 29.7413 27.8551 28.8989 27.834Z" fill="#D3CCFF"/>
<ellipse cx="29.3233" cy="24.4993" rx="7.32719" ry="5.49539" fill="white"/>
<path d="M29.1903 19.1816C30.7749 19.2281 32.2742 19.4293 33.689 20.0527C34.5295 20.423 35.3103 20.8959 35.8606 21.648C36.5229 22.5533 36.6618 23.4781 36.0791 24.5102C35.6534 25.2642 34.9931 25.7643 34.253 26.1654C33.2495 26.6962 32.1564 27.0363 31.0293 27.1682C30.3616 27.2707 29.6866 27.3172 29.0113 27.3074C27.5271 27.2519 26.0728 27.0329 24.7061 26.4136C23.7743 25.9915 22.9335 25.4416 22.3983 24.5339C22.1864 24.2031 22.0605 23.8244 22.0317 23.4325C22.003 23.0405 22.0724 22.6475 22.2337 22.2892C22.5467 21.614 23.0506 21.0456 23.683 20.6545C24.6801 20.0118 25.8004 19.5852 26.9719 19.4021C27.7056 19.2789 28.4467 19.2053 29.1903 19.1816Z" fill="#353E8C"/>
<path d="M34.1948 27.2246C34.1948 27.7927 34.1929 28.3563 34.1968 28.9198C34.1968 29.0114 34.1415 29.0323 34.0782 29.0638C33.2958 29.4301 32.4675 29.6889 31.6159 29.8332C31.5261 29.8503 31.4831 29.8362 31.4844 29.7252C31.4905 29.1986 31.4889 28.6721 31.4844 28.1455C31.4844 28.0555 31.5067 28.0118 31.6021 27.9947C32.4725 27.8473 33.321 27.5916 34.1281 27.2336C34.1499 27.2278 34.1723 27.2248 34.1948 27.2246Z" fill="#353E8C"/>
<path d="M24.2618 27.2036C24.5107 27.3035 24.7449 27.403 24.983 27.4916C25.5765 27.7069 26.1874 27.8707 26.8089 27.9811C26.9286 28.0037 26.9748 28.0407 26.9728 28.1701C26.9651 28.6771 26.9651 29.1843 26.9728 29.6915C26.9748 29.822 26.9369 29.8501 26.8143 29.8264C25.9899 29.6779 25.187 29.4277 24.4239 29.0815C24.3695 29.0637 24.3231 29.0272 24.2928 28.9786C24.2625 28.93 24.2503 28.8722 24.2582 28.8154C24.2672 28.2858 24.2618 27.7545 24.2618 27.2036Z" fill="#353E8C"/>
<path d="M29.2365 28.1628C29.6373 28.1628 30.038 28.1671 30.4386 28.1596C30.5503 28.1574 30.5907 28.1775 30.5891 28.2989C30.5823 28.8065 30.5823 29.3141 30.5891 29.8218C30.5905 29.9409 30.5499 29.9683 30.4396 29.971C29.638 29.9902 28.8364 29.9902 28.035 29.971C27.9202 29.9685 27.8733 29.9438 27.8751 29.814C27.8833 29.3128 27.8833 28.8114 27.8751 28.3099C27.8733 28.1828 27.9123 28.1565 28.0339 28.1594C28.4349 28.1686 28.8357 28.1629 29.2365 28.1628Z" fill="#353E8C"/>
<path d="M36.4324 25.5791C36.5323 26.949 36.2887 27.6957 35.0942 28.5147V27.4795C35.0691 27.2431 35.0734 27.0046 35.107 26.7694C35.1693 26.5326 35.4634 26.4923 35.6381 26.342C35.9267 26.1138 36.1927 25.8584 36.4324 25.5791Z" fill="#353E8C"/>
<path d="M23.3617 28.5113C22.2875 27.813 21.8658 26.8458 22.0306 25.6095C22.0783 25.5976 22.0986 25.6561 22.1277 25.6887C22.4445 26.0454 22.8136 26.352 23.2222 26.5977C23.2707 26.623 23.3104 26.6626 23.3358 26.7111C23.3612 26.7596 23.3713 26.8147 23.3646 26.869C23.3578 27.4078 23.3617 27.9462 23.3617 28.5113Z" fill="#353E8C"/>
<path d="M23.8505 22.7213C24.1062 21.6938 24.9119 21.2301 25.7935 20.8783C26.7345 20.5319 27.7277 20.349 28.7302 20.3372C29.8624 20.2744 30.9974 20.3921 32.0928 20.6857C32.8784 20.9068 33.6039 21.2402 34.1825 21.8486C34.4019 22.0986 34.5469 22.4052 34.6009 22.7336C34.6549 23.0621 34.6158 23.3991 34.488 23.7063C34.2239 24.3033 33.7262 24.6623 33.1647 24.9288C32.2777 25.3395 31.325 25.5895 30.3508 25.6668C29.0286 25.8035 27.6927 25.6979 26.4083 25.3551C25.6555 25.1753 24.9594 24.8099 24.3835 24.2921C24.1959 24.1158 24.0496 23.9001 23.9552 23.6604C23.8608 23.4207 23.8207 23.1631 23.8377 22.906C23.8262 22.8425 23.8041 22.7791 23.8505 22.7213Z" fill="#535DB7"/>
<path d="M23.8526 22.7222L23.8389 22.9063C23.8264 22.894 23.8167 22.8791 23.8105 22.8627C23.8043 22.8462 23.8018 22.8286 23.8031 22.8111C23.8044 22.7935 23.8095 22.7765 23.818 22.7612C23.8266 22.7458 23.8384 22.7325 23.8526 22.7222Z" fill="#CCCFD7"/>
<path d="M28.8989 24.8253C27.963 24.8103 27.0356 24.6446 26.1523 24.3344C25.7003 24.198 25.2928 23.9432 24.9721 23.5963C24.6351 23.1886 24.6405 22.8541 24.9669 22.4524C25.2684 22.1221 25.6502 21.8757 26.075 21.7371C26.708 21.5007 27.3695 21.3494 28.0421 21.2871C28.7263 21.2026 29.4175 21.1917 30.1039 21.2545C31.1104 21.3507 32.1011 21.512 32.995 22.0322C33.1459 22.1217 33.2858 22.2286 33.4118 22.3508C33.8625 22.7802 33.8316 23.3517 33.3492 23.752C32.7829 24.2219 32.1102 24.4481 31.4082 24.5981C30.5832 24.77 29.7413 24.8463 28.8989 24.8253Z" fill="#B9BEF2"/>
</svg>
