<svg width="26" height="30" viewBox="0 0 26 30" fill="none" xmlns="http://www.w3.org/2000/svg">
<g clip-path="url(#clip0_5868_34059)">
<path d="M12.9992 29.9776C9.31792 29.9776 5.63852 29.9607 1.95727 29.9907C1.17477 29.9964 0.103694 29.0826 0.103694 28.1406C0.103694 27.8047 0.16474 27.4632 0.0204499 27.133C-0.0757437 26.9134 0.198038 26.8027 0.209137 26.5869C0.238735 26.0916 0.283132 25.5906 0.397824 25.1102C0.494018 24.7087 0.745601 24.3559 0.91209 23.9712C1.32091 23.018 1.87772 22.1605 2.53813 21.3499C3.44642 20.2372 4.5397 19.404 5.80871 18.8036C6.88349 18.2951 8.02116 17.9817 9.21248 17.8748C11.4675 17.674 13.7262 17.7847 15.983 17.8054C17.4093 17.8185 18.8115 18.1187 20.1286 18.7342C23.0588 20.1002 24.8791 22.4044 25.6986 25.5399C25.8873 26.2623 25.9502 27.0148 25.9946 27.7634C26.0741 29.0863 25.0641 30.0189 23.808 29.9982C20.2044 29.942 16.6009 29.9776 12.9973 29.9776H12.9992Z" fill="#535DB7"/>
<path d="M13.0429 14.9719C8.96575 15.0206 5.63782 11.6281 5.68407 7.45309C5.73032 3.28934 8.68272 0 13.0484 0C17.4437 0 20.2296 3.14486 20.4461 7.04028C20.7199 11.9734 16.7852 15.0807 13.0429 14.9719Z" fill="#B9BEF2"/>
</g>
<defs>
<clipPath id="clip0_5868_34059">
<rect width="26" height="30" fill="white"/>
</clipPath>
</defs>
</svg>
