<svg width="14" height="14" viewBox="0 0 14 14" fill="none" xmlns="http://www.w3.org/2000/svg">
<circle cx="7" cy="7" r="6.25" fill="#FEC200" stroke="#FFDC04" stroke-width="1.5"/>
<path d="M10.1734 6.54582C10.4403 6.31418 10.2977 5.87557 9.94562 5.84521L8.33084 5.70596C8.1833 5.69324 8.05486 5.60005 7.997 5.46373L7.36674 3.97893C7.22877 3.65389 6.76805 3.65402 6.63025 3.97913L5.99961 5.46709C5.94172 5.60369 5.81297 5.69702 5.66514 5.70956L4.05403 5.84625C3.70146 5.87616 3.55849 6.31547 3.82593 6.54715L5.05023 7.60776C5.16245 7.70498 5.21159 7.85636 5.17786 8.00096L4.8103 9.57655C4.72991 9.92112 5.1036 10.1927 5.40653 10.0099L6.79157 9.17393C6.91869 9.0972 7.07784 9.0972 7.20496 9.17393L8.59152 10.0108C8.89423 10.1935 9.26774 9.92242 9.18788 9.57799L8.8221 8.00044C8.78864 7.85611 8.83769 7.7051 8.94958 7.60799L10.1734 6.54582ZM7.20508 8.44703C7.07791 8.37012 6.91858 8.37006 6.79135 8.44687L6.3481 8.71447C6.04512 8.89738 5.67134 8.62566 5.75186 8.28103L5.87002 7.7753C5.90379 7.63076 5.85475 7.4794 5.74262 7.38214L5.3474 7.03929C5.08049 6.80776 5.22292 6.36918 5.57494 6.33863L6.0969 6.29335C6.24468 6.28053 6.37323 6.18698 6.43088 6.05032L6.63034 5.57749C6.76778 5.25166 7.22941 5.25138 7.36725 5.57704L7.56939 6.05462C7.62714 6.19106 7.75558 6.2844 7.90318 6.29721L8.42548 6.34252C8.7775 6.37306 8.91993 6.81164 8.65302 7.04318L8.25779 7.38603C8.14567 7.48329 8.09662 7.63465 8.1304 7.77919L8.24832 8.28392C8.32888 8.6287 7.95478 8.90043 7.65182 8.7172L7.20508 8.44703Z" fill="#FFEBCF"/>
</svg>
