<svg width="158" height="120" viewBox="0 0 158 120" fill="none" xmlns="http://www.w3.org/2000/svg">
<g clip-path="url(#clip0_12603_70820)">
<path d="M35.1301 61.3651C43.9972 70.3729 55.5154 73.7052 62.1187 69.5517C62.7209 69.1727 63.2806 68.7306 63.7884 68.2327C69.9484 62.2028 67.1029 49.3557 57.4321 39.5308C47.7612 29.7059 34.9369 26.6363 28.7779 32.6662C28.3225 33.1141 27.9099 33.6033 27.5453 34.1274C23.0839 40.6055 26.1877 52.281 35.1301 61.3651Z" fill="url(#paint0_linear_12603_70820)"/>
<path d="M32.2324 64.1429C41.9074 73.9668 54.7306 77.0416 60.8896 71.0158L63.7888 68.2337C63.2811 68.7315 62.7213 69.1736 62.1192 69.5526C55.5159 73.7061 43.9976 70.3769 35.1306 61.366C26.1881 52.2809 23.0844 40.6054 27.5458 34.1272C27.9106 33.6024 28.3236 33.1125 28.7794 32.6641L25.8802 35.4462C19.7192 41.4751 22.5647 54.3232 32.2324 64.1429Z" fill="url(#paint1_linear_12603_70820)"/>
<path d="M61.2741 65.1807C66.3211 60.2397 63.813 49.5299 55.6722 41.2596C47.5314 32.9893 36.8406 30.2903 31.7936 35.2313C26.7466 40.1723 29.2547 50.8821 37.3955 59.1524C45.5363 67.4227 56.2271 70.1217 61.2741 65.1807Z" fill="url(#paint2_linear_12603_70820)"/>
<path d="M55.8063 60.1274C59.167 56.8372 57.6142 49.8248 52.3379 44.4646C47.0617 39.1045 40.0601 37.4264 36.6993 40.7165C33.3386 44.0067 34.8915 51.0191 40.1677 56.3793C45.444 61.7394 52.4456 63.4175 55.8063 60.1274Z" fill="url(#paint3_linear_12603_70820)"/>
<g clip-path="url(#clip1_12603_70820)">
<path d="M48.4714 46.4044L48.8205 47.1303C48.8342 47.1588 48.8421 47.1898 48.8437 47.2214C48.8453 47.253 48.8406 47.2846 48.8298 47.3144C48.8191 47.3441 48.8025 47.3714 48.781 47.3947C48.7596 47.418 48.7338 47.4367 48.705 47.4499L47.5171 48.0211C47.7393 48.7056 47.7001 49.4481 47.4071 50.1053C47.0682 50.821 46.5219 51.4181 45.8391 51.819C47.0195 52.2672 48.6996 53.0048 50.8796 54.032C50.9336 54.053 50.9781 54.093 51.0047 54.1445C51.0216 54.1803 51.0267 54.2205 51.0193 54.2593C51.0214 54.3043 51.0104 54.349 50.9876 54.3879C50.9648 54.4267 50.9313 54.4582 50.8911 54.4784L49.4969 55.1488C49.4644 55.1648 49.4286 55.1731 49.3924 55.1729C49.3562 55.1726 49.3205 55.164 49.2881 55.1476C47.0211 54.1082 45.2085 53.3275 43.8505 52.8057C43.7921 52.7853 43.7442 52.7426 43.7173 52.6869L43.2849 51.7878C43.2605 51.729 43.2592 51.6631 43.2814 51.6034C43.3036 51.5438 43.3476 51.4947 43.4045 51.4662L44.3285 51.0219C44.8062 50.7939 45.2258 50.4602 45.5554 50.046C45.6833 49.8751 45.7744 49.6796 45.8231 49.4718C45.8717 49.264 45.8768 49.0484 45.8381 48.8385L42.8271 50.2863C42.7982 50.3002 42.7668 50.3082 42.7348 50.3097C42.7028 50.3112 42.6708 50.3062 42.6408 50.295C42.6108 50.2838 42.5833 50.2667 42.5601 50.2447C42.5368 50.2226 42.5182 50.1961 42.5055 50.1667L42.1525 49.4325C42.1382 49.4043 42.1297 49.3735 42.1275 49.3419C42.1253 49.3103 42.1294 49.2787 42.1396 49.2487C42.1498 49.2187 42.1658 49.1911 42.1868 49.1674C42.2078 49.1438 42.2333 49.1245 42.2618 49.1108L45.1739 47.7106C44.6533 47.3109 43.8967 47.3497 42.904 47.827L41.8893 48.3149C41.8293 48.3424 41.7609 48.3452 41.6989 48.3228C41.6368 48.3004 41.586 48.2546 41.5575 48.1951L41.1033 47.2505C41.0759 47.1937 41.0723 47.1282 41.0932 47.0687C41.1141 47.0091 41.1578 46.9603 41.2146 46.9329L47.0841 44.1107C47.141 44.0833 47.2065 44.0797 47.266 44.1006C47.3256 44.1215 47.3744 44.1652 47.4018 44.2221L47.7548 44.9563C47.7691 44.9845 47.7775 45.0153 47.7797 45.0469C47.782 45.0784 47.7778 45.1101 47.7677 45.1401C47.7575 45.17 47.7414 45.1977 47.7204 45.2214C47.6994 45.245 47.6739 45.2643 47.6454 45.278L45.9955 46.0713C46.3602 46.2561 46.6776 46.5223 46.9231 46.8492L48.1358 46.2661C48.1643 46.2524 48.1952 46.2445 48.2268 46.2429C48.2585 46.2413 48.2901 46.246 48.3198 46.2567C48.3496 46.2675 48.3769 46.2841 48.4002 46.3055C48.4234 46.327 48.4422 46.3528 48.4554 46.3816L48.4714 46.4044Z" fill="url(#paint4_linear_12603_70820)"/>
</g>
<path d="M92.5201 64.6035L94.5989 84.2904L91.6512 83.1364L90.2181 82.5913L84.5737 80.3852L79.2381 83.8906L78.0892 84.6511L75.6023 86.2843L73.5234 66.5984L92.5201 64.6035Z" fill="url(#paint5_linear_12603_70820)"/>
<path d="M77.561 68.0039L79.2379 83.8907L78.0889 84.6511L77.9618 84.6645L76.2178 68.144L77.561 68.0039Z" fill="url(#paint6_linear_12603_70820)"/>
<path d="M89.9174 66.707L91.6511 83.1368L90.218 82.5918L88.5566 66.8492L89.9174 66.707Z" fill="url(#paint7_linear_12603_70820)"/>
<path d="M81.7178 69.1149C90.5027 69.1149 97.6242 62.0127 97.6242 53.2518C97.6242 44.4908 90.5027 37.3887 81.7178 37.3887C72.933 37.3887 65.8115 44.4908 65.8115 53.2518C65.8115 62.0127 72.933 69.1149 81.7178 69.1149Z" fill="url(#paint8_linear_12603_70820)"/>
<path d="M89.5401 61.0507C93.8595 56.743 93.8595 49.7589 89.5401 45.4512C85.2207 41.1436 78.2176 41.1436 73.8981 45.4512C69.5787 49.7589 69.5787 56.743 73.8981 61.0507C78.2175 65.3584 85.2207 65.3584 89.5401 61.0507Z" fill="url(#paint9_linear_12603_70820)"/>
<path d="M80.8159 46.5233C80.8562 46.334 81.1151 46.3066 81.1941 46.4834L83.0697 50.6817C83.105 50.7607 83.1872 50.8081 83.2732 50.799L87.8541 50.318C88.047 50.2978 88.1529 50.5362 88.0087 50.6658L84.5867 53.739C84.5221 53.797 84.5023 53.8901 84.5377 53.9694L86.4116 58.1648C86.4906 58.3417 86.2971 58.5164 86.1292 58.4197L82.1387 56.123C82.0637 56.0799 81.9696 56.0898 81.9052 56.1476L78.4812 59.2236C78.3371 59.353 78.1116 59.2225 78.1519 59.0331L79.1094 54.5393C79.1274 54.4544 79.0887 54.3676 79.0135 54.3243L75.0251 52.0288C74.857 51.932 74.9111 51.6768 75.1039 51.6565L79.6844 51.1756C79.7705 51.1665 79.8411 51.103 79.8591 51.0183L80.8159 46.5233Z" fill="url(#paint10_linear_12603_70820)"/>
<path d="M104.062 59.0342H27.4502V120.095H65.9139H104.062V59.0342Z" fill="url(#paint11_linear_12603_70820)"/>
<path d="M35.6342 115.68C36.6288 114.688 36.6288 113.08 35.6342 112.088C34.6396 111.096 33.027 111.096 32.0324 112.088C31.0377 113.08 31.0377 114.688 32.0324 115.68C33.027 116.672 34.6396 116.672 35.6342 115.68Z" fill="url(#paint12_linear_12603_70820)"/>
<path d="M48.9566 114.46C49.2798 113.095 48.4319 111.727 47.0629 111.405C45.6939 111.083 44.3222 111.928 43.9991 113.294C43.676 114.659 44.5238 116.027 45.8928 116.349C47.2618 116.671 48.6335 115.826 48.9566 114.46Z" fill="url(#paint13_linear_12603_70820)"/>
<path d="M60.9301 115.68C61.9247 114.688 61.9247 113.08 60.9301 112.088C59.9355 111.096 58.3229 111.096 57.3283 112.088C56.3336 113.08 56.3336 114.688 57.3283 115.68C58.3229 116.672 59.9355 116.672 60.9301 115.68Z" fill="url(#paint14_linear_12603_70820)"/>
<path d="M73.5785 115.68C74.5731 114.688 74.5731 113.08 73.5785 112.088C72.5839 111.096 70.9713 111.096 69.9767 112.088C68.9821 113.08 68.9821 114.688 69.9767 115.68C70.9713 116.672 72.5839 116.672 73.5785 115.68Z" fill="url(#paint15_linear_12603_70820)"/>
<path d="M86.9 114.46C87.2231 113.095 86.3753 111.727 85.0063 111.405C83.6373 111.083 82.2656 111.928 81.9425 113.294C81.6194 114.659 82.4672 116.027 83.8362 116.349C85.2052 116.671 86.5769 115.826 86.9 114.46Z" fill="url(#paint16_linear_12603_70820)"/>
<path d="M98.8744 115.68C99.869 114.688 99.869 113.08 98.8744 112.088C97.8798 111.096 96.2672 111.096 95.2726 112.088C94.278 113.08 94.278 114.688 95.2726 115.68C96.2672 116.672 97.8798 116.672 98.8744 115.68Z" fill="url(#paint17_linear_12603_70820)"/>
<path d="M41.1304 103.837C42.4299 103.301 43.0471 101.815 42.5088 100.519C41.9705 99.2228 40.4806 98.6074 39.1811 99.1442C37.8816 99.681 37.2645 101.167 37.8028 102.463C38.3411 103.759 39.8309 104.374 41.1304 103.837Z" fill="url(#paint18_linear_12603_70820)"/>
<path d="M54.6059 103.286C55.6005 102.294 55.6005 100.686 54.6059 99.6942C53.6112 98.7023 51.9986 98.7023 51.004 99.6942C50.0094 100.686 50.0094 102.294 51.004 103.286C51.9987 104.278 53.6112 104.278 54.6059 103.286Z" fill="url(#paint19_linear_12603_70820)"/>
<path d="M67.5619 102.495C67.8854 101.134 67.0416 99.7694 65.6772 99.4467C64.3128 99.1241 62.9445 99.9656 62.6209 101.326C62.2974 102.687 63.1412 104.052 64.5056 104.374C65.87 104.697 67.2384 103.855 67.5619 102.495Z" fill="url(#paint20_linear_12603_70820)"/>
<path d="M79.9018 103.286C80.8964 102.294 80.8964 100.686 79.9017 99.6942C78.9071 98.7023 77.2945 98.7023 76.2999 99.6942C75.3053 100.686 75.3053 102.294 76.2999 103.286C77.2945 104.278 78.9071 104.278 79.9018 103.286Z" fill="url(#paint21_linear_12603_70820)"/>
<path d="M92.5502 103.286C93.5448 102.294 93.5448 100.686 92.5502 99.6942C91.5556 98.7023 89.943 98.7023 88.9484 99.6942C87.9538 100.686 87.9538 102.294 88.9484 103.286C89.943 104.278 91.5556 104.278 92.5502 103.286Z" fill="url(#paint22_linear_12603_70820)"/>
<path d="M104.062 99.0427V103.947C103.685 104.049 103.289 104.062 102.905 103.987C102.522 103.911 102.161 103.748 101.851 103.511C101.54 103.274 101.289 102.969 101.116 102.619C100.943 102.27 100.853 101.885 100.853 101.495C100.853 101.105 100.943 100.72 101.116 100.371C101.289 100.021 101.54 99.7159 101.851 99.4787C102.161 99.2416 102.522 99.0789 102.905 99.0033C103.289 98.9277 103.685 98.9411 104.062 99.0427Z" fill="url(#paint23_linear_12603_70820)"/>
<path d="M30.3763 101.49C30.3764 101.824 30.3106 102.154 30.1827 102.462C30.0547 102.771 29.8671 103.051 29.6306 103.286C29.3941 103.522 29.1132 103.709 28.8042 103.837C28.4951 103.965 28.1639 104.03 27.8294 104.03C27.7025 104.03 27.5758 104.02 27.4502 104.002V98.978C27.5758 98.9599 27.7025 98.9506 27.8294 98.9502C28.1639 98.9501 28.4951 99.0157 28.8042 99.1433C29.1132 99.2709 29.3941 99.4579 29.6306 99.6938C29.8671 99.9297 30.0547 100.21 30.1827 100.518C30.3106 100.826 30.3764 101.157 30.3763 101.49Z" fill="url(#paint24_linear_12603_70820)"/>
<path d="M48.1205 89.3937C49.1151 88.4018 49.1151 86.7936 48.1205 85.8016C47.1259 84.8097 45.5133 84.8097 44.5187 85.8016C43.5241 86.7936 43.5241 88.4018 44.5187 89.3937C45.5133 90.3856 47.1259 90.3856 48.1205 89.3937Z" fill="url(#paint25_linear_12603_70820)"/>
<path d="M61.443 88.1763C61.7661 86.8111 60.9182 85.4431 59.5492 85.1208C58.1803 84.7986 56.8085 85.6442 56.4854 87.0094C56.1623 88.3747 57.0102 89.7427 58.3792 90.0649C59.7481 90.3871 61.1198 89.5416 61.443 88.1763Z" fill="url(#paint26_linear_12603_70820)"/>
<path d="M74.0904 88.1753C74.4135 86.8101 73.5657 85.4421 72.1967 85.1199C70.8277 84.7976 69.456 85.6432 69.1329 87.0084C68.8098 88.3737 69.6576 89.7417 71.0266 90.0639C72.3956 90.3862 73.7673 89.5406 74.0904 88.1753Z" fill="url(#paint27_linear_12603_70820)"/>
<path d="M86.0648 89.3946C87.0594 88.4027 87.0594 86.7945 86.0648 85.8026C85.0702 84.8107 83.4576 84.8107 82.463 85.8026C81.4684 86.7945 81.4684 88.4027 82.463 89.3947C83.4576 90.3866 85.0702 90.3866 86.0648 89.3946Z" fill="url(#paint28_linear_12603_70820)"/>
<path d="M99.3863 88.1753C99.7094 86.8101 98.8616 85.4421 97.4926 85.1199C96.1236 84.7976 94.7519 85.6432 94.4288 87.0084C94.1057 88.3737 94.9535 89.7417 96.3225 90.0639C97.6915 90.3862 99.0632 89.5406 99.3863 88.1753Z" fill="url(#paint29_linear_12603_70820)"/>
<path d="M36.4703 88.1753C36.7934 86.8101 35.9456 85.4421 34.5766 85.1199C33.2076 84.7976 31.8359 85.6432 31.5128 87.0084C31.1897 88.3737 32.0375 89.7417 33.4065 90.0639C34.7755 90.3862 36.1472 89.5406 36.4703 88.1753Z" fill="url(#paint30_linear_12603_70820)"/>
<path d="M40.9703 75.895C42.2698 75.3582 42.8869 73.8724 42.3486 72.5764C41.8103 71.2804 40.3205 70.665 39.021 71.2018C37.7214 71.7387 37.1043 73.2244 37.6426 74.5204C38.1809 75.8164 39.6707 76.4319 40.9703 75.895Z" fill="url(#paint31_linear_12603_70820)"/>
<path d="M54.4437 75.3439C55.4384 74.352 55.4384 72.7437 54.4437 71.7518C53.4491 70.7599 51.8365 70.7599 50.8419 71.7518C49.8473 72.7437 49.8473 74.352 50.8419 75.3439C51.8365 76.3358 53.4491 76.3358 54.4437 75.3439Z" fill="url(#paint32_linear_12603_70820)"/>
<path d="M67.7662 74.1255C68.0893 72.7603 67.2415 71.3923 65.8725 71.0701C64.5035 70.7478 63.1318 71.5934 62.8087 72.9586C62.4856 74.3239 63.3334 75.6919 64.7024 76.0141C66.0714 76.3363 67.4431 75.4908 67.7662 74.1255Z" fill="url(#paint33_linear_12603_70820)"/>
<path d="M79.7406 75.3439C80.7352 74.352 80.7352 72.7437 79.7406 71.7518C78.746 70.7599 77.1334 70.7599 76.1388 71.7518C75.1442 72.7437 75.1442 74.352 76.1388 75.3439C77.1334 76.3358 78.746 76.3358 79.7406 75.3439Z" fill="url(#paint34_linear_12603_70820)"/>
<path d="M92.3891 75.3439C93.3837 74.352 93.3837 72.7437 92.3891 71.7518C91.3944 70.7599 89.7819 70.7599 88.7872 71.7518C87.7926 72.7437 87.7926 74.352 88.7872 75.3439C89.7819 76.3358 91.3944 76.3358 92.3891 75.3439Z" fill="url(#paint35_linear_12603_70820)"/>
<path d="M104.062 71.1458V75.9506C103.796 76.0425 103.517 76.0891 103.236 76.0887C102.867 76.0872 102.502 76.0057 102.168 75.8499C101.834 75.6942 101.537 75.4678 101.299 75.1865C101.061 74.9052 100.888 74.5757 100.79 74.2209C100.692 73.866 100.673 73.4942 100.734 73.1312C100.795 72.7682 100.934 72.4227 101.141 72.1185C101.349 71.8144 101.621 71.559 101.937 71.3699C102.254 71.1807 102.608 71.0625 102.975 71.0233C103.342 70.984 103.713 71.0248 104.062 71.1427V71.1458Z" fill="url(#paint36_linear_12603_70820)"/>
<path d="M30.2161 73.549C30.2156 74.2225 29.9471 74.8682 29.4695 75.3444C28.992 75.8206 28.3445 76.0884 27.6692 76.0889C27.5961 76.0892 27.523 76.0857 27.4502 76.0786V71.0163C27.523 71.0086 27.5961 71.0052 27.6692 71.006C28.004 71.006 28.3354 71.0718 28.6446 71.1996C28.9538 71.3274 29.2347 71.5148 29.4712 71.751C29.7078 71.9872 29.8953 72.2675 30.0231 72.5761C30.1509 72.8846 30.2165 73.2152 30.2161 73.549Z" fill="url(#paint37_linear_12603_70820)"/>
<path d="M48.8661 59.0342C48.8527 59.6988 48.5785 60.3317 48.1025 60.797C47.6264 61.2623 46.9864 61.523 46.3198 61.523C45.6532 61.523 45.0132 61.2623 44.5371 60.797C44.061 60.3317 43.7869 59.6988 43.7734 59.0342H48.8661Z" fill="url(#paint38_linear_12603_70820)"/>
<path d="M61.5146 59.0342C61.5146 59.7078 61.2463 60.3539 60.7687 60.8302C60.291 61.3065 59.6432 61.5741 58.9678 61.5741C58.2923 61.5741 57.6445 61.3065 57.1669 60.8302C56.6892 60.3539 56.4209 59.7078 56.4209 59.0342H61.5146Z" fill="url(#paint39_linear_12603_70820)"/>
<path d="M74.1621 59.0342C74.1621 59.7078 73.8938 60.3539 73.4161 60.8302C72.9385 61.3065 72.2907 61.5741 71.6152 61.5741C70.9398 61.5741 70.292 61.3065 69.8143 60.8302C69.3367 60.3539 69.0684 59.7078 69.0684 59.0342H74.1621Z" fill="url(#paint40_linear_12603_70820)"/>
<path d="M86.8105 59.0342C86.797 59.6988 86.5229 60.3317 86.0468 60.797C85.5707 61.2623 84.9307 61.523 84.2641 61.523C83.5975 61.523 82.9575 61.2623 82.4814 60.797C82.0054 60.3317 81.7312 59.6988 81.7178 59.0342H86.8105Z" fill="url(#paint41_linear_12603_70820)"/>
<path d="M99.457 59.0342C99.4435 59.6988 99.1694 60.3317 98.6933 60.797C98.2172 61.2623 97.5772 61.523 96.9106 61.523C96.244 61.523 95.604 61.2623 95.1279 60.797C94.6519 60.3317 94.3777 59.6988 94.3643 59.0342H99.457Z" fill="url(#paint42_linear_12603_70820)"/>
<path d="M36.541 59.0342C36.541 59.7078 36.2727 60.3539 35.795 60.8302C35.3174 61.3065 34.6696 61.5741 33.9941 61.5741C33.3187 61.5741 32.6709 61.3065 32.1932 60.8302C31.7156 60.3539 31.4473 59.7078 31.4473 59.0342H36.541Z" fill="url(#paint43_linear_12603_70820)"/>
<path d="M73.6684 59.0957H58.1592V120.096H73.6684V59.0957Z" fill="url(#paint44_linear_12603_70820)"/>
<path d="M112.304 9.5005C95.721 11.4634 111.653 48.7682 111.984 49.505C111.984 49.5008 135.249 6.78126 112.304 9.5005ZM111.973 44.0335C111.739 43.5101 106.847 16.058 112.032 17.956C118.918 20.4723 111.973 44.0294 111.973 44.0294V44.0335Z" fill="url(#paint45_linear_12603_70820)"/>
<path d="M111.083 51.177C111.651 51.7509 140.708 80.1139 148.569 65.4203C159.446 45.0904 111.083 51.177 111.083 51.177ZM116.195 53.175C116.195 53.175 140.725 55.2863 140.579 62.599C140.46 68.1076 116.594 53.583 116.195 53.175Z" fill="url(#paint46_linear_12603_70820)"/>
<path d="M88.9424 32.6379C88.3178 33.6003 87.4859 34.4117 86.5071 35.013L85.0957 32.3555L85.1722 32.3102C86.0463 31.7734 86.2054 31.116 86.1785 30.6615C86.1527 30.1566 85.9037 29.7342 85.6826 29.3684C85.2869 28.7027 85.0957 28.3205 85.4573 27.6002C85.5958 27.323 86.2291 27.018 87.1291 26.9954C88.0765 26.9717 89.3784 27.288 89.9187 28.2535C90.4591 29.219 90.1295 30.7852 88.9424 32.6379Z" fill="url(#paint47_linear_12603_70820)"/>
<path d="M107.774 43.1948L94.5359 50.1685L87.4574 36.8062C88.7462 36.0386 89.8395 34.9842 90.6521 33.7253C92.7185 30.5043 92.3589 28.428 91.6956 27.2534C90.7078 25.5068 88.6652 24.9267 87.0813 24.9659C85.4509 25.005 84.1645 25.65 83.6448 26.6877C83.1912 27.5893 83.1768 28.3683 83.3255 29.003L81.9441 26.3992L81.0142 24.6413L77.9404 18.838L91.179 11.8643L107.774 43.1948Z" fill="url(#paint48_linear_12603_70820)"/>
<path d="M114.388 55.6944L101.149 62.667L117.744 94.0021L130.982 87.0294L114.388 55.6944Z" fill="url(#paint49_linear_12603_70820)"/>
<path d="M116.2 44.4872C116.2 44.4872 140.221 31.0291 144.488 11.1206C144.488 11.1206 139.761 16.7879 136.951 17.5803C136.951 17.5803 134.203 5.00931 131.753 1C131.753 1 135.266 23.5195 114.722 42.6799L116.2 44.4872Z" fill="url(#paint50_linear_12603_70820)"/>
<path d="M118.321 47.267C118.321 47.267 138.122 34.084 155.169 38.6024C155.169 38.6024 148.936 40.013 147.229 41.8626C147.229 41.8626 155.857 48.8941 157.999 52.3469C157.999 52.3469 142.439 40.7889 119.595 49.0682L118.321 47.267Z" fill="url(#paint51_linear_12603_70820)"/>
<path d="M112.35 51.9604L110.629 48.7105C110.629 48.7105 111.375 46.0315 112.19 44.2623C113.031 42.4756 116.633 41.7028 118.208 44.4993C119.77 47.2711 112.35 51.9604 112.35 51.9604Z" fill="url(#paint52_linear_12603_70820)"/>
<path d="M113.463 54.062L111.948 51.2037C111.948 51.2037 114.4 48.8492 115.924 47.7003C117.448 46.5514 121.023 47.3273 121.238 50.2763C121.416 52.6864 115.563 53.7684 113.463 54.062Z" fill="url(#paint53_linear_12603_70820)"/>
<path d="M107.776 43.2051L94.5371 50.1777L101.151 62.6667L114.389 55.6941L107.776 43.2051Z" fill="url(#paint54_linear_12603_70820)"/>
<path d="M101.344 90.0791C104.336 87.0949 104.336 82.2566 101.344 79.2724C98.3517 76.2883 93.5002 76.2883 90.5079 79.2724C87.5156 82.2566 87.5156 87.0949 90.5079 90.0791C93.5002 93.0633 98.3517 93.0633 101.344 90.0791Z" fill="url(#paint55_linear_12603_70820)"/>
<path d="M99.6936 88.4332C101.774 86.358 101.774 82.9935 99.6936 80.9184C97.6128 78.8432 94.2391 78.8432 92.1583 80.9184C90.0775 82.9935 90.0775 86.358 92.1583 88.4332C94.2391 90.5084 97.6128 90.5084 99.6936 88.4332Z" fill="url(#paint56_linear_12603_70820)"/>
<path d="M96.92 81.2676L97.0006 83.8457L99.4844 84.5649L97.0512 85.4387L97.1318 88.0167L95.5469 85.9786L93.1136 86.8524L94.5674 84.7184L92.9824 82.6813L95.4663 83.4005L96.92 81.2676Z" fill="url(#paint57_linear_12603_70820)"/>
<path d="M100.496 120.091C100.496 120.381 100.656 120.454 100.977 120.454C101.297 120.454 102.178 120.526 102.338 120.454C102.498 120.382 102.899 120.145 102.899 120.309C102.899 120.526 103.22 120.526 103.38 120.454C103.54 120.382 103.54 119.218 103.54 119.218H102.338C102.338 119.218 101.937 119.291 101.858 119.581C101.778 119.872 100.496 119.8 100.496 120.091Z" fill="url(#paint58_linear_12603_70820)"/>
<path d="M106.557 120.091C106.557 120.381 106.717 120.454 107.037 120.454C107.357 120.454 108.239 120.526 108.399 120.454C108.559 120.382 108.959 120.145 108.959 120.309C108.959 120.526 109.279 120.526 109.439 120.454C109.599 120.382 109.599 119.218 109.599 119.218H108.399C108.399 119.218 107.998 119.291 107.918 119.581C107.839 119.872 106.557 119.8 106.557 120.091Z" fill="url(#paint59_linear_12603_70820)"/>
<path d="M105.514 85.6746C105.553 85.6747 105.591 85.6654 105.625 85.6474C105.66 85.6295 105.689 85.6034 105.711 85.5715C105.841 85.4015 105.856 85.0718 105.917 84.9533C105.978 84.8348 105.947 84.7596 105.962 84.6617C105.968 84.6241 105.98 84.5876 105.997 84.5535C106.078 84.3938 106.317 83.7549 105.997 83.7549C105.677 83.7549 105.917 84.6339 105.757 84.5535C105.597 84.4731 105.677 83.5159 105.597 83.1965C105.518 82.877 105.277 83.0367 105.277 83.5159C105.277 83.5159 105.277 83.6035 105.271 83.7436C105.258 84.3 105.259 85.6746 105.514 85.6746Z" fill="url(#paint60_linear_12603_70820)"/>
<path d="M104.554 82.7984C105.115 83.1982 105.115 83.1982 104.955 83.3579C104.795 83.5176 105.265 83.7453 105.265 83.7453C105.265 83.6052 105.271 83.5176 105.271 83.5176C105.271 83.0385 105.511 82.8787 105.591 83.1982C105.672 83.5176 105.591 84.4759 105.751 84.5552C105.912 84.6346 105.671 83.7566 105.991 83.7566C106.311 83.7566 106.072 84.3955 105.991 84.5552C105.974 84.5893 105.962 84.6258 105.956 84.6634C105.956 84.6634 106.151 85.2744 106.232 85.6742H106.955C106.955 85.6742 108.402 83.6773 108.157 82.8787C107.912 82.0802 107.275 81.2012 106.154 81.5207C105.033 81.8401 104.713 81.6 104.553 81.4403C104.393 81.2806 103.993 82.3996 104.554 82.7984Z" fill="url(#paint61_linear_12603_70820)"/>
<path d="M105.711 85.5718C105.77 85.834 105.775 86.1051 105.728 86.3694C106.115 86.2095 106.538 86.1558 106.953 86.2138C106.879 85.7522 106.953 85.6749 106.953 85.6749H106.23C106.149 85.2751 105.954 84.6641 105.954 84.6641C105.94 84.762 105.97 84.8361 105.91 84.9557C105.85 85.0752 105.835 85.4018 105.703 85.5739L105.711 85.5718Z" fill="url(#paint62_linear_12603_70820)"/>
<path d="M105.967 104.083L107.25 110.633L108.374 119.219H109.6C109.67 117.756 109.279 110.633 109.279 110.633C109.6 106.924 109.6 99.945 109.6 99.945C109.6 99.945 109.585 99.3422 109.556 98.3994C108.204 100.192 107.004 102.093 105.967 104.083Z" fill="url(#paint63_linear_12603_70820)"/>
<path d="M109.556 98.4034H102.894C103.557 94.3931 104.306 91.3224 104.327 91.2369C104.277 91.2895 102.261 92.6908 101.255 93.2091C100.739 93.475 98.945 93.849 98.0523 93.8335C97.5646 93.8243 97.0811 93.7913 96.6657 93.7532C96.4136 93.7305 96.1863 93.7058 95.9993 93.6841C95.6666 93.6439 95.46 93.612 95.46 93.612L95.7906 92.6692C95.9631 92.6692 96.1305 92.6754 96.2938 92.6692C96.5366 92.6692 96.7701 92.6496 96.9922 92.6269C97.5011 92.5768 98.0033 92.4732 98.4904 92.3178C100.28 91.749 101.044 90.6826 101.044 90.6826C101.044 90.6826 103.739 87.5913 104.046 87.2225C104.221 87.0473 104.428 86.9074 104.657 86.8103C104.697 86.7897 104.738 86.7701 104.779 86.7526C105.132 86.5918 105.468 86.4816 105.468 86.4816C105.535 86.4436 105.604 86.4092 105.674 86.3786L105.728 86.3549C105.812 86.3211 105.898 86.2919 105.985 86.2673C106.048 86.2498 106.108 86.2353 106.167 86.224L106.197 86.2188H106.205C106.219 86.2151 106.232 86.2124 106.246 86.2106L106.324 86.1993L106.41 86.189C106.457 86.189 106.502 86.1807 106.545 86.1797H106.733H106.779H106.819H106.856C106.869 86.1797 106.88 86.1797 106.891 86.1797L106.951 86.1879C107.017 86.1993 107.055 86.2085 107.055 86.2085C107.055 86.2085 108.143 86.6578 108.731 87.6058C109.188 88.3662 109.456 95.2658 109.556 98.4034Z" fill="url(#paint64_linear_12603_70820)"/>
<path d="M101.884 109.022L102.312 119.223H103.54C103.54 119.223 103.858 109.893 104.394 107.962C104.752 106.669 105.324 105.334 105.966 104.088C107.003 102.099 108.204 100.199 109.555 98.4082H102.894C102.35 101.686 101.867 105.598 101.884 109.022Z" fill="url(#paint65_linear_12603_70820)"/>
<path d="M95.788 92.6691L95.4574 93.6119C95.4574 93.6119 94.5275 93.039 94.4428 92.8772C94.3581 92.7155 94.1328 92.1055 94.1328 92.1055C94.4413 92.1806 94.7543 92.236 95.0699 92.2713C95.0699 92.2713 94.8767 91.9097 95.1123 91.8386C95.3479 91.7675 95.5256 92.2219 95.5452 92.3115C95.5456 92.3146 95.5456 92.3177 95.5452 92.3208C95.5525 92.3816 95.788 92.6691 95.788 92.6691Z" fill="url(#paint66_linear_12603_70820)"/>
<path d="M104.44 85.0053L103.868 85.4041C103.765 85.3589 103.665 85.3076 103.568 85.2505C103.465 85.1887 103.37 85.1186 103.354 85.0589C103.315 84.9198 103.126 84.3963 103.278 84.3737C103.43 84.351 103.588 84.6642 103.588 84.6642C103.587 84.1737 103.539 83.6845 103.444 83.2031C103.593 83.2861 103.718 83.4056 103.808 83.5504C103.925 83.7637 104.44 85.0053 104.44 85.0053Z" fill="url(#paint67_linear_12603_70820)"/>
<path d="M105.728 86.369L105.674 86.3927C105.603 86.4233 105.534 86.4577 105.467 86.4957C105.467 86.4957 105.132 86.606 104.778 86.7667C104.738 86.7842 104.697 86.8038 104.656 86.8244L103.87 85.4066L104.443 85.0078L105.728 86.369Z" fill="url(#paint68_linear_12603_70820)"/>
<path d="M125.59 102.808H108.379V119.972H125.59V102.808Z" fill="url(#paint69_linear_12603_70820)"/>
<path d="M126.442 98.3535H107.526V102.807H126.442V98.3535Z" fill="url(#paint70_linear_12603_70820)"/>
<path d="M118.116 98.3535H116.069V119.971H118.116V98.3535Z" fill="url(#paint71_linear_12603_70820)"/>
<path d="M118.768 98.3538H115.204C115.204 98.3538 115.166 96.9287 115.791 96.7731C116.058 96.7026 116.312 96.5898 116.544 96.4393C116.676 96.3589 116.828 96.3164 116.983 96.3164C117.138 96.3164 117.29 96.3589 117.422 96.4393C117.656 96.5886 117.912 96.7012 118.18 96.7731C118.478 96.8473 118.627 97.2183 118.697 97.582C118.746 97.8362 118.77 98.0948 118.768 98.3538Z" fill="url(#paint72_linear_12603_70820)"/>
<path d="M127.647 95.5636C126.114 96.2086 122.988 97.1514 118.693 97.5821C118.626 97.2184 118.477 96.8475 118.177 96.7733L124.421 90.8876C124.523 90.7917 124.644 90.7189 124.777 90.6739C124.909 90.6289 125.049 90.6129 125.189 90.627C125.328 90.6411 125.462 90.6849 125.583 90.7555C125.703 90.8261 125.807 90.9217 125.888 91.036L128.057 94.1159C128.141 94.2334 128.198 94.3683 128.223 94.5106C128.247 94.6529 128.24 94.7989 128.2 94.9378C128.161 95.0768 128.091 95.2051 127.995 95.3134C127.899 95.4217 127.78 95.5072 127.647 95.5636Z" fill="url(#paint73_linear_12603_70820)"/>
<path d="M120.809 96.9328C120.809 96.9328 125.742 93.7983 127.008 94.3341C128.274 94.8699 120.809 96.9328 120.809 96.9328Z" fill="url(#paint74_linear_12603_70820)"/>
<path d="M106.313 95.5636C107.847 96.2086 110.973 97.1514 115.267 97.5821C115.334 97.2184 115.483 96.8475 115.784 96.7733L109.539 90.8876C109.437 90.7917 109.316 90.7189 109.184 90.6739C109.052 90.6289 108.911 90.6129 108.772 90.627C108.633 90.6411 108.498 90.6849 108.378 90.7555C108.257 90.8261 108.153 90.9217 108.073 91.036L105.903 94.1159C105.819 94.2334 105.763 94.3683 105.738 94.5106C105.713 94.6529 105.721 94.7989 105.76 94.9378C105.799 95.0768 105.87 95.2051 105.965 95.3134C106.061 95.4217 106.18 95.5072 106.313 95.5636Z" fill="url(#paint75_linear_12603_70820)"/>
<path d="M113.152 96.9328C113.152 96.9328 108.219 93.7983 106.953 94.3341C105.687 94.8699 113.152 96.9328 113.152 96.9328Z" fill="url(#paint76_linear_12603_70820)"/>
<path d="M139.824 107.656H122.612V119.972H139.824V107.656Z" fill="url(#paint77_linear_12603_70820)"/>
<path d="M140.675 104.461H121.759V107.656H140.675V104.461Z" fill="url(#paint78_linear_12603_70820)"/>
<path d="M132.35 104.461H130.303V119.972H132.35V104.461Z" fill="url(#paint79_linear_12603_70820)"/>
<path d="M133.002 104.461H129.437C129.437 104.461 129.4 103.035 130.025 102.879C130.292 102.809 130.545 102.696 130.776 102.545C130.908 102.465 131.06 102.423 131.215 102.423C131.37 102.423 131.522 102.465 131.654 102.545C131.889 102.695 132.145 102.807 132.414 102.879C132.711 102.953 132.86 103.324 132.93 103.688C132.98 103.942 133.003 104.201 133.002 104.461Z" fill="url(#paint80_linear_12603_70820)"/>
<path d="M141.881 101.67C140.347 102.316 137.221 103.259 132.927 103.688C132.86 103.325 132.711 102.954 132.41 102.88L138.655 96.9939C138.757 96.8984 138.878 96.8258 139.01 96.7811C139.142 96.7363 139.283 96.7204 139.422 96.7345C139.561 96.7485 139.695 96.7922 139.816 96.8626C139.937 96.933 140.041 97.0284 140.121 97.1423L142.291 100.222C142.375 100.34 142.431 100.475 142.456 100.617C142.481 100.759 142.473 100.905 142.434 101.044C142.394 101.183 142.324 101.311 142.229 101.42C142.133 101.528 142.014 101.614 141.881 101.67Z" fill="url(#paint81_linear_12603_70820)"/>
<path d="M135.042 103.039C135.042 103.039 139.976 99.9055 141.241 100.44C142.507 100.975 135.042 103.039 135.042 103.039Z" fill="url(#paint82_linear_12603_70820)"/>
<path d="M120.547 101.67C122.081 102.316 125.206 103.259 129.501 103.688C129.567 103.325 129.716 102.954 130.018 102.88L123.773 96.9939C123.671 96.8984 123.55 96.8258 123.418 96.7811C123.285 96.7363 123.145 96.7204 123.006 96.7345C122.867 96.7485 122.733 96.7922 122.612 96.8626C122.491 96.933 122.387 97.0284 122.307 97.1423L120.137 100.222C120.053 100.34 119.996 100.475 119.971 100.617C119.947 100.759 119.954 100.905 119.993 101.044C120.033 101.183 120.103 101.312 120.199 101.42C120.295 101.528 120.414 101.614 120.547 101.67Z" fill="url(#paint83_linear_12603_70820)"/>
<path d="M127.386 103.039C127.386 103.039 122.452 99.9055 121.186 100.44C119.921 100.975 127.386 103.039 127.386 103.039Z" fill="url(#paint84_linear_12603_70820)"/>
<path d="M25.682 107.784H8.4707V120.1H25.682V107.784Z" fill="url(#paint85_linear_12603_70820)"/>
<path d="M26.5333 104.589H7.61719V107.784H26.5333V104.589Z" fill="url(#paint86_linear_12603_70820)"/>
<path d="M18.2079 104.589H16.1611V120.1H18.2079V104.589Z" fill="url(#paint87_linear_12603_70820)"/>
<path d="M18.8599 104.589H15.2953C15.2953 104.589 15.2581 103.164 15.8832 103.008C16.1501 102.938 16.4038 102.825 16.6344 102.674C16.7668 102.594 16.9187 102.552 17.0735 102.552C17.2283 102.552 17.3802 102.594 17.5126 102.674C17.7467 102.824 18.003 102.937 18.272 103.008C18.5696 103.082 18.7184 103.454 18.7886 103.818C18.838 104.072 18.8619 104.33 18.8599 104.589Z" fill="url(#paint88_linear_12603_70820)"/>
<path d="M27.7379 101.798C26.2057 102.444 23.0792 103.387 18.7852 103.818C18.718 103.454 18.5692 103.082 18.2686 103.008L24.5174 97.1219C24.6193 97.0264 24.7405 96.9538 24.8729 96.909C25.0053 96.8642 25.1458 96.8483 25.2849 96.8624C25.424 96.8765 25.5585 96.9202 25.6792 96.9905C25.7999 97.0609 25.9041 97.1563 25.9846 97.2703L28.1543 100.351C28.2382 100.469 28.2944 100.604 28.3187 100.747C28.343 100.889 28.3349 101.035 28.2949 101.174C28.2549 101.313 28.1841 101.442 28.0877 101.549C27.9913 101.657 27.8717 101.742 27.7379 101.798Z" fill="url(#paint89_linear_12603_70820)"/>
<path d="M20.416 102.547C20.416 102.547 25.3496 99.4134 26.6153 99.9481C27.881 100.483 20.416 102.547 20.416 102.547Z" fill="url(#paint90_linear_12603_70820)"/>
<path d="M6.40587 101.798C7.93916 102.444 11.0646 103.387 15.3597 103.817C15.4258 103.454 15.5746 103.082 15.8763 103.008L9.63259 97.1219C9.53084 97.0264 9.4097 96.9537 9.27737 96.909C9.14503 96.8642 9.0046 96.8483 8.86558 96.8624C8.72655 96.8765 8.59218 96.9202 8.47156 96.9905C8.35094 97.0609 8.24689 97.1563 8.16646 97.2703L5.99671 100.351C5.91247 100.469 5.85578 100.603 5.83084 100.746C5.8059 100.888 5.81335 101.034 5.85264 101.173C5.89193 101.311 5.96206 101.44 6.05782 101.548C6.15358 101.656 6.27254 101.742 6.40587 101.798Z" fill="url(#paint91_linear_12603_70820)"/>
<path d="M12.7596 102.547C12.7596 102.547 7.82497 99.4134 6.56031 99.9481C5.29566 100.483 12.7596 102.547 12.7596 102.547Z" fill="url(#paint92_linear_12603_70820)"/>
<path d="M11.8798 68.665L13.256 69.2524L8.13233 70.7351V70.8691L6.37793 70.1787L6.60627 70.1159L11.8798 68.665Z" fill="url(#paint93_linear_12603_70820)"/>
<path d="M20.0957 67.2718L15.3492 68.6453L14.0215 68.0755L18.7991 66.7617L20.0957 67.2718Z" fill="url(#paint94_linear_12603_70820)"/>
<path d="M6.37793 82.3334L8.13233 83.1907V70.8691L6.37793 70.1787V82.3334Z" fill="url(#paint95_linear_12603_70820)"/>
<path d="M12.438 72.5648L9.57497 71.4375L9.50781 83.8611L12.5372 85.3408L12.438 72.5648Z" fill="url(#paint96_linear_12603_70820)"/>
<path d="M17.3752 71.0253V71.0088L12.5491 72.5286L12.4375 72.5647L12.4551 74.9418L12.5367 85.3407L17.5684 83.1892L17.4124 73.3066L17.3752 71.0253Z" fill="url(#paint97_linear_12603_70820)"/>
<path d="M20.4183 70.0498L19.3789 70.3775V82.4147L24.1183 80.3889L24.1503 70.9823L24.1575 68.8721L20.4183 70.0498Z" fill="url(#paint98_linear_12603_70820)"/>
<path d="M12.4351 72.6196L9.52246 71.4727V71.2821L14.5997 69.7705L17.5237 71.0163L12.4351 72.6196ZM9.62682 71.4027L12.4392 72.5104L12.5343 72.4805L17.2271 71.0018L14.5955 69.8828L9.62682 71.3625V71.4027Z" fill="url(#paint99_linear_12603_70820)"/>
<path d="M19.376 70.4328L19.3574 70.4246L16.5088 69.2005L21.4197 67.7373L24.3127 68.8759L19.376 70.4328ZM16.8115 69.218L19.3832 70.3226L24.0037 68.8666L21.4207 67.8465L16.8115 69.218Z" fill="url(#paint100_linear_12603_70820)"/>
<path d="M19.3788 70.3771V82.4164L17.5686 83.1892L17.4125 73.3066L17.3754 71.0253V71.0088L14.5981 69.8248L13.2559 69.2519L11.8797 68.6646L11.2598 68.3998L13.413 67.8135L14.0215 68.0752L15.3492 68.645L16.6604 69.2097L19.3788 70.3771Z" fill="url(#paint101_linear_12603_70820)"/>
<path d="M17.3755 71.0254L17.4127 73.3067L12.5566 74.9821L12.6104 72.5535L17.3755 71.0254Z" fill="url(#paint102_linear_12603_70820)"/>
<path d="M24.6235 68.7021V70.8196L24.1503 70.9824L19.3789 72.629V70.3838L20.4183 70.0499L24.1286 68.8608L24.6235 68.7021Z" fill="url(#paint103_linear_12603_70820)"/>
<path d="M14.5985 69.8245L17.3758 71.0084V71.0249L12.6106 72.553L12.5496 72.5282L9.57602 71.3206L8.13262 70.7343L6.60657 70.115L5.94531 69.8461L11.2602 68.3994L11.8801 68.6642L13.2563 69.2516L14.5985 69.8245Z" fill="url(#paint104_linear_12603_70820)"/>
<path d="M21.8898 67.6528L21.4177 67.7919L16.6608 69.2097L15.3496 68.6451L20.0962 67.2715L20.556 67.1396L21.8898 67.6528Z" fill="url(#paint105_linear_12603_70820)"/>
<path d="M20.0959 67.2713L15.3493 68.6448L14.0216 68.075L13.4131 67.8133L18.6205 66.3965L20.5557 67.1394L20.0959 67.2713Z" fill="url(#paint106_linear_12603_70820)"/>
<path d="M24.6231 68.7013L24.1282 68.86L20.418 70.0491L19.3785 70.3829V70.3767L16.6602 69.2093L21.4171 67.7915L21.8892 67.6523L24.6231 68.7013Z" fill="url(#paint107_linear_12603_70820)"/>
<path d="M12.6106 72.5536L12.5568 74.9822L5.94531 72.3691V69.8467L12.6106 72.5536Z" fill="url(#paint108_linear_12603_70820)"/>
<path d="M13.2565 69.252L14.5987 69.8249L9.57621 71.321L9.57518 71.4374L9.56278 73.7981L9.50802 83.861L8.13281 83.1902V70.7347L13.2565 69.252Z" fill="url(#paint109_linear_12603_70820)"/>
<path d="M13.9536 68.1443C13.9536 68.1443 11.9347 62.2709 7.66963 60.5059C7.66963 60.5059 8.74107 61.7867 8.80617 62.442C8.80617 62.442 5.89147 62.5378 4.89648 62.916C4.89648 62.916 9.9737 62.9768 13.406 68.3163L13.9536 68.1443Z" fill="url(#paint110_linear_12603_70820)"/>
<path d="M14.6601 67.7867C14.6601 67.7867 12.5296 62.8573 14.2344 59.2612C14.2344 59.2612 14.2943 60.7037 14.6363 61.155C14.6363 61.155 16.5571 59.5291 17.4146 59.1973C17.4146 59.1973 14.2013 62.1751 15.1137 67.5796L14.6601 67.7867Z" fill="url(#paint111_linear_12603_70820)"/>
<path d="M15.4627 69.3038L14.6671 69.5521C14.346 69.3965 14.0354 69.2203 13.7372 69.0245C13.3735 68.7649 13.3477 67.9344 14.0358 67.6994C14.7239 67.4645 15.4627 69.3038 15.4627 69.3038Z" fill="url(#paint112_linear_12603_70820)"/>
<path d="M15.9738 69.1432L15.2743 69.3616C15.2743 69.3616 14.8496 68.7217 14.6543 68.3374C14.4591 67.953 14.7794 67.1905 15.4458 67.2637C15.9955 67.3224 15.9975 68.6651 15.9738 69.1432Z" fill="url(#paint113_linear_12603_70820)"/>
<path d="M5.99202 67.5772C5.75232 71.3351 14.7216 69.3289 14.8994 69.2836C14.8994 69.2836 6.32472 62.3778 5.99202 67.5772ZM7.86628 67.9832C8.71041 66.5592 13.6791 69.0579 13.6791 69.0579C13.5531 69.093 7.23085 69.0579 7.86628 67.9832Z" fill="url(#paint114_linear_12603_70820)"/>
<path d="M19.9447 61.8211C15.8553 58.5784 15.2354 69.5491 15.2354 69.5491C15.3872 69.4502 22.8956 64.1653 19.9447 61.8211ZM15.8894 68.5012C15.8894 68.5012 17.3638 63.1431 18.989 63.48C20.2092 63.7294 15.9979 68.4291 15.8894 68.5012Z" fill="url(#paint115_linear_12603_70820)"/>
<path d="M17.3428 87.0627C17.4241 87.155 17.4993 87.2524 17.568 87.3544C17.573 87.3594 17.5775 87.3649 17.5814 87.3708C17.8483 87.75 18.025 88.1849 18.0981 88.6424C18.1032 88.6699 18.1064 88.6978 18.1074 88.7258C18.3205 88.7347 18.531 88.6751 18.7077 88.5558C18.801 88.4826 18.8771 88.3898 18.9307 88.284C18.9842 88.1783 19.0139 88.0622 19.0176 87.9437H19.0114C18.5981 87.3482 18.5981 87.0937 18.6229 87.002C18.5935 87.0121 18.563 87.019 18.532 87.0226C18.1569 87.0493 17.4812 87.1009 17.3428 87.0627Z" fill="url(#paint116_linear_12603_70820)"/>
<path d="M16.2604 87.0487C16.3481 87.1249 16.4475 87.1865 16.5549 87.2311C16.6863 87.2912 16.8328 87.3105 16.9754 87.2867C17.1206 87.258 17.2507 87.1783 17.3422 87.0621C17.4806 87.1002 18.1563 87.0487 18.5273 87.0219C18.5582 87.0184 18.5887 87.0114 18.6182 87.0013C18.6743 86.9816 18.7245 86.9482 18.7642 86.9041C18.8039 86.86 18.8319 86.8066 18.8455 86.7489C19.1896 85.2867 17.9084 84.0286 17.9084 84.0286C17.9084 84.0286 17.213 83.9493 16.9413 84.1564C16.6695 84.3635 16.5807 84.5036 16.528 85.4444C16.4753 86.3851 17.1045 86.481 17.0663 86.5418C16.9578 86.7087 16.4898 86.007 16.1788 86.2769C15.9401 86.4892 15.9866 86.8128 16.2604 87.0487Z" fill="url(#paint117_linear_12603_70820)"/>
<path d="M15.4511 85.7505C15.5331 86.1318 15.706 86.4877 15.9553 86.7881C16.0453 86.891 16.1497 86.9806 16.2652 87.054C15.9914 86.818 15.9449 86.4945 16.1846 86.2822C16.4946 86.0122 16.9637 86.7139 17.0722 86.547C17.1104 86.4862 16.4822 86.3883 16.5339 85.4496C16.5855 84.5109 16.6754 84.3677 16.9472 84.1616C17.2189 83.9555 17.9143 84.0339 17.9143 84.0339C17.9143 84.0339 16.7591 83.3383 15.8933 84.2121C15.7221 84.3795 15.5902 84.5825 15.5069 84.8067C15.3995 85.1098 15.3802 85.4369 15.4511 85.7505Z" fill="url(#paint118_linear_12603_70820)"/>
<path d="M16.9756 87.2871C17.2639 87.316 17.4922 87.282 17.5676 87.3541C17.4989 87.2522 17.4237 87.1547 17.3424 87.0625C17.2509 87.1787 17.1208 87.2583 16.9756 87.2871Z" fill="url(#paint119_linear_12603_70820)"/>
<path d="M14.1255 94.0975C13.5345 95.6957 16.7684 94.1243 16.4864 91.8533C16.4864 91.8533 18.094 93.0022 18.0072 91.4329C17.9205 89.8636 16.8263 89.5627 15.8747 88.2562C15.0027 87.0547 14.8156 85.742 15.4511 85.7512C15.3785 85.4381 15.3961 85.111 15.5017 84.8074C15.5017 84.8074 14.3021 84.2458 13.8145 85.4689C13.3547 86.6219 14.7165 92.4932 14.1255 94.0975Z" fill="url(#paint120_linear_12603_70820)"/>
<path d="M16.8935 119.631C16.8935 119.928 16.7292 120.003 16.4017 120.003C16.0741 120.003 15.1711 120.077 15.0078 120.003C14.8446 119.928 14.4334 119.687 14.4334 119.854C14.4334 120.077 14.1059 120.077 13.9416 120.003C13.7773 119.928 13.7783 118.738 13.7783 118.738H15.0078C15.0078 118.738 15.4211 118.812 15.4997 119.11C15.5782 119.408 16.8935 119.334 16.8935 119.631Z" fill="url(#paint121_linear_12603_70820)"/>
<path d="M25.6628 119.63C25.6628 119.928 25.4985 120.002 25.171 120.002C24.8435 120.002 23.9405 120.077 23.7772 120.002C23.614 119.928 23.2058 119.687 23.2058 119.857C23.2058 120.08 22.8783 120.08 22.714 120.006C22.5497 119.931 22.5508 118.741 22.5508 118.741H23.7803C23.7803 118.741 24.1936 118.815 24.2721 119.113C24.3506 119.411 25.6628 119.334 25.6628 119.63Z" fill="url(#paint122_linear_12603_70820)"/>
<path d="M23.0807 96.9727C23.0807 96.9727 21.6414 100.464 20.4078 103.225C19.949 104.256 19.5182 105.183 19.2 105.785C18.0273 108.026 15.0816 117.407 15.0061 118.738H13.7797C13.6816 114.647 16.6603 104.179 16.6603 104.179C15.9763 101.603 17.2306 96.9727 17.2306 96.9727H23.0807Z" fill="url(#paint123_linear_12603_70820)"/>
<path d="M23.9849 106.029C23.9353 113.036 23.7783 118.738 23.7783 118.738H22.5487C22.5487 118.738 21.3089 112.026 21.4463 106.27C21.4463 106.27 20.7489 104.547 20.4131 103.223C21.6467 100.462 23.086 96.9707 23.086 96.9707C23.086 96.9707 24.0324 99.0161 23.9849 106.029Z" fill="url(#paint124_linear_12603_70820)"/>
<path d="M24.1242 79.9719C24.088 80.0193 23.4722 80.4036 23.5693 80.6828H22.7149C22.6332 80.5627 22.5734 80.4291 22.5382 80.2882C22.4886 80.0749 22.5682 79.876 22.5382 79.6978C22.5082 79.5195 22.6302 79.3433 22.7149 79.5144C22.783 79.6384 22.8324 79.7717 22.8616 79.91C22.8792 80.0193 23.0569 79.9832 23.124 79.807C23.1912 79.6308 23.5817 79.3011 23.9351 79.4443C23.9864 79.4615 24.0331 79.49 24.0717 79.5277C24.1103 79.5655 24.1398 79.6115 24.158 79.6623C24.1762 79.7131 24.1827 79.7674 24.1768 79.821C24.1709 79.8746 24.1529 79.9262 24.1242 79.9719Z" fill="url(#paint125_linear_12603_70820)"/>
<path d="M23.57 85.6748C23.3489 86.0869 21.6896 88.7433 21.8353 89.1781C21.9809 89.613 23.2425 89.985 22.3849 91.9778C21.6617 93.6604 23.2766 95.069 23.0813 96.9701H17.2313C17.4949 96.2397 17.7042 95.491 17.8574 94.73C17.9213 94.4109 17.9463 94.0854 17.9318 93.7604C17.9123 93.2414 17.8094 92.729 17.627 92.2426C17.3532 91.5151 16.8924 90.8814 16.2394 90.5723C16.0327 90.4692 15.8261 90.3817 15.6195 90.2982C15.0646 90.0622 14.5408 89.8634 14.0107 89.5769C13.391 89.2448 12.8236 88.8237 12.3266 88.327C10.9359 86.9617 9.8252 84.9205 9.8252 84.9205L10.4524 84.3188L10.4844 84.2878C10.4844 84.2878 10.5143 84.3188 10.566 84.3754C10.9648 84.802 12.7358 86.6629 13.7059 87.1575C13.7245 87.1668 13.7431 87.175 13.7597 87.1843C14.8177 87.7191 15.1586 87.7655 15.1586 87.7655C15.2354 87.7763 15.3113 87.7922 15.3859 87.8129C15.4562 87.8304 15.5296 87.852 15.604 87.8778L15.637 87.8891C15.7228 87.918 15.8106 87.953 15.8974 87.9921C16.3114 88.1814 16.7494 88.3135 17.1992 88.3847C17.1992 88.3847 17.4648 88.3363 17.7241 88.2621C17.7241 88.2796 17.7241 88.5074 18.0816 88.5712C18.1012 88.5712 18.1209 88.5784 18.1415 88.5805C18.5806 88.6331 18.5383 87.9623 18.5383 87.9623C18.684 88.0247 18.8366 88.0696 18.9929 88.0962C19.1613 88.121 19.3184 88.1024 19.3483 87.9623C19.3933 87.8025 19.3933 87.6336 19.3483 87.4739H19.4206C19.4434 87.4739 19.4661 87.4739 19.4909 87.4677L19.5581 87.4615C19.5984 87.4615 19.6376 87.4543 19.6769 87.4491C19.9237 87.4329 20.1671 87.3826 20.4001 87.2997C20.4441 87.2828 20.4841 87.2572 20.5179 87.2245C20.7752 86.9556 22.1545 84.666 22.2279 84.1611C22.2868 83.7603 22.5616 81.7912 22.6711 81.0101C22.7001 80.8102 22.7166 80.6855 22.7166 80.6855H23.5711C23.5711 80.6855 23.7891 85.2616 23.57 85.6748Z" fill="url(#paint126_linear_12603_70820)"/>
<path d="M18.5391 87.963C18.5391 87.963 19.2799 88.2855 19.3481 87.963C19.393 87.8033 19.393 87.6343 19.3481 87.4746C19.0298 87.4942 18.7746 87.4952 18.7746 87.4952C18.7721 87.5856 18.7496 87.6744 18.7089 87.7552C18.6682 87.836 18.6103 87.907 18.5391 87.963Z" fill="url(#paint127_linear_12603_70820)"/>
<path d="M18.1435 88.5831C18.5826 88.6356 18.5413 87.9648 18.5413 87.9648C18.4076 88.0554 18.2482 88.1006 18.0867 88.0936C18.045 88.1359 17.9965 88.1707 17.9431 88.1967C17.8759 88.2224 17.8015 88.2461 17.7271 88.2688C17.724 88.2822 17.7199 88.5326 18.1435 88.5831Z" fill="url(#paint128_linear_12603_70820)"/>
<path d="M10.4524 85.3641L9.82523 85.9659C9.82523 85.9659 9.23526 85.3476 9.2146 85.2621C9.18931 85.0916 9.18169 84.9189 9.19186 84.7469C9.2084 84.4594 9.28589 84.1493 9.52043 84.1049C9.95748 84.0235 10.2106 84.4491 10.2003 84.6521C10.1899 84.8551 10.129 85.1972 10.2003 85.2384L10.4524 85.3641Z" fill="url(#paint129_linear_12603_70820)"/>
</g>
<defs>
<linearGradient id="paint0_linear_12603_70820" x1="-2.93447" y1="21.6801" x2="71.3532" y2="65.3416" gradientUnits="userSpaceOnUse">
<stop stop-color="#FFD571"/>
<stop offset="0.25" stop-color="#FFBD60"/>
<stop offset="0.78" stop-color="#FF8035"/>
<stop offset="1" stop-color="#FF6421"/>
</linearGradient>
<linearGradient id="paint1_linear_12603_70820" x1="39.2066" y1="62.8632" x2="35.0951" y2="71.4706" gradientUnits="userSpaceOnUse">
<stop stop-color="#F5EF68"/>
<stop offset="1" stop-color="#F8C154"/>
</linearGradient>
<linearGradient id="paint2_linear_12603_70820" x1="61.4323" y1="65.2929" x2="30.7832" y2="34.1235" gradientUnits="userSpaceOnUse">
<stop stop-color="#F5EF68"/>
<stop offset="1" stop-color="#F8C154"/>
</linearGradient>
<linearGradient id="paint3_linear_12603_70820" x1="61.7072" y1="66.0721" x2="41.8437" y2="45.8711" gradientUnits="userSpaceOnUse">
<stop stop-color="#FFD571"/>
<stop offset="0.25" stop-color="#FFBD60"/>
<stop offset="0.78" stop-color="#FF8035"/>
<stop offset="1" stop-color="#FF6421"/>
</linearGradient>
<linearGradient id="paint4_linear_12603_70820" x1="44.1576" y1="45.5179" x2="48.9214" y2="55.4255" gradientUnits="userSpaceOnUse">
<stop stop-color="#FFA852"/>
<stop offset="1" stop-color="#F7D35C"/>
</linearGradient>
<linearGradient id="paint5_linear_12603_70820" x1="73.5092" y1="76.7034" x2="92.4192" y2="74.7881" gradientUnits="userSpaceOnUse">
<stop stop-color="#77D8FC"/>
<stop offset="0.43" stop-color="#75C0EA"/>
<stop offset="1" stop-color="#719ACD"/>
</linearGradient>
<linearGradient id="paint6_linear_12603_70820" x1="76.0244" y1="76.6767" x2="77.3602" y2="76.5414" gradientUnits="userSpaceOnUse">
<stop stop-color="#F7F7F7"/>
<stop offset="1" stop-color="white"/>
</linearGradient>
<linearGradient id="paint7_linear_12603_70820" x1="88.3018" y1="75.3951" x2="89.656" y2="75.2579" gradientUnits="userSpaceOnUse">
<stop stop-color="#F7F7F7"/>
<stop offset="1" stop-color="white"/>
</linearGradient>
<linearGradient id="paint8_linear_12603_70820" x1="45.8881" y1="31.8554" x2="94.2833" y2="60.9125" gradientUnits="userSpaceOnUse">
<stop stop-color="#FFD571"/>
<stop offset="0.25" stop-color="#FFBD60"/>
<stop offset="0.78" stop-color="#FF8035"/>
<stop offset="1" stop-color="#FF6421"/>
</linearGradient>
<linearGradient id="paint9_linear_12603_70820" x1="71.1614" y1="54.383" x2="93.2163" y2="52.0303" gradientUnits="userSpaceOnUse">
<stop stop-color="#F5EF68"/>
<stop offset="1" stop-color="#F8C154"/>
</linearGradient>
<linearGradient id="paint10_linear_12603_70820" x1="73.6985" y1="53.6623" x2="87.6119" y2="52.253" gradientUnits="userSpaceOnUse">
<stop stop-color="#FFD571"/>
<stop offset="0.25" stop-color="#FFBD60"/>
<stop offset="0.78" stop-color="#FF8035"/>
<stop offset="1" stop-color="#FF6421"/>
</linearGradient>
<linearGradient id="paint11_linear_12603_70820" x1="65.6646" y1="56.3912" x2="65.8845" y2="135.281" gradientUnits="userSpaceOnUse">
<stop stop-color="#BE73DE"/>
<stop offset="1" stop-color="#514EB7"/>
</linearGradient>
<linearGradient id="paint12_linear_12603_70820" x1="31.2867" y1="113.885" x2="36.3794" y2="113.885" gradientUnits="userSpaceOnUse">
<stop stop-color="#F7F7F7"/>
<stop offset="1" stop-color="white"/>
</linearGradient>
<linearGradient id="paint13_linear_12603_70820" x1="43.9244" y1="113.881" x2="49.0181" y2="113.881" gradientUnits="userSpaceOnUse">
<stop stop-color="#F7F7F7"/>
<stop offset="1" stop-color="white"/>
</linearGradient>
<linearGradient id="paint14_linear_12603_70820" x1="56.582" y1="113.884" x2="61.6757" y2="113.884" gradientUnits="userSpaceOnUse">
<stop stop-color="#F7F7F7"/>
<stop offset="1" stop-color="white"/>
</linearGradient>
<linearGradient id="paint15_linear_12603_70820" x1="69.231" y1="113.884" x2="74.3237" y2="113.884" gradientUnits="userSpaceOnUse">
<stop stop-color="#F7F7F7"/>
<stop offset="1" stop-color="white"/>
</linearGradient>
<linearGradient id="paint16_linear_12603_70820" x1="81.8682" y1="113.884" x2="86.962" y2="113.884" gradientUnits="userSpaceOnUse">
<stop stop-color="#F7F7F7"/>
<stop offset="1" stop-color="white"/>
</linearGradient>
<linearGradient id="paint17_linear_12603_70820" x1="94.5271" y1="113.884" x2="99.6208" y2="113.884" gradientUnits="userSpaceOnUse">
<stop stop-color="#F7F7F7"/>
<stop offset="1" stop-color="white"/>
</linearGradient>
<linearGradient id="paint18_linear_12603_70820" x1="37.6098" y1="101.491" x2="42.7025" y2="101.491" gradientUnits="userSpaceOnUse">
<stop stop-color="#F7F7F7"/>
<stop offset="1" stop-color="white"/>
</linearGradient>
<linearGradient id="paint19_linear_12603_70820" x1="50.2575" y1="101.49" x2="55.3512" y2="101.49" gradientUnits="userSpaceOnUse">
<stop stop-color="#F7F7F7"/>
<stop offset="1" stop-color="white"/>
</linearGradient>
<linearGradient id="paint20_linear_12603_70820" x1="62.5477" y1="101.913" x2="67.6246" y2="101.918" gradientUnits="userSpaceOnUse">
<stop stop-color="#F7F7F7"/>
<stop offset="1" stop-color="white"/>
</linearGradient>
<linearGradient id="paint21_linear_12603_70820" x1="75.5546" y1="101.49" x2="80.6473" y2="101.49" gradientUnits="userSpaceOnUse">
<stop stop-color="#F7F7F7"/>
<stop offset="1" stop-color="white"/>
</linearGradient>
<linearGradient id="paint22_linear_12603_70820" x1="88.2026" y1="101.49" x2="93.2963" y2="101.49" gradientUnits="userSpaceOnUse">
<stop stop-color="#F7F7F7"/>
<stop offset="1" stop-color="white"/>
</linearGradient>
<linearGradient id="paint23_linear_12603_70820" x1="100.851" y1="101.49" x2="104.062" y2="101.49" gradientUnits="userSpaceOnUse">
<stop stop-color="#F7F7F7"/>
<stop offset="1" stop-color="white"/>
</linearGradient>
<linearGradient id="paint24_linear_12603_70820" x1="27.4502" y1="101.49" x2="30.3763" y2="101.49" gradientUnits="userSpaceOnUse">
<stop stop-color="#F7F7F7"/>
<stop offset="1" stop-color="white"/>
</linearGradient>
<linearGradient id="paint25_linear_12603_70820" x1="43.7721" y1="87.598" x2="48.8659" y2="87.598" gradientUnits="userSpaceOnUse">
<stop stop-color="#F7F7F7"/>
<stop offset="1" stop-color="white"/>
</linearGradient>
<linearGradient id="paint26_linear_12603_70820" x1="56.4124" y1="87.5986" x2="61.5061" y2="87.5986" gradientUnits="userSpaceOnUse">
<stop stop-color="#F7F7F7"/>
<stop offset="1" stop-color="white"/>
</linearGradient>
<linearGradient id="paint27_linear_12603_70820" x1="69.0603" y1="87.5987" x2="74.153" y2="87.5987" gradientUnits="userSpaceOnUse">
<stop stop-color="#F7F7F7"/>
<stop offset="1" stop-color="white"/>
</linearGradient>
<linearGradient id="paint28_linear_12603_70820" x1="81.7165" y1="87.5983" x2="86.8102" y2="87.5983" gradientUnits="userSpaceOnUse">
<stop stop-color="#F7F7F7"/>
<stop offset="1" stop-color="white"/>
</linearGradient>
<linearGradient id="paint29_linear_12603_70820" x1="94.3555" y1="87.5985" x2="99.4492" y2="87.5985" gradientUnits="userSpaceOnUse">
<stop stop-color="#F7F7F7"/>
<stop offset="1" stop-color="white"/>
</linearGradient>
<linearGradient id="paint30_linear_12603_70820" x1="31.4403" y1="87.597" x2="36.533" y2="87.597" gradientUnits="userSpaceOnUse">
<stop stop-color="#F7F7F7"/>
<stop offset="1" stop-color="white"/>
</linearGradient>
<linearGradient id="paint31_linear_12603_70820" x1="37.4499" y1="73.548" x2="42.5426" y2="73.548" gradientUnits="userSpaceOnUse">
<stop stop-color="#F7F7F7"/>
<stop offset="1" stop-color="white"/>
</linearGradient>
<linearGradient id="paint32_linear_12603_70820" x1="50.0964" y1="73.5473" x2="55.1901" y2="73.5473" gradientUnits="userSpaceOnUse">
<stop stop-color="#F7F7F7"/>
<stop offset="1" stop-color="white"/>
</linearGradient>
<linearGradient id="paint33_linear_12603_70820" x1="62.7367" y1="73.5476" x2="67.8294" y2="73.5476" gradientUnits="userSpaceOnUse">
<stop stop-color="#F7F7F7"/>
<stop offset="1" stop-color="white"/>
</linearGradient>
<linearGradient id="paint34_linear_12603_70820" x1="75.3944" y1="73.5473" x2="80.4872" y2="73.5473" gradientUnits="userSpaceOnUse">
<stop stop-color="#F7F7F7"/>
<stop offset="1" stop-color="white"/>
</linearGradient>
<linearGradient id="paint35_linear_12603_70820" x1="88.0417" y1="73.5481" x2="93.1354" y2="73.5481" gradientUnits="userSpaceOnUse">
<stop stop-color="#F7F7F7"/>
<stop offset="1" stop-color="white"/>
</linearGradient>
<linearGradient id="paint36_linear_12603_70820" x1="100.69" y1="73.5487" x2="104.062" y2="73.5487" gradientUnits="userSpaceOnUse">
<stop stop-color="#F7F7F7"/>
<stop offset="1" stop-color="white"/>
</linearGradient>
<linearGradient id="paint37_linear_12603_70820" x1="27.4502" y1="73.549" x2="30.2161" y2="73.549" gradientUnits="userSpaceOnUse">
<stop stop-color="#F7F7F7"/>
<stop offset="1" stop-color="white"/>
</linearGradient>
<linearGradient id="paint38_linear_12603_70820" x1="43.7734" y1="60.3036" x2="48.8661" y2="60.3036" gradientUnits="userSpaceOnUse">
<stop stop-color="#F7F7F7"/>
<stop offset="1" stop-color="white"/>
</linearGradient>
<linearGradient id="paint39_linear_12603_70820" x1="56.4209" y1="60.3036" x2="61.5146" y2="60.3036" gradientUnits="userSpaceOnUse">
<stop stop-color="#F7F7F7"/>
<stop offset="1" stop-color="white"/>
</linearGradient>
<linearGradient id="paint40_linear_12603_70820" x1="69.0684" y1="60.3036" x2="74.1621" y2="60.3036" gradientUnits="userSpaceOnUse">
<stop stop-color="#F7F7F7"/>
<stop offset="1" stop-color="white"/>
</linearGradient>
<linearGradient id="paint41_linear_12603_70820" x1="81.7178" y1="60.3036" x2="86.8105" y2="60.3036" gradientUnits="userSpaceOnUse">
<stop stop-color="#F7F7F7"/>
<stop offset="1" stop-color="white"/>
</linearGradient>
<linearGradient id="paint42_linear_12603_70820" x1="94.3653" y1="60.3036" x2="99.458" y2="60.3036" gradientUnits="userSpaceOnUse">
<stop stop-color="#F7F7F7"/>
<stop offset="1" stop-color="white"/>
</linearGradient>
<linearGradient id="paint43_linear_12603_70820" x1="31.4473" y1="60.3036" x2="36.541" y2="60.3036" gradientUnits="userSpaceOnUse">
<stop stop-color="#F7F7F7"/>
<stop offset="1" stop-color="white"/>
</linearGradient>
<linearGradient id="paint44_linear_12603_70820" x1="65.2031" y1="133.876" x2="66.6794" y2="40.4646" gradientUnits="userSpaceOnUse">
<stop stop-color="#30944C"/>
<stop offset="0.41" stop-color="#8ABB62"/>
<stop offset="0.82" stop-color="#DEDF77"/>
<stop offset="1" stop-color="#FFED7F"/>
</linearGradient>
<linearGradient id="paint45_linear_12603_70820" x1="112.261" y1="52.3066" x2="114.459" y2="-1.68298" gradientUnits="userSpaceOnUse">
<stop stop-color="#30944C"/>
<stop offset="0.41" stop-color="#8ABB62"/>
<stop offset="0.82" stop-color="#DEDF77"/>
<stop offset="1" stop-color="#FFED7F"/>
</linearGradient>
<linearGradient id="paint46_linear_12603_70820" x1="94.7458" y1="47.11" x2="170.502" y2="69.9203" gradientUnits="userSpaceOnUse">
<stop stop-color="#30944C"/>
<stop offset="0.41" stop-color="#8ABB62"/>
<stop offset="0.82" stop-color="#DEDF77"/>
<stop offset="1" stop-color="#FFED7F"/>
</linearGradient>
<linearGradient id="paint47_linear_12603_70820" x1="87.6333" y1="26.9941" x2="87.6333" y2="35.013" gradientUnits="userSpaceOnUse">
<stop stop-color="white"/>
<stop offset="1" stop-color="white" stop-opacity="0"/>
</linearGradient>
<linearGradient id="paint48_linear_12603_70820" x1="83.6345" y1="14.3836" x2="134.795" y2="107.165" gradientUnits="userSpaceOnUse">
<stop stop-color="#BE73DE"/>
<stop offset="0.97" stop-color="#544FB8"/>
<stop offset="1" stop-color="#514EB7"/>
</linearGradient>
<linearGradient id="paint49_linear_12603_70820" x1="82.8061" y1="14.8446" x2="133.966" y2="107.626" gradientUnits="userSpaceOnUse">
<stop stop-color="#BE73DE"/>
<stop offset="1" stop-color="#514EB7"/>
</linearGradient>
<linearGradient id="paint50_linear_12603_70820" x1="112.868" y1="52.8098" x2="144.335" y2="-3.89712" gradientUnits="userSpaceOnUse">
<stop stop-color="#30944C"/>
<stop offset="0.41" stop-color="#8ABB62"/>
<stop offset="0.82" stop-color="#DEDF77"/>
<stop offset="1" stop-color="#FFED7F"/>
</linearGradient>
<linearGradient id="paint51_linear_12603_70820" x1="112.756" y1="50.5777" x2="173.957" y2="41.7155" gradientUnits="userSpaceOnUse">
<stop stop-color="#30944C"/>
<stop offset="0.41" stop-color="#8ABB62"/>
<stop offset="0.82" stop-color="#DEDF77"/>
<stop offset="1" stop-color="#FFED7F"/>
</linearGradient>
<linearGradient id="paint52_linear_12603_70820" x1="111.366" y1="45.9707" x2="117.047" y2="48.7355" gradientUnits="userSpaceOnUse">
<stop stop-color="#30944C"/>
<stop offset="0.41" stop-color="#8ABB62"/>
<stop offset="0.82" stop-color="#DEDF77"/>
<stop offset="1" stop-color="#FFED7F"/>
</linearGradient>
<linearGradient id="paint53_linear_12603_70820" x1="112.953" y1="49.1551" x2="120.275" y2="52.7188" gradientUnits="userSpaceOnUse">
<stop stop-color="#30944C"/>
<stop offset="0.41" stop-color="#8ABB62"/>
<stop offset="0.82" stop-color="#DEDF77"/>
<stop offset="1" stop-color="#FFED7F"/>
</linearGradient>
<linearGradient id="paint54_linear_12603_70820" x1="90.14" y1="59.1359" x2="119.282" y2="46.4431" gradientUnits="userSpaceOnUse">
<stop stop-color="#30944C"/>
<stop offset="0.41" stop-color="#8ABB62"/>
<stop offset="0.82" stop-color="#DEDF77"/>
<stop offset="1" stop-color="#FFED7F"/>
</linearGradient>
<linearGradient id="paint55_linear_12603_70820" x1="88.5681" y1="82.5423" x2="103.278" y2="86.8276" gradientUnits="userSpaceOnUse">
<stop stop-color="#FFD571"/>
<stop offset="0.25" stop-color="#FFBD60"/>
<stop offset="0.78" stop-color="#FF8035"/>
<stop offset="1" stop-color="#FF6421"/>
</linearGradient>
<linearGradient id="paint56_linear_12603_70820" x1="90.8094" y1="83.1917" x2="101.038" y2="86.1716" gradientUnits="userSpaceOnUse">
<stop stop-color="#F5EF68"/>
<stop offset="1" stop-color="#F8C154"/>
</linearGradient>
<linearGradient id="paint57_linear_12603_70820" x1="92.7708" y1="83.4069" x2="99.2688" y2="85.2999" gradientUnits="userSpaceOnUse">
<stop stop-color="#FFD571"/>
<stop offset="0.25" stop-color="#FFBD60"/>
<stop offset="0.78" stop-color="#FF8035"/>
<stop offset="1" stop-color="#FF6421"/>
</linearGradient>
<linearGradient id="paint58_linear_12603_70820" x1="103.54" y1="119.859" x2="100.497" y2="119.859" gradientUnits="userSpaceOnUse">
<stop stop-color="#77D8FC"/>
<stop offset="0.43" stop-color="#75C0EA"/>
<stop offset="1" stop-color="#719ACD"/>
</linearGradient>
<linearGradient id="paint59_linear_12603_70820" x1="109.6" y1="119.859" x2="106.557" y2="119.859" gradientUnits="userSpaceOnUse">
<stop stop-color="#77D8FC"/>
<stop offset="0.43" stop-color="#75C0EA"/>
<stop offset="1" stop-color="#719ACD"/>
</linearGradient>
<linearGradient id="paint60_linear_12603_70820" x1="105.276" y1="84.2289" x2="106.285" y2="84.8104" gradientUnits="userSpaceOnUse">
<stop stop-color="#FFECDC"/>
<stop offset="0.24" stop-color="#F6DAC4"/>
<stop offset="0.74" stop-color="#E0AD87"/>
<stop offset="1" stop-color="#D39364"/>
</linearGradient>
<linearGradient id="paint61_linear_12603_70820" x1="108.186" y1="83.5495" x2="104.266" y2="83.5495" gradientUnits="userSpaceOnUse">
<stop stop-color="#808080"/>
<stop offset="0.64" stop-color="#52524D"/>
<stop offset="1" stop-color="#3C3C35"/>
</linearGradient>
<linearGradient id="paint62_linear_12603_70820" x1="105.754" y1="85.6306" x2="106.928" y2="85.3095" gradientUnits="userSpaceOnUse">
<stop stop-color="#FFECDC"/>
<stop offset="0.15" stop-color="#FDE7D5"/>
<stop offset="0.36" stop-color="#F6DAC3"/>
<stop offset="0.6" stop-color="#EBC3A5"/>
<stop offset="0.87" stop-color="#DCA47B"/>
<stop offset="1" stop-color="#D39364"/>
</linearGradient>
<linearGradient id="paint63_linear_12603_70820" x1="109.609" y1="108.812" x2="105.967" y2="108.812" gradientUnits="userSpaceOnUse">
<stop stop-color="#808080"/>
<stop offset="0.64" stop-color="#52524D"/>
<stop offset="1" stop-color="#3C3C35"/>
</linearGradient>
<linearGradient id="paint64_linear_12603_70820" x1="95.4579" y1="92.2972" x2="109.556" y2="92.2972" gradientUnits="userSpaceOnUse">
<stop stop-color="#7DE1F6"/>
<stop offset="0.07" stop-color="#74D8F4"/>
<stop offset="0.71" stop-color="#218BE2"/>
<stop offset="1" stop-color="#006DDB"/>
</linearGradient>
<linearGradient id="paint65_linear_12603_70820" x1="109.555" y1="108.811" x2="101.884" y2="108.811" gradientUnits="userSpaceOnUse">
<stop stop-color="#808080"/>
<stop offset="0.64" stop-color="#52524D"/>
<stop offset="1" stop-color="#3C3C35"/>
</linearGradient>
<linearGradient id="paint66_linear_12603_70820" x1="94.1318" y1="92.7216" x2="95.788" y2="92.7216" gradientUnits="userSpaceOnUse">
<stop stop-color="#FFECDC"/>
<stop offset="0.24" stop-color="#F6DAC4"/>
<stop offset="0.74" stop-color="#E0AD87"/>
<stop offset="1" stop-color="#D39364"/>
</linearGradient>
<linearGradient id="paint67_linear_12603_70820" x1="103.219" y1="84.3036" x2="104.44" y2="84.3036" gradientUnits="userSpaceOnUse">
<stop stop-color="#FFECDC"/>
<stop offset="0.15" stop-color="#FDE7D5"/>
<stop offset="0.36" stop-color="#F6DAC3"/>
<stop offset="0.6" stop-color="#EBC3A5"/>
<stop offset="0.87" stop-color="#DCA47B"/>
<stop offset="1" stop-color="#D39364"/>
</linearGradient>
<linearGradient id="paint68_linear_12603_70820" x1="103.868" y1="85.9135" x2="105.728" y2="85.9135" gradientUnits="userSpaceOnUse">
<stop stop-color="#7DE1F6"/>
<stop offset="0.07" stop-color="#74D8F4"/>
<stop offset="0.71" stop-color="#218BE2"/>
<stop offset="1" stop-color="#006DDB"/>
</linearGradient>
<linearGradient id="paint69_linear_12603_70820" x1="117.144" y1="98.448" x2="116.814" y2="125.332" gradientUnits="userSpaceOnUse">
<stop stop-color="#FFD571"/>
<stop offset="0.25" stop-color="#FFBD60"/>
<stop offset="0.78" stop-color="#FF8035"/>
<stop offset="1" stop-color="#FF6421"/>
</linearGradient>
<linearGradient id="paint70_linear_12603_70820" x1="116.939" y1="97.455" x2="117.049" y2="105.057" gradientUnits="userSpaceOnUse">
<stop stop-color="#FFD571"/>
<stop offset="0.25" stop-color="#FFBD60"/>
<stop offset="0.78" stop-color="#FF8035"/>
<stop offset="1" stop-color="#FF6421"/>
</linearGradient>
<linearGradient id="paint71_linear_12603_70820" x1="113.246" y1="108.048" x2="120.938" y2="110.289" gradientUnits="userSpaceOnUse">
<stop stop-color="#F75757"/>
<stop offset="1" stop-color="#CC1212"/>
</linearGradient>
<linearGradient id="paint72_linear_12603_70820" x1="115.396" y1="97.1152" x2="118.837" y2="98.1177" gradientUnits="userSpaceOnUse">
<stop stop-color="#F75757"/>
<stop offset="1" stop-color="#CC1212"/>
</linearGradient>
<linearGradient id="paint73_linear_12603_70820" x1="119.192" y1="93.2998" x2="127.94" y2="95.8484" gradientUnits="userSpaceOnUse">
<stop stop-color="#F75757"/>
<stop offset="1" stop-color="#CC1212"/>
</linearGradient>
<linearGradient id="paint74_linear_12603_70820" x1="120.809" y1="95.6025" x2="127.156" y2="95.6025" gradientUnits="userSpaceOnUse">
<stop stop-color="#C31432"/>
<stop offset="1" stop-color="#240B36"/>
</linearGradient>
<linearGradient id="paint75_linear_12603_70820" x1="105.719" y1="94.1025" x2="115.781" y2="94.1025" gradientUnits="userSpaceOnUse">
<stop stop-color="#F75757"/>
<stop offset="1" stop-color="#CC1212"/>
</linearGradient>
<linearGradient id="paint76_linear_12603_70820" x1="106.805" y1="95.6025" x2="113.152" y2="95.6025" gradientUnits="userSpaceOnUse">
<stop stop-color="#C31432"/>
<stop offset="1" stop-color="#240B36"/>
</linearGradient>
<linearGradient id="paint77_linear_12603_70820" x1="131.158" y1="101.687" x2="131.268" y2="124.384" gradientUnits="userSpaceOnUse">
<stop stop-color="#7DE1F6"/>
<stop offset="0.07" stop-color="#74D8F4"/>
<stop offset="0.71" stop-color="#218BE2"/>
<stop offset="1" stop-color="#006DDB"/>
</linearGradient>
<linearGradient id="paint78_linear_12603_70820" x1="131.267" y1="103.449" x2="131.158" y2="109.178" gradientUnits="userSpaceOnUse">
<stop stop-color="#7DE1F6"/>
<stop offset="0.07" stop-color="#74D8F4"/>
<stop offset="0.71" stop-color="#218BE2"/>
<stop offset="1" stop-color="#006DDB"/>
</linearGradient>
<linearGradient id="paint79_linear_12603_70820" x1="128.299" y1="111.339" x2="134.35" y2="113.101" gradientUnits="userSpaceOnUse">
<stop stop-color="#F75757"/>
<stop offset="1" stop-color="#CC1212"/>
</linearGradient>
<linearGradient id="paint80_linear_12603_70820" x1="129.629" y1="103.222" x2="133.07" y2="104.224" gradientUnits="userSpaceOnUse">
<stop stop-color="#F75757"/>
<stop offset="1" stop-color="#CC1212"/>
</linearGradient>
<linearGradient id="paint81_linear_12603_70820" x1="133.425" y1="99.4061" x2="142.172" y2="101.955" gradientUnits="userSpaceOnUse">
<stop stop-color="#F75757"/>
<stop offset="1" stop-color="#CC1212"/>
</linearGradient>
<linearGradient id="paint82_linear_12603_70820" x1="135.042" y1="101.709" x2="141.389" y2="101.709" gradientUnits="userSpaceOnUse">
<stop stop-color="#C31432"/>
<stop offset="1" stop-color="#240B36"/>
</linearGradient>
<linearGradient id="paint83_linear_12603_70820" x1="119.952" y1="100.209" x2="130.015" y2="100.209" gradientUnits="userSpaceOnUse">
<stop stop-color="#F75757"/>
<stop offset="1" stop-color="#CC1212"/>
</linearGradient>
<linearGradient id="paint84_linear_12603_70820" x1="121.039" y1="101.709" x2="127.386" y2="101.709" gradientUnits="userSpaceOnUse">
<stop stop-color="#C31432"/>
<stop offset="1" stop-color="#240B36"/>
</linearGradient>
<linearGradient id="paint85_linear_12603_70820" x1="17.1125" y1="103.824" x2="17.0025" y2="134.455" gradientUnits="userSpaceOnUse">
<stop stop-color="#FFD571"/>
<stop offset="0.01" stop-color="#FFD370"/>
<stop offset="0.48" stop-color="#FF9745"/>
<stop offset="0.82" stop-color="#FF722B"/>
<stop offset="1" stop-color="#FF6421"/>
</linearGradient>
<linearGradient id="paint86_linear_12603_70820" x1="17.0184" y1="101.281" x2="17.1283" y2="110.757" gradientUnits="userSpaceOnUse">
<stop stop-color="#FFD571"/>
<stop offset="0.25" stop-color="#FFBD60"/>
<stop offset="0.78" stop-color="#FF8035"/>
<stop offset="1" stop-color="#FF6421"/>
</linearGradient>
<linearGradient id="paint87_linear_12603_70820" x1="14.1577" y1="111.467" x2="20.2088" y2="113.229" gradientUnits="userSpaceOnUse">
<stop stop-color="#F75757"/>
<stop offset="1" stop-color="#CC1212"/>
</linearGradient>
<linearGradient id="paint88_linear_12603_70820" x1="15.4875" y1="103.351" x2="18.9287" y2="104.353" gradientUnits="userSpaceOnUse">
<stop stop-color="#F75757"/>
<stop offset="1" stop-color="#CC1212"/>
</linearGradient>
<linearGradient id="paint89_linear_12603_70820" x1="19.2832" y1="99.5351" x2="28.0308" y2="102.083" gradientUnits="userSpaceOnUse">
<stop stop-color="#F75757"/>
<stop offset="1" stop-color="#CC1212"/>
</linearGradient>
<linearGradient id="paint90_linear_12603_70820" x1="20.415" y1="101.215" x2="26.762" y2="101.215" gradientUnits="userSpaceOnUse">
<stop stop-color="#C31432"/>
<stop offset="1" stop-color="#240B36"/>
</linearGradient>
<linearGradient id="paint91_linear_12603_70820" x1="5.81074" y1="100.337" x2="15.8722" y2="100.337" gradientUnits="userSpaceOnUse">
<stop stop-color="#F75757"/>
<stop offset="1" stop-color="#CC1212"/>
</linearGradient>
<linearGradient id="paint92_linear_12603_70820" x1="6.41257" y1="101.215" x2="12.7596" y2="101.215" gradientUnits="userSpaceOnUse">
<stop stop-color="#C31432"/>
<stop offset="1" stop-color="#240B36"/>
</linearGradient>
<linearGradient id="paint93_linear_12603_70820" x1="6.37896" y1="69.7676" x2="13.256" y2="69.7676" gradientUnits="userSpaceOnUse">
<stop stop-color="#FFD571"/>
<stop offset="0.25" stop-color="#FFBD60"/>
<stop offset="0.78" stop-color="#FF8035"/>
<stop offset="1" stop-color="#FF6421"/>
</linearGradient>
<linearGradient id="paint94_linear_12603_70820" x1="14.0215" y1="67.7035" x2="20.0957" y2="67.7035" gradientUnits="userSpaceOnUse">
<stop stop-color="#FFD571"/>
<stop offset="0.25" stop-color="#FFBD60"/>
<stop offset="0.78" stop-color="#FF8035"/>
<stop offset="1" stop-color="#FF6421"/>
</linearGradient>
<linearGradient id="paint95_linear_12603_70820" x1="6.42546" y1="86.3015" x2="7.85389" y2="69.6628" gradientUnits="userSpaceOnUse">
<stop stop-color="#FFD571"/>
<stop offset="0.25" stop-color="#FFBD60"/>
<stop offset="0.78" stop-color="#FF8035"/>
<stop offset="1" stop-color="#FF6421"/>
</linearGradient>
<linearGradient id="paint96_linear_12603_70820" x1="10.3437" y1="86.637" x2="11.7721" y2="69.9994" gradientUnits="userSpaceOnUse">
<stop stop-color="#FFD571"/>
<stop offset="0.25" stop-color="#FFBD60"/>
<stop offset="0.78" stop-color="#FF8035"/>
<stop offset="1" stop-color="#FF6421"/>
</linearGradient>
<linearGradient id="paint97_linear_12603_70820" x1="18.5913" y1="90.0435" x2="11.7751" y2="67.6661" gradientUnits="userSpaceOnUse">
<stop stop-color="#FFD571"/>
<stop offset="0.25" stop-color="#FFBD60"/>
<stop offset="0.78" stop-color="#FF8035"/>
<stop offset="1" stop-color="#FF6421"/>
</linearGradient>
<linearGradient id="paint98_linear_12603_70820" x1="25.5307" y1="87.9304" x2="18.7145" y2="65.5531" gradientUnits="userSpaceOnUse">
<stop stop-color="#FFD571"/>
<stop offset="0.25" stop-color="#FFBD60"/>
<stop offset="0.78" stop-color="#FF8035"/>
<stop offset="1" stop-color="#FF6421"/>
</linearGradient>
<linearGradient id="paint99_linear_12603_70820" x1="9.52246" y1="71.1945" x2="17.5247" y2="71.1945" gradientUnits="userSpaceOnUse">
<stop stop-color="#FFD571"/>
<stop offset="0.25" stop-color="#FFBD60"/>
<stop offset="0.78" stop-color="#FF8035"/>
<stop offset="1" stop-color="#FF6421"/>
</linearGradient>
<linearGradient id="paint100_linear_12603_70820" x1="16.5088" y1="69.0851" x2="24.3158" y2="69.0851" gradientUnits="userSpaceOnUse">
<stop stop-color="#FFD571"/>
<stop offset="0.25" stop-color="#FFBD60"/>
<stop offset="0.78" stop-color="#FF8035"/>
<stop offset="1" stop-color="#FF6421"/>
</linearGradient>
<linearGradient id="paint101_linear_12603_70820" x1="11.2598" y1="75.5013" x2="19.3788" y2="75.5013" gradientUnits="userSpaceOnUse">
<stop stop-color="#F7F7F7"/>
<stop offset="1" stop-color="white"/>
</linearGradient>
<linearGradient id="paint102_linear_12603_70820" x1="10.297" y1="74.265" x2="31.502" y2="68.5068" gradientUnits="userSpaceOnUse">
<stop stop-color="#FFD571"/>
<stop offset="0.25" stop-color="#FFBD60"/>
<stop offset="0.78" stop-color="#FF8035"/>
<stop offset="1" stop-color="#FF6421"/>
</linearGradient>
<linearGradient id="paint103_linear_12603_70820" x1="10.1864" y1="73.8562" x2="31.3904" y2="68.0981" gradientUnits="userSpaceOnUse">
<stop stop-color="#FFD571"/>
<stop offset="0.25" stop-color="#FFBD60"/>
<stop offset="0.78" stop-color="#FF8035"/>
<stop offset="1" stop-color="#FF6421"/>
</linearGradient>
<linearGradient id="paint104_linear_12603_70820" x1="9.97484" y1="75.8513" x2="13.933" y2="63.0641" gradientUnits="userSpaceOnUse">
<stop stop-color="#FFD571"/>
<stop offset="0.25" stop-color="#FFBD60"/>
<stop offset="0.78" stop-color="#FF8035"/>
<stop offset="1" stop-color="#FF6421"/>
</linearGradient>
<linearGradient id="paint105_linear_12603_70820" x1="15.3496" y1="68.1742" x2="21.8898" y2="68.1742" gradientUnits="userSpaceOnUse">
<stop stop-color="#F7F7F7"/>
<stop offset="1" stop-color="white"/>
</linearGradient>
<linearGradient id="paint106_linear_12603_70820" x1="13.9917" y1="77.0952" x2="17.9488" y2="64.3079" gradientUnits="userSpaceOnUse">
<stop stop-color="#FFD571"/>
<stop offset="0.25" stop-color="#FFBD60"/>
<stop offset="0.78" stop-color="#FF8035"/>
<stop offset="1" stop-color="#FF6421"/>
</linearGradient>
<linearGradient id="paint107_linear_12603_70820" x1="17.7471" y1="78.2573" x2="21.7042" y2="65.47" gradientUnits="userSpaceOnUse">
<stop stop-color="#FFD571"/>
<stop offset="0.25" stop-color="#FFBD60"/>
<stop offset="0.78" stop-color="#FF8035"/>
<stop offset="1" stop-color="#FF6421"/>
</linearGradient>
<linearGradient id="paint108_linear_12603_70820" x1="14.2461" y1="74.4196" x2="0.998965" y2="69.1057" gradientUnits="userSpaceOnUse">
<stop stop-color="#FFD571"/>
<stop offset="0.25" stop-color="#FFBD60"/>
<stop offset="0.78" stop-color="#FF8035"/>
<stop offset="1" stop-color="#FF6421"/>
</linearGradient>
<linearGradient id="paint109_linear_12603_70820" x1="8.13281" y1="76.5565" x2="14.5987" y2="76.5565" gradientUnits="userSpaceOnUse">
<stop stop-color="#F7F7F7"/>
<stop offset="1" stop-color="white"/>
</linearGradient>
<linearGradient id="paint110_linear_12603_70820" x1="9.07972" y1="65.98" x2="11.3246" y2="62.9157" gradientUnits="userSpaceOnUse">
<stop stop-color="#F7F7F7"/>
<stop offset="1" stop-color="white"/>
</linearGradient>
<linearGradient id="paint111_linear_12603_70820" x1="12.5744" y1="66.2531" x2="17.6321" y2="59.349" gradientUnits="userSpaceOnUse">
<stop stop-color="#F7F7F7"/>
<stop offset="1" stop-color="white"/>
</linearGradient>
<linearGradient id="paint112_linear_12603_70820" x1="14.0796" y1="69.2676" x2="14.9225" y2="68.1169" gradientUnits="userSpaceOnUse">
<stop stop-color="#F7F7F7"/>
<stop offset="1" stop-color="white"/>
</linearGradient>
<linearGradient id="paint113_linear_12603_70820" x1="14.8548" y1="69.0463" x2="15.9416" y2="67.5628" gradientUnits="userSpaceOnUse">
<stop stop-color="#F7F7F7"/>
<stop offset="1" stop-color="white"/>
</linearGradient>
<linearGradient id="paint114_linear_12603_70820" x1="5.98789" y1="67.7483" x2="14.8994" y2="67.7483" gradientUnits="userSpaceOnUse">
<stop stop-color="#F7F7F7"/>
<stop offset="1" stop-color="white"/>
</linearGradient>
<linearGradient id="paint115_linear_12603_70820" x1="18.8258" y1="66.5898" x2="15.5598" y2="64.1867" gradientUnits="userSpaceOnUse">
<stop stop-color="#F7F7F7"/>
<stop offset="1" stop-color="white"/>
</linearGradient>
<linearGradient id="paint116_linear_12603_70820" x1="19.0135" y1="87.8634" x2="17.3428" y2="87.8634" gradientUnits="userSpaceOnUse">
<stop stop-color="#FFECDC"/>
<stop offset="0.24" stop-color="#F6DAC4"/>
<stop offset="0.74" stop-color="#E0AD87"/>
<stop offset="1" stop-color="#D39364"/>
</linearGradient>
<linearGradient id="paint117_linear_12603_70820" x1="18.9044" y1="85.6556" x2="16.0248" y2="85.6556" gradientUnits="userSpaceOnUse">
<stop stop-color="#FFECDC"/>
<stop offset="0.24" stop-color="#F6DAC4"/>
<stop offset="0.74" stop-color="#E0AD87"/>
<stop offset="1" stop-color="#D39364"/>
</linearGradient>
<linearGradient id="paint118_linear_12603_70820" x1="17.9101" y1="85.4074" x2="15.4077" y2="85.4074" gradientUnits="userSpaceOnUse">
<stop stop-color="#808080"/>
<stop offset="0.64" stop-color="#52524D"/>
<stop offset="1" stop-color="#3C3C35"/>
</linearGradient>
<linearGradient id="paint119_linear_12603_70820" x1="17.5676" y1="87.2088" x2="16.9756" y2="87.2088" gradientUnits="userSpaceOnUse">
<stop stop-color="#808080"/>
<stop offset="0.64" stop-color="#52524D"/>
<stop offset="1" stop-color="#3C3C35"/>
</linearGradient>
<linearGradient id="paint120_linear_12603_70820" x1="18.0114" y1="89.709" x2="13.7184" y2="89.709" gradientUnits="userSpaceOnUse">
<stop stop-color="#808080"/>
<stop offset="0.64" stop-color="#52524D"/>
<stop offset="1" stop-color="#3C3C35"/>
</linearGradient>
<linearGradient id="paint121_linear_12603_70820" x1="13.7773" y1="119.393" x2="16.8935" y2="119.393" gradientUnits="userSpaceOnUse">
<stop stop-color="#F5F5F5"/>
<stop offset="0.41" stop-color="#DDDDDD"/>
<stop offset="1" stop-color="#B3B3B3"/>
</linearGradient>
<linearGradient id="paint122_linear_12603_70820" x1="22.5466" y1="119.392" x2="25.6628" y2="119.392" gradientUnits="userSpaceOnUse">
<stop stop-color="#F5F5F5"/>
<stop offset="0.41" stop-color="#DDDDDD"/>
<stop offset="1" stop-color="#B3B3B3"/>
</linearGradient>
<linearGradient id="paint123_linear_12603_70820" x1="13.7766" y1="107.855" x2="23.0807" y2="107.855" gradientUnits="userSpaceOnUse">
<stop stop-color="#808080"/>
<stop offset="0.64" stop-color="#52524D"/>
<stop offset="1" stop-color="#3C3C35"/>
</linearGradient>
<linearGradient id="paint124_linear_12603_70820" x1="20.4079" y1="107.855" x2="23.9859" y2="107.855" gradientUnits="userSpaceOnUse">
<stop stop-color="#808080"/>
<stop offset="0.64" stop-color="#52524D"/>
<stop offset="1" stop-color="#3C3C35"/>
</linearGradient>
<linearGradient id="paint125_linear_12603_70820" x1="22.5206" y1="80.0461" x2="24.1779" y2="80.0461" gradientUnits="userSpaceOnUse">
<stop stop-color="#FFECDC"/>
<stop offset="0.24" stop-color="#F6DAC4"/>
<stop offset="0.74" stop-color="#E0AD87"/>
<stop offset="1" stop-color="#D39364"/>
</linearGradient>
<linearGradient id="paint126_linear_12603_70820" x1="14.3455" y1="79.243" x2="26.3407" y2="98.3339" gradientUnits="userSpaceOnUse">
<stop stop-color="#7DE1F6"/>
<stop offset="0.07" stop-color="#74D8F4"/>
<stop offset="0.71" stop-color="#218BE2"/>
<stop offset="1" stop-color="#006DDB"/>
</linearGradient>
<linearGradient id="paint127_linear_12603_70820" x1="19.3791" y1="87.7909" x2="18.5391" y2="87.7909" gradientUnits="userSpaceOnUse">
<stop stop-color="#F7F7F7"/>
<stop offset="1" stop-color="white"/>
</linearGradient>
<linearGradient id="paint128_linear_12603_70820" x1="18.5403" y1="88.275" x2="17.725" y2="88.275" gradientUnits="userSpaceOnUse">
<stop stop-color="#F7F7F7"/>
<stop offset="1" stop-color="white"/>
</linearGradient>
<linearGradient id="paint129_linear_12603_70820" x1="9.18773" y1="85.0313" x2="10.4524" y2="85.0313" gradientUnits="userSpaceOnUse">
<stop stop-color="#FFECDC"/>
<stop offset="0.24" stop-color="#F6DAC4"/>
<stop offset="0.74" stop-color="#E0AD87"/>
<stop offset="1" stop-color="#D39364"/>
</linearGradient>
<clipPath id="clip0_12603_70820">
<rect width="158" height="119.684" fill="white" transform="translate(0 0.316406)"/>
</clipPath>
<clipPath id="clip1_12603_70820">
<rect width="7.00705" height="10.9843" fill="white" transform="translate(41 47.0361) rotate(-25.6796)"/>
</clipPath>
</defs>
</svg>
